<svg width="164" height="165" viewBox="0 0 164 165" fill="none" xmlns="http://www.w3.org/2000/svg">
<g id="noun-company-1716849 1">
<g id="Group">
<path id="Vector" d="M8.96777 142.87H155.995" stroke="#2F7F2B" stroke-width="5"/>
<path id="Vector_2" d="M128.861 142.87V76.1286L118.084 61.6387L105.19 70.4205V142.87" stroke="#2F7F2B" stroke-width="5" stroke-linecap="round" stroke-linejoin="round"/>
<path id="Vector_3" d="M105.19 70.4203V53.9544L66.5083 14.2168V142.87" stroke="#2F7F2B" stroke-width="5" stroke-linecap="round" stroke-linejoin="round"/>
<path id="Vector_4" d="M66.5087 55.0517L58.2336 46.709L36.1025 68.2244V142.87" stroke="#2F7F2B" stroke-width="5" stroke-linecap="round" stroke-linejoin="round"/>
<path id="Vector_5" d="M58.2334 46.709V142.87" stroke="#2F7F2B" stroke-width="5" stroke-linecap="round" stroke-linejoin="round"/>
<path id="Vector_6" d="M95.9526 44.5137V142.87" stroke="#2F7F2B" stroke-width="5" stroke-linecap="round" stroke-linejoin="round"/>
<path id="Vector_7" d="M95.9523 85.3496L78.6323 96.3269V142.87" stroke="#2F7F2B" stroke-width="5" stroke-linecap="round" stroke-linejoin="round"/>
<path id="Vector_8" d="M118.083 61.6387V142.87" stroke="#2F7F2B" stroke-width="5" stroke-linecap="round" stroke-linejoin="round"/>
<path id="Vector_9" fill-rule="evenodd" clip-rule="evenodd" d="M23.2087 119.159C23.5936 120.257 23.9785 121.354 23.9785 122.672C23.9785 126.843 20.8994 130.136 17.2429 130.136C13.5865 130.136 10.6998 126.843 10.6998 122.672C10.6998 121.354 10.8923 120.257 11.2772 119.159C10.6998 118.061 10.3149 116.524 10.3149 114.988C10.3149 110.597 13.394 107.084 17.2429 107.084C21.0918 107.084 24.1709 110.597 24.1709 114.988C24.1709 116.524 23.786 118.061 23.2087 119.159Z" stroke="#2F7F2B" stroke-width="5"/>
<path id="Vector_10" d="M17.2427 130.137V142.87" stroke="#2F7F2B" stroke-width="5"/>
<path id="Vector_11" fill-rule="evenodd" clip-rule="evenodd" d="M153.493 119.159C154.071 120.257 154.263 121.354 154.263 122.672C154.263 126.843 151.376 130.136 147.72 130.136C144.064 130.136 140.984 126.843 140.984 122.672C140.984 121.354 141.177 120.257 141.754 119.159C140.984 118.061 140.6 116.524 140.6 114.988C140.6 110.597 143.871 107.084 147.72 107.084C151.569 107.084 154.648 110.597 154.648 114.988C154.648 116.524 154.263 118.061 153.493 119.159Z" stroke="#2F7F2B" stroke-width="5"/>
<path id="Vector_12" d="M147.72 130.137V142.87" stroke="#2F7F2B" stroke-width="5"/>
<path id="Vector_13" fill-rule="evenodd" clip-rule="evenodd" d="M23.2087 119.159C23.786 118.061 24.1709 116.524 24.1709 114.988C24.1709 110.597 21.0918 107.084 17.2429 107.084C13.394 107.084 10.3149 110.597 10.3149 114.988C10.3149 116.524 10.6998 118.061 11.2772 119.159C10.8923 120.257 10.6998 121.354 10.6998 122.672C10.6998 126.843 13.5865 130.136 17.2429 130.136C20.8994 130.136 23.9785 126.843 23.9785 122.672C23.9785 121.354 23.5936 120.257 23.2087 119.159Z" fill="#2F7F2B"/>
<path id="Vector_14" fill-rule="evenodd" clip-rule="evenodd" d="M140.6 114.988C140.6 116.524 140.984 118.061 141.754 119.159C141.177 120.257 140.984 121.354 140.984 122.672C140.984 126.843 144.064 130.136 147.72 130.136C151.376 130.136 154.263 126.843 154.263 122.672C154.263 121.354 154.071 120.257 153.493 119.159C154.263 118.061 154.648 116.524 154.648 114.988C154.648 110.597 151.569 107.084 147.72 107.084C143.871 107.084 140.6 110.597 140.6 114.988Z" fill="#2F7F2B"/>
<path id="Vector_15" fill-rule="evenodd" clip-rule="evenodd" d="M95.9523 142.87V85.3496L78.6323 96.3269V142.87H95.9523Z" fill="#2F7F2B"/>
</g>
</g>
</svg>
