<svg width="150" height="116" viewBox="0 0 150 116" fill="none" xmlns="http://www.w3.org/2000/svg">
<g id="Group">
<path id="Vector" d="M75.2288 14.4323C74.3282 14.4323 73.4644 14.1443 72.8276 13.6317C72.1908 13.1191 71.833 12.4239 71.833 11.699V3.49896C71.833 2.77403 72.1908 2.0788 72.8276 1.5662C73.4644 1.0536 74.3282 0.765625 75.2288 0.765625C76.1294 0.765625 76.9932 1.0536 77.63 1.5662C78.2669 2.0788 78.6246 2.77403 78.6246 3.49896V11.699C78.6246 12.4239 78.2669 13.1191 77.63 13.6317C76.9932 14.1443 76.1294 14.4323 75.2288 14.4323ZM34.9712 35.3726C35.1948 35.0621 35.3402 34.7192 35.399 34.3634C35.4579 34.0076 35.4291 33.646 35.3142 33.2992C35.1993 32.9524 35.0007 32.6272 34.7296 32.3423C34.4586 32.0573 34.1204 31.8181 33.7344 31.6384L22.5282 26.4177C22.1419 26.2259 21.7118 26.0983 21.2632 26.0426C20.8146 25.9868 20.3567 26.004 19.9165 26.0932C19.4763 26.1824 19.0628 26.3416 18.7004 26.5616C18.338 26.7816 18.0341 27.0578 17.8066 27.374C17.5791 27.6901 17.4327 28.0398 17.3759 28.4023C17.3192 28.7647 17.3533 29.1327 17.4763 29.4844C17.5992 29.8361 17.8086 30.1643 18.0918 30.4498C18.3751 30.7353 18.7266 30.9721 19.1256 31.1464L30.3318 36.367C30.7176 36.5471 31.1437 36.6642 31.5857 36.7116C32.0278 36.759 32.4771 36.7358 32.908 36.6433C33.3389 36.5508 33.7429 36.3909 34.0969 36.1726C34.4509 35.9543 34.748 35.6834 34.9712 35.3726ZM120.124 36.3684L131.33 31.1477C131.73 30.9737 132.082 30.7369 132.365 30.4515C132.649 30.166 132.859 29.8377 132.982 29.4858C133.105 29.134 133.14 28.7658 133.083 28.4031C133.026 28.0404 132.88 27.6906 132.652 27.3742C132.425 27.0579 132.12 26.7815 131.758 26.5615C131.395 26.3414 130.981 26.1822 130.541 26.0931C130.1 26.004 129.642 25.987 129.193 26.043C128.745 26.099 128.314 26.2269 127.928 26.4191L116.722 31.6397C116.327 31.8156 115.979 32.0531 115.699 32.3385C115.419 32.6238 115.213 32.9512 115.092 33.3015C114.972 33.6518 114.939 34.0179 114.996 34.3785C115.054 34.739 115.2 35.0868 115.426 35.4014C115.652 35.7159 115.954 35.991 116.314 36.2105C116.674 36.43 117.085 36.5896 117.522 36.6797C117.96 36.7699 118.415 36.7889 118.862 36.7357C119.309 36.6825 119.738 36.5567 120.124 36.3684ZM50.9826 20.2712C51.7623 19.9085 52.3313 19.3114 52.5644 18.6112C52.7975 17.911 52.6757 17.1649 52.2258 16.537L46.7585 8.91096C46.3082 8.28303 45.5664 7.82481 44.6963 7.63709C43.8263 7.44938 42.8992 7.54755 42.1191 7.91001C41.339 8.27248 40.7697 8.86954 40.5365 9.56985C40.3033 10.2702 40.4252 11.0164 40.8755 11.6443L46.3428 19.2703C46.7934 19.898 47.5352 20.356 48.4051 20.5437C49.2751 20.7314 50.2023 20.6334 50.9826 20.2712ZM104.114 19.2703L109.581 11.6443C109.804 11.3334 109.949 10.9901 110.007 10.6342C110.065 10.2783 110.036 9.91661 109.92 9.56985C109.805 9.22309 109.605 8.89803 109.334 8.61324C109.062 8.32844 108.724 8.08949 108.338 7.91001C107.951 7.73054 107.525 7.61406 107.083 7.56724C106.64 7.52041 106.191 7.54414 105.76 7.63709C105.329 7.73004 104.926 7.89037 104.572 8.10894C104.218 8.32751 103.921 8.60004 103.698 8.91096L98.2308 16.537C97.7805 17.1649 97.6586 17.9112 97.8918 18.6115C98.125 19.3118 98.6944 19.9089 99.4746 20.2714C100.255 20.6338 101.182 20.732 102.052 20.5443C102.922 20.3565 103.663 19.8983 104.114 19.2703ZM64.9004 105.532C60.681 100.508 55.5852 95.9994 49.7699 92.1442C36.9008 83.4114 20.9759 78.1166 4.20157 76.9934C3.75609 76.9588 3.30651 76.9962 2.87929 77.1036C2.45207 77.2109 2.05583 77.3859 1.71391 77.6183C1.37198 77.8508 1.09127 78.1359 0.888301 78.457C0.685329 78.778 0.564196 79.1285 0.532028 79.4878C0.494554 79.8455 0.544991 80.2057 0.680457 80.5477C0.815924 80.8897 1.03377 81.2069 1.32154 81.4812C1.60932 81.7554 1.9614 81.9814 2.35767 82.1461C2.75394 82.3108 3.18664 82.4111 3.63106 82.4412C19.0186 83.473 33.626 88.3333 45.4273 96.3481C50.7585 99.8796 55.4284 104.012 59.2925 108.618C60.822 110.399 62.2344 112.245 63.5241 114.146C63.7361 114.464 64.0243 114.745 64.372 114.973C64.7197 115.201 65.1201 115.371 65.5501 115.474C65.98 115.577 66.4309 115.61 66.8769 115.571C67.3228 115.533 67.7549 115.424 68.1482 115.251C68.5415 115.077 68.8883 114.843 69.1684 114.561C69.4485 114.279 69.6565 113.955 69.7803 113.608C69.9041 113.261 69.9414 112.898 69.8898 112.539C69.8383 112.181 69.699 111.834 69.48 111.519C68.0841 109.46 66.5555 107.462 64.9004 105.532ZM77.903 92.9645C80.6483 95.8232 83.1554 98.825 85.4078 101.95C88.9236 98.3388 92.9164 95.0454 97.316 92.1281C111.104 82.7702 128.378 77.3835 146.4 76.8214C146.849 76.8007 147.3 76.8521 147.724 76.9727C148.149 77.0933 148.539 77.2807 148.873 77.5239C149.207 77.7672 149.478 78.0615 149.669 78.3896C149.86 78.7178 149.968 79.0733 149.987 79.4355C150.006 79.7976 149.935 80.1592 149.779 80.4991C149.623 80.8391 149.384 81.1506 149.077 81.4155C148.769 81.6805 148.4 81.8936 147.989 82.0425C147.578 82.1913 147.135 82.273 146.685 82.2827C130.15 82.7991 114.303 87.7436 101.656 96.332C96.3257 99.8603 91.6558 103.99 87.791 108.592C86.2536 110.381 84.8345 112.235 83.5394 114.144C83.1016 114.772 82.374 115.235 81.5144 115.433C80.6549 115.632 79.7328 115.549 78.9484 115.204C78.164 114.858 77.5805 114.278 77.3246 113.588C77.0688 112.898 77.1612 112.155 77.5818 111.52C78.6684 109.923 79.823 108.415 81.0303 106.928C78.157 102.562 74.7623 98.431 70.8944 94.5941C66.7335 90.4712 62.044 86.713 56.9035 83.382C41.7732 73.4525 23.1705 67.5708 3.68913 66.557C3.24422 66.5331 2.80951 66.4389 2.40984 66.2798C2.01018 66.1206 1.65339 65.8996 1.35988 65.6294C1.06637 65.3592 0.841882 65.0452 0.699252 64.7051C0.556622 64.365 0.498644 64.0057 0.528632 63.6476C0.553229 63.288 0.666912 62.9361 0.862994 62.6124C1.05908 62.2887 1.3336 61.9999 1.67041 61.7628C2.00722 61.5258 2.39952 61.3454 2.82424 61.2322C3.24895 61.119 3.6975 61.0753 4.1435 61.1037C23.9192 62.1495 42.8687 67.8806 58.6069 77.5756C61.6595 74.8365 64.8859 72.2261 68.2731 69.755C49.7815 58.0136 27.2405 51.1492 3.72411 50.0976C2.82483 50.0566 1.98263 49.7297 1.38279 49.1889C0.782949 48.648 0.4746 47.9375 0.525575 47.2137C0.576551 46.4899 0.982676 45.812 1.65461 45.3292C2.32654 44.8463 3.20924 44.5982 4.10852 44.6392C29.4665 45.7553 53.7497 53.2494 73.5346 66.065C94.2988 52.7156 119.883 45.1482 146.445 44.499C146.893 44.4825 147.34 44.5389 147.761 44.6646C148.181 44.7903 148.565 44.9828 148.891 45.2306C149.217 45.4784 149.478 45.7766 149.657 46.1072C149.837 46.4378 149.932 46.7941 149.937 47.1549C149.95 47.5139 149.875 47.8714 149.716 48.207C149.557 48.5426 149.317 48.8496 149.011 49.1107C148.704 49.3717 148.337 49.5816 147.93 49.7283C147.523 49.875 147.083 49.9556 146.637 49.9656C120.641 50.5943 95.6615 58.2377 75.7114 71.6683C71.5152 74.5553 67.5747 77.6747 63.9186 81.0037C67.3333 83.3837 70.5447 85.9462 73.5309 88.674C82.6899 80.2952 93.8827 73.5141 106.42 68.7482C118.958 63.9822 132.574 61.3323 146.432 60.9616H146.545C147.436 60.9619 148.291 61.2441 148.926 61.7475C149.561 62.2509 149.925 62.935 149.939 63.6522C149.953 64.3695 149.616 65.0624 149.001 65.5815C148.385 66.1006 147.541 66.4042 146.651 66.4269C133.533 66.7759 120.648 69.3152 108.813 73.8836C96.979 78.4521 86.453 84.949 77.903 92.9645ZM73.5424 59.1786C62.878 52.8679 51.0639 47.9244 38.5199 44.5238C40.0818 37.6767 44.5487 31.4784 51.1577 26.9878C57.7667 22.4972 66.1077 19.9928 74.7559 19.9024C83.4042 19.8121 91.8231 22.1414 98.5747 26.4924C105.326 30.8434 109.992 36.9463 111.774 43.7585C98.0615 47.168 85.1437 52.3783 73.5424 59.1786Z" fill="#2F7F2B"/>
</g>
</svg>
