<svg width="164" height="165" viewBox="0 0 164 165" fill="none" xmlns="http://www.w3.org/2000/svg">
<g id="noun-park-1653150 1">
<path id="Vector" d="M79.7583 53.6105C81.5725 55.2016 83.9343 55.6081 85.8691 55.6081C87.7991 55.6081 89.3035 55.2051 89.4274 55.1719C90.1153 54.9835 90.6108 54.3362 90.6483 53.5791C90.663 53.3086 90.9515 46.9231 87.3247 43.746C83.6996 40.569 77.9033 42.1182 77.6556 42.1845C76.9677 42.373 76.4722 43.0202 76.4347 43.7792C76.42 44.0479 76.1331 50.4334 79.7583 53.6105ZM81 52.0245C82.4703 53.3121 86 52.166 87.3638 52.0245C85.7355 52.2287 88.4735 47.4588 87 46.166C85.5281 44.8767 79.1304 46.9107 79 45.166C79 46.166 79.5265 50.7317 81 52.0245Z" fill="#2F7F2B"/>
<path id="Vector_2" d="M28.6728 88.6508C28.7102 88.6542 28.8814 88.663 29.1536 88.663C30.6744 88.663 35.3509 88.3838 37.8692 85.0986C40.8423 81.2237 39.3933 75.0231 39.3297 74.7596C39.152 74.0234 38.5489 73.4947 37.8399 73.4546C37.5872 73.4284 31.6133 73.1318 28.6434 77.0068C25.6703 80.8817 27.1194 87.0823 27.1829 87.3457C27.3606 88.082 27.9637 88.6089 28.6728 88.6508ZM31.1634 79.2208C32.3696 77.6488 27.0102 84.3056 28.6434 84.166C28.8243 85.7624 36 83.666 35.5 82.666C34.2938 84.238 37.6333 79.0264 36 79.166C35.8174 77.5696 29.8904 80.88 31.1634 79.2208Z" fill="#2F7F2B"/>
<path id="Vector_3" d="M145.627 141.275C142.317 141.275 140.582 143.053 139.189 144.482C137.921 145.78 137.005 146.719 135.003 146.719C133.001 146.719 132.085 145.78 130.819 144.482C129.425 143.053 127.691 141.275 124.38 141.275C121.071 141.275 119.337 143.055 117.945 144.482C116.675 145.78 115.761 146.719 113.761 146.719C111.764 146.719 110.85 145.78 109.585 144.482C108.193 143.055 106.46 141.275 103.153 141.275C99.8438 141.275 98.1095 143.055 96.7175 144.482C95.4526 145.78 94.5381 146.719 92.5414 146.719C90.5446 146.719 89.6302 145.78 88.3653 144.482C86.9733 143.055 85.239 141.275 81.9317 141.275C78.6245 141.275 76.8901 143.055 75.4981 144.482C74.23 145.78 73.3172 146.719 71.3188 146.719C69.3204 146.719 68.4076 145.78 67.1427 144.482C65.7507 143.055 64.0164 141.275 60.7091 141.275C57.4035 141.275 55.6708 143.055 54.2788 144.482C53.0139 145.78 52.0978 146.719 50.1027 146.719C48.1076 146.719 47.1948 145.78 45.9299 144.482C44.5379 143.055 42.8068 141.275 39.5028 141.275C36.1956 141.275 34.4612 143.055 33.0692 144.482C31.8027 145.78 30.8899 146.719 28.8915 146.719C26.8948 146.719 25.9803 145.78 24.7155 144.484C23.3234 143.055 21.5891 141.275 18.2819 141.275C17.3805 141.275 16.6519 142.055 16.6519 143.02C16.6519 143.985 17.3805 144.765 18.2819 144.765C20.2802 144.765 21.193 145.703 22.4579 147.001C23.8516 148.429 25.5859 150.208 28.8915 150.208C32.1988 150.208 33.9331 148.429 35.3251 147.001C36.59 145.703 37.5044 144.765 39.5012 144.765C41.4963 144.765 42.4075 145.702 43.6724 147C45.0644 148.429 46.7954 150.208 50.1027 150.208C53.41 150.208 55.1427 148.429 56.5347 147C57.7979 145.702 58.7124 144.765 60.7091 144.765C62.7075 144.765 63.6203 145.703 64.8852 147.001C66.2772 148.429 68.0115 150.208 71.3188 150.208C74.6261 150.208 76.3604 148.429 77.7524 147.001C79.0173 145.703 79.9317 144.765 81.9285 144.765C83.9252 144.765 84.8396 145.703 86.1045 147.001C87.4998 148.429 89.2341 150.208 92.5414 150.208C95.8487 150.208 97.583 148.429 98.9734 147.001C100.24 145.703 101.154 144.765 103.153 144.765C105.149 144.765 106.064 145.703 107.329 147.001C108.722 148.429 110.453 150.208 113.761 150.208C117.07 150.208 118.804 148.429 120.196 147.001C121.462 145.703 122.379 144.765 124.377 144.765C126.379 144.765 127.295 145.703 128.561 147.001C129.958 148.43 131.691 150.208 135.003 150.208C138.315 150.208 140.049 148.429 141.443 147.001C142.71 145.703 143.627 144.765 145.627 144.765C146.529 144.765 147.257 143.985 147.257 143.02C147.257 142.055 146.529 141.275 145.627 141.275Z" fill="#2F7F2B"/>
<path id="Vector_4" d="M145.627 128.456C142.317 128.456 140.583 130.234 139.189 131.663C137.921 132.961 137.005 133.899 135.003 133.899C133.001 133.899 132.085 132.961 130.819 131.663C129.425 130.234 127.691 128.456 124.38 128.456C121.071 128.456 119.337 130.236 117.945 131.663C116.679 132.961 115.763 133.899 113.764 133.899C111.767 133.899 110.853 132.961 109.588 131.663C108.196 130.236 106.463 128.456 103.156 128.456C99.8472 128.456 98.1129 130.236 96.7209 131.663C95.456 132.961 94.5416 133.899 92.5448 133.899C90.5481 133.899 89.6336 132.961 88.3688 131.663C86.9767 130.236 85.2424 128.456 81.9351 128.456C78.6279 128.456 76.8935 130.236 75.5015 131.663C74.2366 132.961 73.3222 133.899 71.3255 133.899C69.3287 133.899 68.4143 132.961 67.1494 131.663C65.7574 130.236 64.0231 128.456 60.7158 128.456C57.4102 128.456 55.6775 130.236 54.2854 131.663C53.0222 132.961 52.1061 133.899 50.1094 133.899C48.1143 133.899 47.2015 132.961 45.9366 131.663C44.5446 130.236 42.8135 128.456 39.5095 128.456C36.2022 128.456 34.4679 130.236 33.0759 131.663C31.811 132.961 30.8966 133.899 28.8998 133.899C26.9031 133.899 25.9886 132.961 24.7238 131.665C23.3317 130.236 21.5974 128.456 18.2902 128.456C17.3888 128.456 16.6602 129.236 16.6602 130.201C16.6602 131.166 17.3888 131.945 18.2902 131.945C20.2885 131.945 21.2013 132.884 22.4662 134.182C23.8582 135.609 25.5926 137.389 28.8982 137.389C32.2055 137.389 33.9398 135.609 35.3318 134.182C36.5967 132.884 37.5111 131.945 39.5079 131.945C41.503 131.945 42.4142 132.882 43.679 134.18C45.0711 135.609 46.8021 137.389 50.1078 137.389C53.415 137.389 55.1477 135.609 56.5397 134.18C57.803 132.882 58.7174 131.945 60.7142 131.945C62.7126 131.945 63.6253 132.884 64.8902 134.182C66.2822 135.609 68.0166 137.389 71.3238 137.389C74.6311 137.389 76.3654 135.609 77.7575 134.182C79.0223 132.884 79.9368 131.945 81.9335 131.945C83.9303 131.945 84.8447 132.884 86.1096 134.182C87.5016 135.609 89.2359 137.389 92.5432 137.389C95.8504 137.389 97.5848 135.609 98.9752 134.182C100.242 132.884 101.156 131.945 103.154 131.945C105.151 131.945 106.066 132.884 107.331 134.182C108.723 135.609 110.455 137.389 113.763 137.389C117.071 137.389 118.806 135.609 120.198 134.182C121.464 132.884 122.38 131.945 124.379 131.945C126.38 131.945 127.296 132.884 128.563 134.182C129.957 135.611 131.691 137.389 135.001 137.389C138.312 137.389 140.048 135.609 141.442 134.182C142.708 132.884 143.626 131.945 145.626 131.945C146.527 131.945 147.256 131.166 147.256 130.201C147.256 129.236 146.529 128.456 145.627 128.456Z" fill="#2F7F2B"/>
<path id="Vector_5" d="M18.4298 121.42H145.57C146.471 121.42 147.2 120.64 147.2 119.676C147.2 118.711 146.471 117.931 145.57 117.931H136.73V105.884H139.188C140.09 105.884 140.818 105.104 140.818 104.139V95.0163C140.818 94.0515 140.09 93.2716 139.188 93.2716H133.744V64.8072C133.744 63.8424 133.016 63.0625 132.114 63.0625C131.213 63.0625 130.484 63.8424 130.484 64.8072V66.3948H68.2263V64.8072C68.2263 63.8424 67.4977 63.0625 66.5963 63.0625C65.6949 63.0625 64.9663 63.8424 64.9663 64.8072V93.2716H60.8277C59.9263 93.2716 59.1977 94.0515 59.1977 95.0163V104.139C59.1977 105.104 59.9263 105.884 60.8277 105.884H62.9125V117.931H47.5253V64.0884C60.6305 63.1864 71.0413 51.5877 71.0413 37.4226C71.0413 22.6696 59.7601 10.668 45.892 10.668C32.0256 10.668 20.7444 22.6696 20.7444 37.4226C20.7444 51.5895 31.1568 63.1881 44.2653 64.0884V117.931H18.4298C17.5284 117.931 16.7998 118.711 16.7998 119.676C16.7998 120.64 17.5284 121.42 18.4298 121.42ZM24.0044 37.4226C24.0044 24.594 33.8219 14.1573 45.892 14.1573C57.9622 14.1573 67.7813 24.594 67.7813 37.4226C67.7813 49.6651 58.8326 59.704 47.5253 60.599V52.0047L55.2955 43.6738C55.9312 42.9917 55.9312 41.889 55.2923 41.2069C54.6582 40.5282 53.6248 40.5247 52.9874 41.2104L47.5253 47.0672V37.1069C47.5253 36.1421 46.7967 35.3622 45.8953 35.3622C44.9939 35.3622 44.2653 36.1421 44.2653 37.1069V47.0672L38.8032 41.2104C38.1658 40.5247 37.1324 40.5282 36.4984 41.2069C35.8594 41.889 35.8594 42.9917 36.4951 43.6738L44.2653 52.0047V60.599C32.9547 59.7092 24.0044 49.6668 24.0044 37.4226ZM68.2263 78.5378H130.484V84.6163H68.2263V78.5378ZM130.484 69.8842V75.0484H68.2263V69.8842H130.484ZM68.2263 88.1056H130.484V93.2716H68.2263V88.1056ZM65.5 104.139L136.73 103.666L137.558 102.395H62.4577L65.5 104.139ZM66.1725 105.884H133.47V117.931H66.1725V105.884Z" fill="#2F7F2B"/>
</g>
</svg>
