<svg width="164" height="165" viewBox="0 0 164 165" fill="none" xmlns="http://www.w3.org/2000/svg">
<g clip-path="url(#clip0_1002_1633)">
<path d="M94.7647 75.8562C93.8224 75.8562 92.9056 75.9318 92.0141 76.058C93.738 65.4956 85.2175 55.5758 74.3896 55.6716C63.5633 55.5753 55.0394 65.4963 56.7654 76.058C46.106 74.3504 36.0882 82.7908 36.1868 93.5177C36.1866 103.257 44.1838 111.179 54.0147 111.179H94.7647C118.371 110.298 118.389 76.744 94.7647 75.8562Z" fill="#2F7F2B"/>
<path d="M59.1084 53.1487C75.9398 52.629 75.9359 28.4352 59.1081 27.918C42.2771 28.4377 42.281 52.6315 59.1084 53.1487Z" fill="#2F7F2B"/>
<path d="M48.9209 63.2405C48.3963 46.5662 23.9743 46.5702 23.4521 63.2408C23.9768 79.9146 48.3987 79.9107 48.9209 63.2405Z" fill="#2F7F2B"/>
<path d="M89.6709 53.1487C106.502 52.629 106.498 28.4352 89.6706 27.918C72.8396 28.4377 72.8435 52.6315 89.6709 53.1487Z" fill="#2F7F2B"/>
<path d="M99.8584 63.2406C100.383 79.9147 124.805 79.9108 125.327 63.2403C124.803 46.5663 100.381 46.5703 99.8584 63.2406Z" fill="#2F7F2B"/>
<path d="M149.09 99.043C150.779 93.4403 147.593 86.7836 142.213 84.4847C149.471 43.5869 116.342 4.81456 74.3894 5.21003C36.4667 5.20973 5.62409 35.7641 5.62409 73.3328C5.57076 111.437 37.5126 142.377 75.9688 141.431C73.9859 148.97 80.7861 156.883 88.3977 156.594C97.354 156.826 103.893 146.761 99.9858 138.807L135.387 118.546C139.157 123.744 146.39 125.359 152.095 122.104C161.818 116.808 159.82 101.675 149.09 99.043ZM137.247 83.299C128.201 82.6085 121.14 92.9778 125.2 101.061L89.7983 121.322C79.4924 108.03 59.5678 122.344 69.2195 136.183C-11.3038 127.007 -6.95902 13.0999 74.3903 10.2557C113.098 9.9003 143.726 45.5197 137.247 83.299Z" fill="#2F7F2B"/>
</g>
<defs>
<clipPath id="clip0_1002_1633">
<rect width="163" height="164" fill="white" transform="translate(0.5 0.166016)"/>
</clipPath>
</defs>
</svg>
