<svg width="164" height="165" viewBox="0 0 164 165" fill="none" xmlns="http://www.w3.org/2000/svg">
<g clip-path="url(#clip0_1001_1579)">
<path d="M163.5 139.856V85.9505C163.507 85.0759 163.328 84.2086 162.973 83.3985C162.618 82.5884 162.094 81.8515 161.431 81.2301C160.768 80.6088 159.98 80.1152 159.111 79.7778C158.242 79.4405 157.31 79.2659 156.368 79.2643H151.343V44.3197C151.343 44.9136 151.089 45.4831 150.636 45.9031C150.184 46.323 149.571 46.5589 148.932 46.5589C148.292 46.5589 147.679 46.323 147.227 45.9031C146.775 45.4831 146.521 44.9136 146.521 44.3197V79.2643H139.186V58.8905C139.145 55.3054 137.593 51.8779 134.864 49.3427C132.134 46.8076 128.444 45.3667 124.583 45.3289C122.67 45.333 120.777 45.6871 119.011 46.3709C117.245 47.0547 115.642 48.0547 114.292 49.3141C112.943 50.5734 111.873 52.0672 111.145 53.7103C110.417 55.3535 110.045 57.1137 110.049 58.8905V79.2643H102.646V27.1628H146.521V37.1289C146.521 36.535 146.775 35.9655 147.227 35.5455C147.679 35.1256 148.292 34.8897 148.932 34.8897C149.571 34.8897 150.184 35.1256 150.636 35.5455C151.089 35.9655 151.343 36.535 151.343 37.1289V27.1628H161.123C161.623 27.1682 162.113 27.0275 162.523 26.7605C162.933 26.4935 163.242 26.1137 163.408 25.6746C163.573 25.2356 163.585 24.7595 163.443 24.3135C163.301 23.8675 163.012 23.4741 162.617 23.1889L136.944 4.13969C133.433 1.56529 129.091 0.165039 124.617 0.165039C120.144 0.165039 115.801 1.56529 112.291 4.13969L86.5501 23.1889C84.1051 25.3335 85.3955 27.0366 88.0443 27.1628H97.8243V67.9735H95.3793C90.8323 67.97 86.3401 68.8948 82.2206 70.6824C78.1011 72.47 74.4551 75.0768 71.5405 78.3181L47.9735 104.621V82.2289H54.2218C57.1816 82.2479 60.1129 81.6909 62.8267 80.5936C65.5406 79.4963 67.9768 77.8832 69.9785 75.8581C71.8679 73.8478 73.2702 71.484 74.0904 68.9266C74.9107 66.3692 75.1297 63.6779 74.7326 61.0351C74.3689 58.463 73.4396 55.9879 72.0025 53.7635C70.5655 51.539 68.6513 49.6127 66.3789 48.1043C67.4709 45.7991 68.0264 43.3057 68.0089 40.7874C67.9814 37.3361 66.9428 33.9568 65.0045 31.0121C63.0662 28.0673 60.3013 25.6682 57.0064 24.072C56.526 19.5622 54.3115 15.3643 50.7689 12.2478C47.2262 9.13142 42.5928 7.30532 37.718 7.1043C32.8433 7.30532 28.2099 9.13142 24.6672 12.2478C21.1246 15.3643 18.9101 19.5622 18.4297 24.072C13.8955 26.2461 10.4075 29.9245 8.65861 34.3767C6.90969 38.8289 7.02773 43.7292 8.9893 48.1043C6.71689 49.6127 4.8027 51.539 3.36563 53.7635C1.92855 55.9879 0.999286 58.463 0.635547 61.0351C0.250298 63.6824 0.481432 66.3757 1.31333 68.933C2.14522 71.4902 3.55849 73.8518 5.45763 75.8581C7.45025 77.8769 9.87524 79.4864 12.577 80.5835C15.2788 81.6806 18.1977 82.2411 21.1464 82.2289H31.0622V123.519L29.602 125.121L28.3116 126.572L24.8478 130.42C22.4028 133.384 20.9766 135.781 16.6978 135.781H2.80888C2.16999 135.791 1.56132 136.036 1.1159 136.461C0.670479 136.887 0.424528 137.459 0.431797 138.052V149.343C0.438857 149.926 0.691566 150.484 1.13583 150.897C1.5801 151.309 2.18063 151.544 2.80888 151.55H13.7435C17.5286 151.569 21.2839 150.927 24.8139 149.658L28.2776 148.081L30.3151 147.135C30.574 146.996 30.8175 146.833 31.0418 146.649V149.664C31.1264 150.191 31.4116 150.671 31.8453 151.018C32.2791 151.365 32.8327 151.557 33.4053 151.557H45.5556C45.8698 151.558 46.1811 151.501 46.4716 151.389C46.762 151.278 47.0259 151.115 47.2481 150.908C47.4703 150.702 47.6463 150.457 47.7661 150.187C47.886 149.917 47.9472 149.628 47.9463 149.336V129.619L85.6672 87.5904V144.486V149.33C85.6315 149.64 85.6664 149.953 85.7696 150.25C85.8728 150.546 86.0419 150.819 86.2661 151.051C86.4903 151.282 86.7645 151.468 87.0709 151.594C87.3772 151.721 87.7089 151.787 88.0443 151.787C88.3797 151.787 88.7114 151.721 89.0177 151.594C89.3241 151.468 89.5983 151.282 89.8224 151.051C90.0466 150.819 90.2158 150.546 90.319 150.25C90.4222 149.953 90.4571 149.64 90.4214 149.33V139.869C90.4246 139.818 90.4246 139.768 90.4214 139.717V85.9505C90.4205 85.652 90.4831 85.3564 90.6057 85.0805C90.7282 84.8046 90.9083 84.5539 91.1355 84.3429C91.3627 84.1319 91.6326 83.9647 91.9297 83.8508C92.2267 83.737 92.545 83.6788 92.8664 83.6797H103.278V149.027C103.278 149.613 103.528 150.174 103.974 150.588C104.42 151.002 105.025 151.235 105.655 151.235C106.286 151.235 106.89 151.002 107.336 150.588C107.782 150.174 108.032 149.613 108.032 149.027V142.562H141.155V149.027C141.155 149.613 141.406 150.174 141.851 150.588C142.297 151.002 142.902 151.235 143.532 151.235C144.163 151.235 144.767 151.002 145.213 150.588C145.659 150.174 145.909 149.613 145.909 149.027V83.6797H156.368C157.007 83.6896 157.616 83.9341 158.061 84.3596C158.507 84.7851 158.753 85.357 158.746 85.9505V139.774V139.869V149.33C158.71 149.64 158.745 149.953 158.848 150.25C158.951 150.546 159.12 150.819 159.344 151.051C159.569 151.282 159.843 151.468 160.149 151.594C160.456 151.721 160.787 151.787 161.123 151.787C161.458 151.787 161.79 151.721 162.096 151.594C162.402 151.468 162.677 151.282 162.901 151.051C163.125 150.819 163.294 150.546 163.397 150.25C163.501 149.953 163.535 149.64 163.5 149.33V139.869V139.856ZM43.1514 109.983L41.7251 111.56L40.3668 113.074L36.971 116.858L35.7485 118.246V30.632C35.7576 30.0019 35.9442 29.3851 36.2897 28.8428C36.6353 28.3006 37.1277 27.8518 37.718 27.5412C38.2672 27.29 38.8717 27.1604 39.4839 27.1628C39.9713 27.1627 40.4538 27.2528 40.9032 27.4279C41.3527 27.603 41.76 27.8596 42.1015 28.1826C42.443 28.5056 42.7117 28.8886 42.8919 29.3091C43.0722 29.7297 43.1604 30.1794 43.1514 30.632V109.983ZM21.1464 77.6243C18.8853 77.6599 16.6422 77.2447 14.5685 76.4069C12.4948 75.5691 10.6386 74.328 9.12513 72.7674C7.64764 71.1493 6.57485 69.2471 5.98399 67.1977C5.39314 65.1483 5.29893 63.0027 5.70814 60.9155C6.11735 58.8282 7.01981 56.8512 8.35053 55.1267C9.68124 53.4023 11.4071 51.9733 13.4039 50.9428C13.6991 50.803 13.9599 50.6079 14.1699 50.3698C14.3798 50.1317 14.5343 49.8558 14.6237 49.5594C14.713 49.2631 14.7352 48.9527 14.689 48.648C14.6427 48.3433 14.5289 48.0507 14.3547 47.7889C13.0475 45.6562 12.3682 43.2414 12.3851 40.7874C12.3857 37.9866 13.2838 35.2493 14.965 32.9241C16.6462 30.5989 19.0344 28.7909 21.8255 27.7305C22.2525 27.5462 22.6136 27.2522 22.8664 26.8834C23.1191 26.5145 23.2529 26.0861 23.2518 25.6489C23.3496 22.0662 24.8893 18.6476 27.5671 16.0671C30.245 13.4867 33.8667 11.9318 37.718 11.7089C41.5661 11.9241 45.1854 13.4786 47.8541 16.0624C50.5228 18.6461 52.0447 22.0692 52.1164 25.6489C52.1429 26.0881 52.2955 26.5127 52.5582 26.8787C52.8209 27.2447 53.1843 27.5388 53.6105 27.7305C56.3858 28.8049 58.7567 30.618 60.4245 32.9415C62.0924 35.265 62.9826 37.9949 62.983 40.7874C63.0329 43.2451 62.3514 45.6679 61.0135 47.7889C60.7457 48.3427 60.6744 48.9612 60.8097 49.5551C60.9014 49.8513 61.0571 50.1271 61.2672 50.3657C61.4774 50.6043 61.7377 50.8006 62.0322 50.9428C64.1268 52.0447 65.9206 53.5791 67.2748 55.4275C68.6291 57.2759 69.5077 59.3888 69.8426 61.6028C70.1347 63.5993 69.9581 65.6308 69.3251 67.558C68.692 69.4852 67.6175 71.2623 66.1751 72.7674C64.6795 74.3316 62.8362 75.576 60.7725 76.4145C58.7089 77.253 56.4739 77.6658 54.2218 77.6243H47.9735V57.8875L55.9944 50.6905C56.2535 50.4569 56.4605 50.1782 56.6037 49.8703C56.7468 49.5624 56.8232 49.2313 56.8286 48.896C56.8339 48.5607 56.7681 48.2276 56.6349 47.9159C56.5017 47.6042 56.3037 47.3199 56.0521 47.0793C55.8006 46.8387 55.5005 46.6464 55.169 46.5135C54.8375 46.3806 54.481 46.3096 54.12 46.3046C53.7589 46.2996 53.4004 46.3607 53.0647 46.4845C52.7291 46.6082 52.423 46.7921 52.1639 47.0257L47.9735 50.8103V30.632C47.9735 28.5409 47.079 26.5354 45.4869 25.0567C43.8948 23.5781 41.7355 22.7474 39.4839 22.7474C37.2323 22.7474 35.0729 23.5781 33.4808 25.0567C31.8887 26.5354 30.9943 28.5409 30.9943 30.632V41.3551L26.6612 37.8858C26.1109 37.4425 25.3936 37.2204 24.6669 37.2683C23.9403 37.3162 23.2639 37.6302 22.7866 38.1413C22.3092 38.6524 22.07 39.3186 22.1216 39.9935C22.1732 40.6683 22.5113 41.2965 23.0616 41.7398L30.9943 48.1043V64.6935L22.7017 60.152C22.0712 59.8065 21.3188 59.7078 20.61 59.8776C19.9012 60.0473 19.2941 60.4716 18.9221 61.0571C18.5501 61.6427 18.4439 62.3414 18.6266 62.9997C18.8094 63.658 19.2663 64.2219 19.8967 64.5674L30.9943 70.6795V77.618L21.1464 77.6243ZM35.7417 147.135V143.06C36.1492 142.682 36.5567 142.303 36.9642 141.862L40.36 138.077L41.7183 136.563L43.165 134.961V147.135H35.7417ZM97.8243 79.2643H90.2855C89.2359 79.2672 88.1996 79.4832 87.2493 79.8973C86.299 80.3113 85.4577 80.9134 84.7843 81.6612C84.7843 81.6612 44.5776 125.941 39.348 131.429C37.3731 133.9 35.2413 136.259 32.9639 138.494C31.5013 139.955 29.9358 141.325 28.2776 142.594C27.5305 143.224 26.7835 143.792 25.9685 144.36C22.1875 146.171 17.9976 147.122 13.7435 147.135H5.25388V140.26L2.80888 144.666C4.54771 144.669 4.92592 150.024 6.49951 149.336C8.07311 148.649 12.6368 149.912 13.7435 148.666L17.9995 149.166L21.6943 147.135L24.8478 146.166L30.3151 143.666L35.7485 139.158L41.7183 130.42L43.165 129.619L43.9995 127.67C46.4668 124.927 78.7354 89.1053 82.2206 87.5904C85.7058 86.0756 93.9763 81.1592 97.8243 81.1566V72.3889V79.2643ZM94.9039 22.7474L112.291 24.072C114.958 22.1114 118.097 24.3135 121.5 24.3135C124.902 24.3135 132.196 23.0961 134.864 25.0567L154.331 22.7474H124.617H94.9039ZM141.155 93.4629H108.025V83.8878H141.155V93.4629ZM141.155 97.8783V108.362H108.025V97.872L141.155 97.8783ZM108.025 112.777H141.155V123.267H108.025V112.777ZM108.025 138.159V127.67H141.155V138.153L108.025 138.159ZM114.817 58.8968C114.817 56.4878 115.847 54.1775 117.682 52.4741C119.516 50.7706 122.003 49.8137 124.597 49.8137C127.191 49.8137 129.678 50.7706 131.513 52.4741C133.347 54.1775 134.377 56.4878 134.377 58.8968V79.2706H114.803L114.817 58.8968Z" fill="#2F7F2B"/>
<path d="M148.938 34.8896C148.306 34.8896 147.7 35.1229 147.253 35.5381C146.806 35.9533 146.555 36.5165 146.555 37.1036V44.3196C146.519 44.6294 146.554 44.9426 146.657 45.2391C146.76 45.5355 146.929 45.8084 147.154 46.0401C147.378 46.2718 147.652 46.4571 147.958 46.5839C148.265 46.7108 148.596 46.7763 148.932 46.7763C149.267 46.7763 149.599 46.7108 149.905 46.5839C150.211 46.4571 150.486 46.2718 150.71 46.0401C150.934 45.8084 151.103 45.5355 151.206 45.2391C151.31 44.9426 151.344 44.6294 151.309 44.3196V37.1036C151.309 36.5186 151.059 35.9574 150.615 35.5426C150.171 35.1277 149.568 34.893 148.938 34.8896Z" fill="#2F7F2B"/>
</g>
<defs>
<clipPath id="clip0_1001_1579">
<rect width="163" height="164" fill="white" transform="translate(0.5 0.166016)"/>
</clipPath>
</defs>
</svg>
