<svg width="164" height="165" viewBox="0 0 164 165" fill="none" xmlns="http://www.w3.org/2000/svg">
<g id="noun-stand-4082166 1">
<path id="Vector" d="M30.8257 116.87V144.818C30.8257 145.306 31.0653 145.775 31.4918 146.121C31.9184 146.466 32.4969 146.66 33.1001 146.66H126.351C126.954 146.66 127.533 146.466 127.96 146.121C128.386 145.775 128.626 145.306 128.626 144.818V116.87C128.626 116.381 128.386 115.913 127.96 115.567C127.533 115.221 126.954 115.027 126.351 115.027H33.1001C32.4969 115.027 31.9184 115.221 31.4918 115.567C31.0653 115.913 30.8257 116.381 30.8257 116.87ZM126.351 142.975L124.077 118.713V142.975H35.3745L126.351 142.975Z" fill="#2F7F2B"/>
<path id="Vector_2" d="M46.3674 122.398H42.5767C41.9735 122.398 41.3949 122.593 40.9684 122.938C40.5419 123.284 40.3022 123.752 40.3022 124.241C40.3022 124.73 40.5419 125.199 40.9684 125.544C41.3949 125.89 41.9735 126.084 42.5767 126.084H46.3674C46.9706 126.084 47.5491 125.89 47.9756 125.544C48.4022 125.199 48.6418 124.73 48.6418 124.241C48.6418 123.752 48.4022 123.284 47.9756 122.938C47.5491 122.593 46.9706 122.398 46.3674 122.398Z" fill="#2F7F2B"/>
<path id="Vector_3" d="M92.9932 122.398H53.1909C52.5877 122.398 52.0092 122.593 51.5827 122.938C51.1561 123.284 50.9165 123.752 50.9165 124.241C50.9165 124.73 51.1561 125.199 51.5827 125.544C52.0092 125.89 52.5877 126.084 53.1909 126.084H92.9932C93.5965 126.084 94.175 125.89 94.6015 125.544C95.028 125.199 95.2677 124.73 95.2677 124.241C95.2677 123.752 95.028 123.284 94.6015 122.938C94.175 122.593 93.5965 122.398 92.9932 122.398Z" fill="#2F7F2B"/>
<path id="Vector_4" d="M150.769 13.1803L135.955 2.12411C135.535 1.81071 134.985 1.63673 134.414 1.63672H30.242C29.7402 1.63658 29.2524 1.7709 28.8546 2.01877L11.1104 13.075V13.0765C10.8342 13.2482 10.6106 13.4692 10.4568 13.7222C10.303 13.9752 10.2231 14.2535 10.2234 14.5356V16.6701C10.2045 19.3609 11.4034 21.9641 13.5932 23.9874C15.7829 26.0106 18.8119 27.3136 22.1072 27.6501V95.4613H19.4537C17.3425 95.4613 15.3177 96.1408 13.8248 97.3503C12.3319 98.5598 11.4932 100.2 11.4932 101.911C11.4932 103.621 12.3319 105.262 13.8248 106.471C15.3177 107.681 17.3425 108.36 19.4537 108.36V154.031C19.4537 154.52 19.6933 154.988 20.1199 155.334C20.5464 155.679 21.1249 155.873 21.7281 155.873H137.723C138.327 155.873 138.905 155.679 139.332 155.334C139.758 154.988 139.998 154.52 139.998 154.031V108.36H142.272C144.384 108.36 146.408 107.68 147.901 106.471C149.394 105.261 150.233 103.621 150.233 101.91C150.233 100.2 149.394 98.5592 147.901 97.3497C146.408 96.1402 144.384 95.4607 142.272 95.4607H137.344V27.7327C137.507 27.7373 137.67 27.7447 137.833 27.7447C139.634 27.7604 141.42 27.4848 143.087 26.9338C144.755 26.3829 146.269 25.5677 147.542 24.5362C148.816 23.5046 149.822 22.2775 150.502 20.9267C151.182 19.576 151.522 18.1288 151.503 16.6701V14.5356C151.503 14.281 151.437 14.0291 151.311 13.7961C151.184 13.563 150.999 13.3538 150.767 13.1818L150.769 13.1803ZM133.526 5.32211L143.402 12.6929H127.429L118.966 5.32211H133.526ZM104.484 78.4336L90.2374 74.5163V73.29C92.5887 72.1117 94.5692 70.5061 96.022 68.6003C97.4748 66.6945 98.36 64.5409 98.6077 62.31C99.8389 61.7853 100.818 60.942 101.389 59.9144C101.961 58.8867 102.091 57.7338 101.76 56.6391C101.596 56.0799 101.292 55.5539 100.867 55.0936C100.442 54.6333 99.9048 54.2484 99.2892 53.9625L99.5386 51.0357C99.7114 49.0063 99.3783 46.9695 98.5592 45.0465C97.74 43.1236 96.4517 41.3538 94.7708 39.8427C93.0899 38.3316 91.0508 37.1099 88.775 36.2506C86.4992 35.3912 84.0332 34.9117 81.5239 34.8405C79.0146 34.7694 76.5133 35.1081 74.1689 35.8365C71.8245 36.5648 69.6851 37.668 67.8779 39.0802C66.0707 40.4925 64.6328 42.1849 63.6498 44.0568C62.6667 45.9286 62.1587 47.9416 62.1559 49.9759C62.1559 50.3481 62.1703 50.6951 62.1995 51.0373L62.4497 53.9549C61.8317 54.2388 61.2925 54.6228 60.8657 55.0829C60.4388 55.543 60.1335 56.0694 59.9687 56.6292C59.6342 57.7266 59.7633 58.8831 60.3354 59.9139C60.9076 60.9448 61.8897 61.7906 63.1248 62.3161C63.4891 65.6835 65.3129 68.8378 68.273 71.22C69.2487 72.0103 70.3341 72.7064 71.5076 73.2943V74.5154L57.247 78.432C55.1745 79.2722 53.4036 80.53 52.1041 82.0845C50.8047 83.6391 50.0204 85.4383 49.8267 87.3092L49.8172 95.4607H26.656V27.5183C29.6577 27.0256 32.3656 25.7253 34.3402 23.8286C35.2229 25.6702 36.5704 27.3422 38.2965 28.7376C40.1874 30.2795 42.4937 31.4454 45.0344 32.1436C47.575 32.8418 50.2808 33.0534 52.9394 32.7618C55.598 32.4702 58.137 31.6832 60.357 30.4628C62.577 29.2424 64.4176 27.6216 65.7343 25.7278C66.5121 26.8283 67.4666 27.8404 68.5728 28.7376C70.4733 30.2874 72.7934 31.4572 75.3491 32.1542C77.9048 32.8511 80.6257 33.0561 83.2962 32.7528C85.9667 32.4494 88.5132 31.6462 90.7337 30.4067C92.9543 29.1672 94.7879 27.5256 96.0891 25.612C96.8818 26.7571 97.8649 27.8085 99.011 28.7366C101.047 30.397 103.563 31.6194 106.329 32.2933C109.096 32.9671 112.027 33.071 114.855 32.5955C117.684 32.1201 120.322 31.0803 122.529 29.5704C124.737 28.0606 126.445 26.1283 127.498 23.9487C127.706 24.1428 127.921 24.3338 128.147 24.5175C129.471 25.5883 131.053 26.4256 132.796 26.9769V95.4607H111.909L111.903 87.3101C111.708 85.4398 110.924 83.6413 109.625 82.0871C108.326 80.5329 106.556 79.2751 104.485 78.4345L104.484 78.4336ZM107.36 87.5445V95.4607H104.763V89.3982C104.763 87.7407 105.267 86.1087 106.23 84.6462C106.855 85.5366 107.241 86.5244 107.36 87.5445ZM76.0564 78.8958V74.9128C79.2065 75.6287 82.5391 75.6277 85.6886 74.91V78.8942C84.2141 79.554 82.5572 79.9002 80.8727 79.9004C79.1883 79.9007 77.5313 79.555 76.0564 78.8958ZM85.6886 82.9168V95.4607H76.0564V82.9174C79.1715 83.8154 82.5735 83.8148 85.6886 82.9168ZM80.8668 71.7636C78.7777 71.7694 76.7173 71.3699 74.8578 70.5984C73.6133 70.0843 72.4764 69.4147 71.489 68.6141C70.2508 67.6168 69.2697 66.4299 68.6026 65.1227C67.9355 63.8154 67.5958 62.4138 67.6032 60.9992C67.6032 60.5657 67.4146 60.1461 67.0705 59.8141C66.7264 59.4821 66.2488 59.2591 65.7218 59.1841C65.3326 59.1286 64.9801 58.9635 64.7265 58.718C64.4729 58.4724 64.3344 58.1622 64.3356 57.842C64.3348 57.7315 64.3512 57.6213 64.3845 57.514C64.4178 57.5288 64.4489 57.5448 64.4826 57.5601C64.6459 57.628 64.8188 57.6795 64.9974 57.7137C69.3268 58.538 69.9223 58.5045 70.7991 57.9901C71.0664 57.8314 71.2887 57.6282 71.4509 57.3941C71.6131 57.16 71.7116 56.9004 71.7396 56.6329L72.1516 52.446C74.6804 52.6112 77.2227 52.3153 79.5917 51.58C81.9608 50.8447 84.0964 49.6888 85.8417 48.1971C88.3112 49.968 90.0515 52.3096 90.8284 54.9063L91.5827 57.4247C91.6621 57.6899 91.8133 57.9375 92.0252 58.1497C92.2372 58.3618 92.5047 58.5332 92.8084 58.6513C93.112 58.7695 93.4443 58.8315 93.7812 58.833C94.1181 58.8344 94.4511 58.7752 94.7563 58.6596L97.3681 57.6704L97.3761 57.6667C97.3856 57.7254 97.3904 57.7846 97.3905 57.8439C97.3905 58.1627 97.2524 58.4714 97.0002 58.7162C96.748 58.961 96.3978 59.1262 96.0106 59.1832C95.4823 59.2631 95.0051 59.4903 94.6617 59.8253C94.3183 60.1603 94.1303 60.5821 94.1305 61.0176C94.131 62.4289 93.7883 63.8265 93.1219 65.1305C92.4556 66.4344 91.4786 67.6192 90.2468 68.6172C89.0151 69.6151 87.5527 70.4066 85.9432 70.9465C84.3338 71.4864 82.6088 71.7641 80.8668 71.7636ZM66.7048 49.9768C66.7088 48.4379 67.0949 46.9153 67.84 45.4998C68.5851 44.0842 69.674 42.8045 71.042 41.7368C72.4099 40.6691 74.029 39.8352 75.8028 39.2848C77.5766 38.7344 79.4689 38.4786 81.3672 38.5327C83.2655 38.5869 85.131 38.9498 86.8526 39.5999C88.5743 40.25 90.117 41.174 91.3889 42.317C92.6609 43.4599 93.636 44.7985 94.2565 46.253C94.8769 47.7075 95.1299 49.2482 95.0004 50.7836L94.8268 52.8225C93.4101 49.2772 90.5749 46.2157 86.7697 44.1222C86.2778 43.8514 85.6745 43.7475 85.0892 43.8327C84.5039 43.9179 83.983 44.1854 83.6382 44.578C82.3597 46.0326 80.6265 47.1853 78.6165 47.9179C76.6065 48.6504 74.392 48.9364 72.2005 48.7465L70.9587 48.6387C70.5723 48.6053 70.1816 48.6349 69.8097 48.7259C69.4377 48.8168 69.092 48.9672 68.7929 49.1681C68.4939 49.3691 68.2475 49.6165 68.0684 49.8959C67.8893 50.1753 67.7812 50.4809 67.7502 50.7946L67.3981 54.3729C67.2798 54.3526 67.16 54.3314 67.0399 54.3114L66.7366 50.7851C66.7157 50.5278 66.7048 50.2636 66.7048 49.9768ZM88.775 96.166L96.0891 97.666L99.5053 89.8034L102.921 81.9408C101.155 84.1647 93.7815 92.8159 93.7812 95.4607H100.215H90.2374L88.775 96.166ZM72.1516 95.4613L71.5076 78.4053V95.4607H61.6252L62.4497 97.666C62.4493 95.0055 73.9376 97.6939 72.1516 95.4613ZM57.0764 89.3982V95.4607H54.366V87.5451C54.4892 86.4927 54.8948 85.475 55.5544 84.563C56.553 86.0462 57.0763 87.7087 57.0764 89.3982ZM39 18.666L38.2965 26.1494L51 30.4628L63.4523 26.1494V18.7799C63.4523 21.544 62.0971 24.1949 59.6846 26.1494C57.2722 28.1039 54.0003 29.2019 50.5886 29.2019C47.1769 29.2019 43.905 28.1039 41.4926 26.1494C39.0802 24.1949 39 21.4301 39 18.666ZM68.0012 18.7799L68.273 26.9338L93.1219 27.6501L92.5 18.666C92.5 21.4297 92.3698 24.1941 89.9577 26.1483C87.5456 28.1025 84.278 24.5175 80.8668 24.5175C77.4556 24.5175 74.1804 28.1025 71.7683 26.1483C69.3563 24.1941 68.0012 21.5436 68.0012 18.7799ZM98.4367 18.7799V25.612L106.329 29.5704L115.5 31.166L125.5 23.5186L124.164 18.7799C124.164 21.544 122.809 24.1949 120.396 26.1494C117.984 28.1039 114.712 29.2019 111.3 29.2019C107.889 29.2019 104.617 28.1039 102.204 26.1494C99.792 24.1949 98.4367 21.544 98.4367 18.7799ZM112.753 5.32211L121.217 12.6929H97.3457L92.3545 5.32211H112.753ZM74.5602 5.32211H87.1658L92.157 12.6929H69.569L74.5602 5.32211ZM69.3715 5.32211L64.3803 12.6929H41.254L51.4536 5.32211H69.3715ZM31.0153 5.32211H44.6205L34.4236 12.6929H19.1861L31.0153 5.32211ZM17.423 21.9116C16.5754 21.2233 15.9046 20.4056 15.4496 19.5059C14.9946 18.6062 14.7644 17.6423 14.7722 16.6701V23.5104L24.2759 26.1494L33.013 21.9116V17.666C33.021 19.5738 32.1145 20.4137 30.4847 21.7907C28.8549 23.1677 26.6289 23.9784 24.2759 24.0519C24.148 24.0568 24.0202 24.0593 23.8926 24.0593C22.6925 24.0656 21.5028 23.8791 20.3923 23.5104C19.2818 23.1418 18.2726 22.5984 17.423 21.9116ZM142.272 99.1461C143.177 99.1461 144.045 99.4373 144.685 99.9556C145.325 100.474 145.684 101.177 145.684 101.91C145.684 102.643 145.325 103.346 144.685 103.865C144.045 104.383 143.177 104.674 142.272 104.674H52.0916C51.4884 104.674 50.9099 104.868 50.4834 105.214C50.0568 105.559 49.8172 106.028 49.8172 106.517C49.8172 107.006 50.0568 107.474 50.4834 107.82C50.9099 108.165 51.4884 108.36 52.0916 108.36H135.449V152.188H24.0025V108.36H38.3477C38.9509 108.36 39.5294 108.165 39.9559 107.82C40.3825 107.474 40.6221 107.006 40.6221 106.517C40.6221 106.028 40.3825 105.559 39.9559 105.214C39.5294 104.868 38.9509 104.674 38.3477 104.674H19.4537C18.5489 104.674 17.6811 104.383 17.0413 103.865C16.4015 103.346 16.0421 102.643 16.0421 101.91C16.0421 101.177 16.4015 100.474 17.0413 99.9556C17.6811 99.4373 18.5489 99.1461 19.4537 99.1461H142.272ZM146.954 16.6701C146.967 17.6434 146.74 18.6091 146.286 19.5104C145.833 20.4117 145.161 21.2305 144.312 21.9188C143.462 22.6071 142.452 23.151 141.339 23.5186C140.227 23.8861 139.035 24.07 137.833 24.0593C137.086 24.0599 136.341 23.9877 135.615 23.8443C133.635 23.4547 131.875 22.5339 130.622 21.2314C129.368 19.9289 128.696 18.3214 128.713 16.6701L128 21.166L136.5 25.666L146.286 23.8443L146.954 16.6701Z" fill="#2F7F2B"/>
</g>
</svg>
