<svg width="164" height="165" viewBox="0 0 164 165" fill="none" xmlns="http://www.w3.org/2000/svg">
<g id="noun-sport-3129879 1">
<path id="Vector" d="M13.6668 90.5568L22.2529 64.5299C22.6861 63.2161 23.6092 62.1067 24.8412 61.419L49.2244 47.8018C55.1113 44.5374 61.826 42.9469 68.6004 43.2122C75.3748 43.4775 81.9356 45.5879 87.5325 49.302L100.025 57.6475L118.77 47.8984C120.104 47.2046 121.667 47.0535 123.115 47.4783C124.563 47.9031 125.779 48.8689 126.493 50.1634C127.208 51.4578 127.364 52.9749 126.926 54.3807C126.488 55.7866 125.493 56.9662 124.16 57.6599L102.351 69.0028C101.427 69.483 100.386 69.7072 99.3397 69.651C98.2938 69.5947 97.2841 69.26 96.4211 68.6837L81.1131 58.4586L72.0884 88.8052L94.1321 104.916C95.0908 105.617 95.8577 106.536 96.3654 107.592L109.741 135.398C110.15 136.246 110.382 137.163 110.425 138.097C110.469 139.032 110.322 139.965 109.993 140.845C109.664 141.724 109.16 142.532 108.509 143.222C107.859 143.912 107.075 144.471 106.201 144.867C105.328 145.262 104.383 145.487 103.42 145.528C102.458 145.569 101.496 145.426 100.59 145.106C99.6846 144.786 98.8528 144.296 98.1423 143.664C97.4319 143.032 96.8567 142.27 96.4497 141.423L83.8475 115.223L60.0334 97.8189L61.2758 126.344C61.3287 127.561 61.0588 128.771 60.4919 129.859C59.925 130.946 59.0801 131.874 58.0381 132.553L32.4341 149.256C31.6346 149.777 30.7371 150.141 29.7929 150.326C28.8488 150.51 27.8763 150.513 26.9311 150.333C25.9859 150.153 25.0865 149.794 24.2843 149.277C23.482 148.759 22.7925 148.094 22.2553 147.318C21.7181 146.542 21.3436 145.671 21.1532 144.754C20.9628 143.838 20.9603 142.894 21.1457 141.976C21.3311 141.059 21.7009 140.186 22.2339 139.407C22.7669 138.628 23.4528 137.959 24.2522 137.438L46.4451 122.96L45.1589 93.4267C45.1384 92.9615 45.1651 92.4955 45.2385 92.0354L50.3635 59.9428L32.4452 69.9491L24.5324 93.9343C24.3052 94.6282 23.9392 95.2719 23.4553 95.8284C22.9715 96.3849 22.3793 96.8433 21.7127 97.1773C21.0461 97.5114 20.3181 97.7145 19.5705 97.7751C18.8229 97.8357 18.0703 97.7526 17.3559 97.5305C16.6414 97.3084 15.9791 96.9518 15.4068 96.4809C14.8346 96.01 14.3636 95.4342 14.021 94.7864C13.6783 94.1387 13.4706 93.4316 13.4099 92.7059C13.3491 91.9801 13.4364 91.2498 13.6668 90.5568ZM73.9553 8.47191C70.9993 9.14407 68.315 10.6519 66.2419 12.8048C64.1689 14.9577 62.8001 17.659 62.3086 20.567C61.8172 23.4749 62.2253 26.4591 63.4811 29.142C64.737 31.8249 66.7843 34.086 69.3642 35.6396C71.9441 37.1931 74.9406 37.9691 77.9749 37.8696C81.0092 37.7701 83.945 36.7995 86.411 35.0806C88.8769 33.3616 90.7624 30.9715 91.8288 28.2124C92.8953 25.4534 93.0949 22.4493 92.4024 19.5801C91.4738 15.7327 89.0086 12.4009 85.5491 10.3177C82.0896 8.23455 77.9192 7.57058 73.9553 8.47191ZM150.607 117.755C150.607 114.66 149.661 111.634 147.889 109.06C146.117 106.486 143.599 104.48 140.653 103.296C137.706 102.111 134.464 101.801 131.336 102.405C128.208 103.009 125.335 104.499 123.08 106.688C120.825 108.877 119.289 111.666 118.667 114.702C118.045 117.738 118.364 120.885 119.584 123.745C120.805 126.605 122.872 129.049 125.523 130.769C128.175 132.489 131.293 133.406 134.482 133.406C138.758 133.406 142.86 131.758 145.884 128.822C148.908 125.887 150.607 121.906 150.607 117.755Z" fill="#2F7F2B"/>
</g>
</svg>
