<svg width="164" height="165" viewBox="0 0 164 165" fill="none" xmlns="http://www.w3.org/2000/svg">
<g id="noun-terrace-3967821 1">
<g id="Group">
<g id="Group_2">
<g id="Group_3">
<path id="Vector" d="M19.176 59.8617C20.317 60.5177 21.947 60.3865 23.088 59.5993C24.881 58.2873 28.304 57.5001 32.053 57.5001C35.15 57.5001 38.247 58.1561 40.203 59.0745C42.811 60.5177 46.071 60.5177 48.679 59.0745C50.635 58.0249 53.569 57.5001 56.829 57.5001C60.089 57.5001 63.023 58.1561 64.979 59.0745C67.587 60.5177 70.847 60.5177 73.455 59.0745C74.596 58.5497 75.9 58.1561 77.53 57.7625V93.0553H85.68V57.8937C87.31 58.1561 88.614 58.5497 89.755 59.2057C92.363 60.6489 95.623 60.6489 98.231 59.2057C100.187 58.1561 103.121 57.6313 106.381 57.6313C109.478 57.6313 112.575 58.2873 114.531 59.2057C117.139 60.6489 120.399 60.6489 123.007 59.2057C124.963 58.1561 127.897 57.6313 131.157 57.6313C134.743 57.6313 138.329 58.4185 140.122 59.7305C140.774 60.1241 141.426 60.3865 142.241 60.3865C142.893 60.3865 143.382 60.2553 143.871 59.9929C145.175 59.3369 145.827 58.0249 145.338 56.7129C140.448 43.3305 115.02 28.6361 85.517 27.3241V23.1257C85.517 21.2889 83.724 19.8457 81.442 19.8457C79.16 19.8457 77.367 21.2889 77.367 23.1257V27.1929C47.864 28.5049 22.599 43.1993 17.546 56.5817C17.22 57.8937 17.872 59.2057 19.176 59.8617Z" fill="#2F7F2B"/>
<path id="Vector_2" d="M52.5911 119.951H53.7321C56.0141 119.951 57.8071 118.508 57.8071 116.671C57.8071 114.835 56.0141 113.391 53.7321 113.391H32.5421C29.7711 113.391 27.4891 111.817 27.0001 109.718L21.6211 84.6587C21.2951 82.8219 19.1761 81.6411 16.8941 82.0347C14.6121 82.2971 13.1451 84.0027 13.6341 85.8395L19.0131 110.899C19.8281 114.31 22.4361 117.065 25.8591 118.639L20.3171 140.55C19.8281 142.387 21.2951 144.092 23.5771 144.486C23.9031 144.486 24.0661 144.617 24.3921 144.617C26.3481 144.617 27.9781 143.567 28.4671 141.993L34.0091 120.214H44.4411L49.9831 141.993C50.3091 143.567 52.1021 144.617 54.0581 144.617C54.3841 144.617 54.5471 144.617 54.8731 144.486C57.1551 144.092 58.4591 142.387 58.1331 140.55L52.5911 119.951Z" fill="#2F7F2B"/>
<path id="Vector_3" d="M146.316 81.9037C144.034 81.6413 141.915 82.8221 141.589 84.5277L136.21 109.718C135.721 111.817 133.439 113.392 130.668 113.392H109.478C107.196 113.392 105.403 114.835 105.403 116.672C105.403 118.508 107.196 119.952 109.478 119.952H110.619L105.403 140.419C104.914 142.256 106.381 143.961 108.663 144.355C108.989 144.355 109.152 144.486 109.478 144.486C111.434 144.486 113.064 143.436 113.553 141.862L119.095 120.083H129.527L135.069 141.862C135.395 143.436 137.188 144.486 139.144 144.486C139.47 144.486 139.633 144.486 139.959 144.355C142.241 143.961 143.545 142.256 143.219 140.419L137.677 118.508C141.263 116.934 143.871 114.179 144.523 110.768L149.902 85.7085C150.065 84.0029 148.598 82.2973 146.316 81.9037Z" fill="#2F7F2B"/>
<path id="Vector_4" d="M92.2 137.925H85.68V104.732H109.967C112.249 104.732 114.042 103.289 114.042 101.452C114.042 99.6151 112.249 98.1719 109.967 98.1719H53.243C50.961 98.1719 49.168 99.6151 49.168 101.452C49.168 103.289 50.961 104.732 53.243 104.732H77.53V137.794H71.01C68.728 137.794 66.935 139.237 66.935 141.074C66.935 142.911 68.728 144.354 71.01 144.354H92.2C94.482 144.354 96.275 142.911 96.275 141.074C96.275 139.237 94.482 137.925 92.2 137.925Z" fill="#2F7F2B"/>
</g>
</g>
</g>
</g>
</svg>
