<svg width="269" height="310" viewBox="0 0 269 310" fill="none" xmlns="http://www.w3.org/2000/svg">
<path d="M182.372 34.8011L138.284 57.3367C136.084 58.4622 133.375 57.6434 132.238 55.5104C131.1 53.3775 131.964 50.7335 134.165 49.608L178.253 27.0723C180.454 25.9468 183.162 26.7656 184.3 28.8986C185.437 31.0316 184.573 33.6756 182.372 34.8011Z" fill="white"/>
<path d="M120.576 4.48811L109.612 33.3619C108.913 35.2025 109.877 37.2316 111.764 37.8941L113.3 38.4331C115.188 39.0956 117.285 38.1406 117.984 36.3L128.949 7.42618C129.648 5.58558 128.684 3.55643 126.796 2.89395L125.26 2.35496C123.372 1.69247 121.275 2.64752 120.576 4.48811Z" fill="white"/>
<path d="M74.2359 4.63722L75.9067 25.1891C76.037 26.7918 77.4806 27.9766 79.1312 27.8354L81.7487 27.6115C83.3993 27.4703 84.6317 26.0566 84.5014 24.4539L82.8306 3.90199C82.7003 2.29929 81.2566 1.11452 79.6061 1.25572L76.9885 1.47963C75.338 1.62083 74.1056 3.03452 74.2359 4.63722Z" fill="white"/>
<path d="M85.1171 217.829C85.1171 217.829 87.1779 207.031 85.3571 203.767C83.5363 200.504 76.8442 191.718 76.3857 187.782C76.2425 186.556 75.8772 176.934 77.9243 174.941C79.3101 173.594 84.1627 175.705 84.4518 180.591C84.9552 189.084 89.2524 192.789 91.8728 195.615C96.3435 200.437 98.4851 203.479 97.5969 200.722C97.5969 200.722 93.4591 192.684 92.6141 188.87C92.3864 187.84 92.1751 179.432 94.309 177.961C95.4634 177.165 100.177 177.746 101.06 185.25C101.64 190.181 105.626 192.247 108.893 194.726C111.719 196.871 123.227 200.904 123.227 200.904L113.905 213.081L85.1145 217.831L85.1171 217.829Z" fill="#E96F5F"/>
<path d="M71.9246 205.667C71.9246 205.667 61.087 193.165 58.5632 187.404C57.5523 185.093 55.0484 177.202 56.7629 175.134C59.594 171.721 65.7344 175.978 67.8856 183.265C70.0205 190.497 79.8592 193.518 85.3092 196.98C98.8561 205.588 107.018 210.767 107.018 210.767L71.923 205.668L71.9246 205.667Z" fill="#F78978"/>
<path d="M72.6041 148.585C71.0066 147.909 73.3747 146.926 72.5781 144.676L71.8724 142.684C69.5944 136.251 69.3552 130.38 71.1553 125.071C72.9554 119.762 76.8391 113.86 82.8072 107.369C86.2187 103.873 88.6445 101.148 90.0872 99.199C91.5298 97.2504 92.4012 95.4319 92.7055 93.7363C93.0093 92.0439 92.7632 90.0736 91.9675 87.8269C90.6291 84.0477 88.0042 81.655 84.0964 80.6448C80.1876 79.6364 75.2202 80.1091 69.1978 82.0632C59.697 85.146 51.9603 90.1061 45.9864 96.9395C44.8487 98.1063 44.0478 98.7628 43.5851 98.9129C42.5414 99.2516 38.294 99.0016 37.201 98.1024L29.968 90.0094C29.2509 89.4459 28.8039 88.9096 28.622 88.396C28.2967 87.4773 28.6429 86.454 29.6668 85.324C38.1609 75.3962 50.4026 67.8367 66.3916 62.6486C79.3678 58.4381 90.7817 57.6673 100.639 60.3329C110.496 62.9986 117.088 69.03 120.416 78.4247C122.585 84.5509 122.753 90.134 120.92 95.1702C119.086 100.207 115.211 105.678 109.294 111.583C104.628 116.285 101.688 120.2 100.472 123.326C99.254 126.454 99.3148 129.907 100.653 133.686L101.249 135.37C102.046 137.618 102.054 139.467 101.275 140.914C100.496 142.364 98.6573 143.557 95.7629 144.496L82.729 148.726C79.9484 149.628 74.2 149.261 72.6046 148.582L72.6041 148.585ZM81.2108 172.888C78.9644 172.194 80.6373 171.268 79.8776 169.123L78.7386 165.907C77.9429 163.66 78.2168 161.606 79.5591 159.747C80.9019 157.889 83.2563 156.414 86.6164 155.323L96.6967 152.052C100.169 150.926 103.032 150.708 105.278 151.402C107.524 152.095 109.049 153.567 109.844 155.814L110.983 159.03C111.779 161.277 111.494 163.306 110.134 165.113C108.773 166.922 106.354 168.39 102.881 169.516L92.8012 172.787C89.4411 173.878 83.4572 173.581 81.2108 172.888Z" fill="#5AA02D"/>
<path d="M220.927 180.715C216.447 181.043 212.242 181.331 208.568 181.553C206.519 181.673 204.633 181.775 202.962 181.852C200.261 181.973 198.112 182.029 196.705 181.998C193.108 181.917 187.684 182.454 182.792 181.622L182.788 181.62C179.476 181.06 176.411 179.869 174.319 177.436C169.132 171.409 150.187 163.894 134.15 160.175C125.404 158.144 115.517 153.394 111.832 151.373C108.933 149.783 98.1872 142.388 95.1251 142.507C93.3235 142.58 90.7903 147.864 91.1123 150.315C91.7991 155.566 97.8619 160.518 108.931 167.444C119.477 174.043 122.228 178.947 123.638 183.914C124.551 187.141 124.942 190.544 121.617 194.784C121.224 195.282 120.108 196.937 118.302 198.806C114.531 202.72 107.756 207.577 98.4113 204.695C98.3007 204.661 98.1916 204.63 98.08 204.597L98.079 204.594C98.079 204.594 98.0775 204.595 98.0735 204.593C94.0583 203.431 89.4645 203.377 85.215 203.057C80.7669 202.721 76.6928 202.094 74.0653 199.594C70.8682 196.554 66.3563 194.38 61.5823 191.826L61.5783 191.824C58.122 189.98 54.5271 187.937 51.1961 185.22C43.0698 178.602 37.2785 181.06 36.4405 185.19C35.9885 187.431 45.8586 198.862 47.5396 200.376C49.7811 202.4 66.7649 215.239 70.0977 217.092C78.2985 221.66 110.589 232.805 116.607 234.552C126.802 237.514 149.776 231.526 169.381 228.259C170.693 228.039 172.007 227.838 173.323 227.651L173.327 227.649C180.555 226.627 187.831 226.08 195.093 226.023C197.394 226 199.69 226.029 201.986 226.108C203.02 226.144 204.057 226.188 205.09 226.246C213.664 209.355 218.536 194.312 220.924 180.715L220.927 180.715Z" fill="#FFA089"/>
<path d="M201.43 229.183L173.27 226.904L182.812 181.022L208.816 179.169L201.43 229.183Z" fill="#2F7F2B"/>
<path d="M308.647 168.654L203.621 177.99L203.455 178.91L203.155 180.604L195.293 224.765L194.698 228.108L194.154 231.153L279.461 243.931C291.147 225.058 295.801 189.364 308.649 168.654L308.647 168.654Z" fill="url(#paint0_linear_316_428)"/>
<path d="M191.802 186.068C192.791 186.457 193.982 186.038 194.462 185.13C194.941 184.222 194.528 183.171 193.539 182.78C192.55 182.39 191.36 182.809 190.879 183.717C190.4 184.625 190.813 185.677 191.802 186.068Z" fill="#100259"/>
<path d="M71.4894 148.288C69.8919 147.612 68.6974 146.15 67.9008 143.9L67.1951 141.908C64.9171 135.475 64.6779 129.604 66.478 124.295C68.2782 118.986 72.1618 113.084 78.13 106.593C81.5414 103.097 83.9673 100.372 85.4099 98.4229C86.8525 96.4743 87.7239 94.6558 88.0283 92.9602C88.3321 91.2677 88.0859 89.2975 87.2903 87.0508C85.9519 83.2716 83.327 80.8789 79.4192 79.8687C75.5088 78.8608 70.543 79.333 64.5206 81.2871C55.0197 84.3699 47.2831 89.33 41.3092 96.1633C40.1715 97.3302 39.3706 97.9867 38.9079 98.1368C37.8642 98.4754 36.7965 98.1972 35.7045 97.2961L25.2903 89.232C24.5732 88.6685 24.1262 88.1321 23.9443 87.6186C23.6189 86.6999 23.9652 85.6765 24.9891 84.5466C33.4831 74.6188 45.7254 67.0606 61.7143 61.8725C74.6905 57.662 86.1044 56.8912 95.9615 59.5568C105.819 62.2224 112.411 68.2539 115.738 77.6486C117.908 83.7748 118.075 89.3579 116.243 94.3941C114.409 99.4309 110.533 104.902 104.617 110.807C99.951 115.509 97.0112 119.424 95.7949 122.551C94.5772 125.68 94.6381 129.132 95.9764 132.912L96.5727 134.595C97.3688 136.843 97.3776 138.692 96.5979 140.14C95.8193 141.589 93.982 142.782 91.0861 143.722L78.0523 147.951C75.2716 148.853 73.0843 148.966 71.4889 148.287L71.4894 148.288ZM79.7111 172.607C77.4647 171.914 75.9605 170.494 75.2008 168.348L74.0618 165.132C73.2662 162.886 73.54 160.832 74.8823 158.972C76.2251 157.114 78.5796 155.639 81.9397 154.549L92.02 151.278C95.4923 150.151 98.3547 149.933 100.601 150.627C102.848 151.32 104.372 152.792 105.167 155.039L106.306 158.255C107.102 160.502 106.818 162.531 105.457 164.338C104.097 166.147 101.677 167.615 98.2047 168.742L88.1244 172.013C84.7643 173.103 81.958 173.302 79.7116 172.609L79.7111 172.607Z" fill="#2F7F2B"/>
<path d="M172.015 175.225C164.708 169.73 148.466 163.625 134.445 160.409C125.706 158.405 115.831 153.693 112.15 151.684C109.26 150.103 98.5309 142.753 95.4674 142.879C93.6649 142.957 91.1199 148.232 91.4371 150.673C92.1113 155.908 98.1605 160.834 109.211 167.713C119.742 174.269 122.482 179.152 123.879 184.101C123.91 184.215 123.94 184.326 123.972 184.441L172.015 175.226L172.015 175.225Z" fill="#FFA089"/>
<defs>
<linearGradient id="paint0_linear_316_428" x1="183.839" y1="218.314" x2="320.646" y2="172.525" gradientUnits="userSpaceOnUse">
<stop stop-color="#1A7025"/>
<stop offset="0.458623" stop-color="#77B140"/>
<stop offset="0.96875" stop-color="#E0EFA8"/>
</linearGradient>
</defs>
</svg>
