<svg width="49" height="20" viewBox="0 0 49 20" fill="none" xmlns="http://www.w3.org/2000/svg">
<g id="&#239;&#163;&#191; Pay">
<path d="M9.26078 2.57911C9.83768 1.88483 10.2292 0.952615 10.1259 0C9.28141 0.0404038 8.25087 0.536071 7.65424 1.2309C7.11853 1.82591 6.64438 2.79716 6.76799 3.70984C7.71597 3.78896 8.66308 3.25392 9.26078 2.57911Z" fill="white"/>
<path d="M10.1152 3.88805C8.73846 3.80915 7.56793 4.63985 6.91048 4.63985C6.25267 4.63985 5.24591 3.92782 4.15701 3.94701C2.73974 3.96704 1.42467 4.73807 0.705467 5.96437C-0.773815 8.41758 0.315085 12.0566 1.75361 14.0546C2.45219 15.043 3.2941 16.1314 4.40344 16.0923C5.45158 16.0527 5.86241 15.4393 7.13647 15.4393C8.4096 15.4393 8.77967 16.0923 9.88919 16.0725C11.0398 16.0527 11.7591 15.0836 12.4577 14.0941C13.2591 12.9673 13.5872 11.8793 13.6078 11.8196C13.5872 11.7998 11.3891 10.9884 11.3687 8.55562C11.348 6.51859 13.0944 5.54966 13.1766 5.48957C12.1904 4.08607 10.6494 3.92782 10.1152 3.88805Z" fill="white"/>
<path d="M22.1024 1.13126C25.0946 1.13126 27.1783 3.11584 27.1783 6.00524C27.1783 8.90495 25.0518 10.8998 22.0274 10.8998H18.7144V15.9692H16.3208V1.13125L22.1024 1.13126ZM18.7144 8.96663H21.4609C23.5449 8.96663 24.731 7.88707 24.731 6.01555C24.731 4.14422 23.5449 3.07478 21.4716 3.07478H18.7144V8.96663Z" fill="white"/>
<path d="M27.8036 12.8947C27.8036 11.0026 29.3105 9.84068 31.9824 9.69669L35.06 9.52195V8.68913C35.06 7.486 34.2156 6.76623 32.8053 6.76623C31.4691 6.76623 30.6355 7.38307 30.4327 8.34977H28.2526C28.3808 6.39593 30.1119 4.95639 32.8906 4.95639C35.6157 4.95639 37.3575 6.34456 37.3575 8.51419V15.9692H35.1453V14.1903H35.0921C34.4403 15.3934 33.0188 16.1542 31.5441 16.1542C29.3426 16.1542 27.8036 14.838 27.8036 12.8947ZM35.06 11.9179V11.0644L32.292 11.2289C30.9134 11.3215 30.1334 11.9076 30.1334 12.833C30.1334 13.7789 30.9455 14.3959 32.1852 14.3959C33.7988 14.3959 35.06 13.3265 35.06 11.9179Z" fill="white"/>
<path d="M39.4461 19.9486V18.1491C39.6168 18.1902 40.0014 18.1902 40.1939 18.1902C41.2625 18.1902 41.8397 17.7584 42.1922 16.6479C42.1922 16.6272 42.3955 15.9898 42.3955 15.9795L38.3346 5.15175H40.835L43.678 13.9538H43.7205L46.5635 5.15175H49L44.7891 16.5346C43.8277 19.1569 42.7162 20 40.3865 20C40.1939 20 39.6168 19.9794 39.4461 19.9486Z" fill="white"/>
</g>
</svg>
