<svg width="120" height="75" viewBox="0 0 120 75" fill="none" xmlns="http://www.w3.org/2000/svg">
<path id="Vector 19" d="M2.04147 2.65148C13.2727 2.90879 32.1521 3.8753 35.0765 15.5455C36.4978 21.2175 38.5207 25.3844 34.1873 30.9306C25.3764 42.2076 8.36114 28.3955 15.9004 17.9562C31.0033 -2.9562 62.4586 -4.29743 75.5458 14.2212C81.599 22.7866 82.0203 33.9503 75.9988 43.6041C73.1698 48.1395 66.7362 53.582 60.8015 49.4654C47.5945 40.3043 60.4266 21.8755 76.8499 20.2994C103.29 17.7621 114.067 43.8456 106.098 61.9659C106.051 62.0723 99.4994 75.3558 98.0628 73.3998C95.2248 69.5356 97.93 54.5897 98.7375 59.1978C99.5375 63.7626 96.322 67.7137 95.1573 71.9024C94.6159 73.8493 114.854 72.7692 118.605 72.8494" stroke="#2F7F2B" stroke-width="2" stroke-linecap="round"/>
</svg>
