<svg width="128" height="51" viewBox="0 0 128 51" fill="none" xmlns="http://www.w3.org/2000/svg">
<path d="M1.50611 19.5776C11.9894 22.0603 23.4926 23.7783 31.9313 15.7038C34.8885 12.8742 40.0114 8.1726 38.3328 3.46256C36.6115 -1.36732 32.3389 3.46768 30.0891 6.76901C27.6587 10.3353 26.8453 14.1061 28.1662 18.3963C31.5692 29.4486 49.309 23.9337 56.8933 21.3746C61.4407 19.8403 68.7798 15.3148 69.3611 10.1644C70.0358 4.18549 63.1767 9.39703 61.7878 10.7814C53.098 19.4429 59.7316 30.5515 69.0835 34.3956C79.1666 38.5403 89.7992 38.3925 100.321 40.1808C105.923 41.1331 111.565 41.1399 117.173 42.093C118.746 42.3603 123.315 42.7279 121.954 41.9005C118.507 39.8067 116.286 36.5165 113.315 34.0322C112.24 33.133 120.163 38.7043 122.139 39.8692C125.888 42.0797 129.1 42.2063 123.169 43.8526C119.177 44.9606 114.094 46.3476 111.61 49.7163" stroke="#5AA02D" stroke-width="2" stroke-linecap="round"/>
</svg>
