<svg width="145" height="175" viewBox="0 0 145 175" fill="none" xmlns="http://www.w3.org/2000/svg">
<g id="Frame">
<path id="Vector" d="M78.459 134.285L56.584 167.098C56.1854 167.696 55.673 168.209 55.0759 168.609C54.4789 169.009 53.8089 169.287 53.1043 169.428C51.6813 169.713 50.2036 169.42 48.9961 168.615C47.7886 167.81 46.9504 166.559 46.6658 165.136C46.3812 163.713 46.6735 162.235 47.4785 161.027L69.3535 128.215C70.1585 127.008 71.4102 126.169 72.8332 125.885C74.2562 125.6 75.7339 125.892 76.9414 126.697C78.1489 127.502 78.9871 128.754 79.2717 130.177C79.5563 131.6 79.264 133.078 78.459 134.285ZM128.594 62.8908C128.579 76.6652 123.101 89.8712 113.361 99.6112C103.621 109.351 90.415 114.829 76.6406 114.844H60.4258L40.1777 145.223C39.7792 145.821 39.2667 146.334 38.6697 146.734C38.0726 147.134 37.4027 147.412 36.6981 147.553C35.9935 147.694 35.268 147.695 34.5631 147.555C33.8582 147.416 33.1877 147.139 32.5898 146.74C31.992 146.342 31.4785 145.829 31.0786 145.232C30.6788 144.635 30.4005 143.965 30.2596 143.261C30.1186 142.556 30.1179 141.831 30.2573 141.126C30.3968 140.421 30.6737 139.75 31.0723 139.152L47.2803 114.844H21.9531C12.5255 114.844 3.48402 111.099 -3.18231 104.432C-9.84864 97.7661 -13.5937 88.7247 -13.5938 79.297C-13.5937 69.8694 -9.84864 60.8279 -3.18231 54.1616C3.48402 47.4953 12.5255 43.7502 21.9531 43.7502C23.9967 43.7519 26.0364 43.9257 28.0508 44.2697C32.4122 32.941 40.5991 23.4948 51.1932 17.5678C61.7872 11.6408 74.1207 9.60634 86.057 11.817C97.9933 14.0277 108.78 20.3441 116.549 29.672C124.318 38.9999 128.579 50.7515 128.594 62.8908ZM117.656 62.8908C117.613 52.2408 113.432 42.0245 105.997 34.3988C98.5629 26.7731 88.4561 22.3347 77.8106 22.0207C67.1651 21.7066 56.8142 25.5415 48.943 32.7157C41.0719 39.8899 36.2965 49.842 35.625 60.4709C35.5837 61.189 35.4014 61.892 35.0884 62.5397C34.7754 63.1874 34.3379 63.7671 33.8009 64.2458C32.7163 65.2124 31.2922 65.7086 29.8418 65.6252C28.3914 65.5418 27.0335 64.8856 26.0669 63.801C25.1003 62.7165 24.6041 61.2924 24.6875 59.842C24.7832 58.174 24.9587 56.5265 25.2139 54.8996C24.1325 54.7608 23.0434 54.69 21.9531 54.6877C15.4263 54.6877 9.16682 57.2804 4.55167 61.8956C-0.0634842 66.5107 -2.65625 72.7702 -2.65625 79.297C-2.65625 85.8238 -0.0634842 92.0833 4.55167 96.6985C9.16682 101.314 15.4263 103.906 21.9531 103.906H76.6406C87.5148 103.894 97.9399 99.5684 105.629 91.8792C113.318 84.19 117.644 73.7649 117.656 62.8908Z" fill="#7BAF59"/>
</g>
</svg>
