<svg width="400" height="76" viewBox="0 0 400 76" fill="none" xmlns="http://www.w3.org/2000/svg">
<path d="M-33.2368 51.9803C-33.2368 51.9803 -30.5214 58.9428 -27.4754 65.8392C-25.8229 69.6183 -24.0721 73.3753 -22.8305 76H553.893C555.144 73.3679 556.885 69.6183 558.538 65.8392C561.584 58.9355 564.299 51.9803 564.299 51.9803C564.299 51.9803 567.042 45.0251 569.453 38.0184C571.892 31.0117 574 23.9756 574 23.9756C574 23.9756 569.918 30.4088 565.568 36.6803C561.236 42.9664 556.644 49.0835 556.644 49.0835C556.644 49.0835 554.474 51.995 551.535 55.7593L550.91 48.1571L548.748 21.7773L542.504 47.716L540.664 55.3549C539.485 52.4435 538.708 50.3407 538.708 50.3407C538.708 50.3407 536.502 44.4369 534.733 38.3787C532.938 32.3278 531.607 26.1445 531.607 26.1445C531.607 26.1445 530.838 32.3866 530.544 38.7168C530.222 45.0398 530.392 51.4215 530.392 51.4215C530.392 51.4215 530.472 55.2593 530.803 59.9795C530.276 58.7811 529.74 57.5386 529.213 56.296C526.22 49.282 523.603 42.1283 523.603 42.1283C523.603 42.1283 520.959 34.9819 518.699 27.7106C516.412 20.4466 514.519 13.0649 514.519 13.0649C514.519 13.0649 514.322 20.6009 514.528 28.1811C514.715 35.7539 515.314 43.3561 515.314 43.3561C515.314 43.3561 515.885 50.951 516.886 58.5605C517.1 60.2221 517.333 61.8837 517.565 63.4718C517.02 61.2073 516.404 58.6634 515.787 56.1122C513.858 48.5688 511.928 41.0328 511.928 41.0328L507.864 26.0048C505.738 18.5203 503.603 11.0357 503.603 11.0357C503.603 11.0357 503.639 18.7114 503.675 26.3945C503.612 34.0629 503.541 41.7313 503.541 41.7313L503.201 57.0459C503.085 60.303 502.969 63.5527 502.871 66.2215H502.799C502.817 64.7805 502.835 63.2733 502.826 61.7587C502.826 55.0314 502.469 48.3409 502.469 48.3409C502.469 48.3409 502.138 41.6504 501.46 35.0187C500.807 28.3796 499.816 21.8067 499.816 21.8067C499.816 21.8067 498.699 28.3723 497.252 34.8496C495.823 41.3416 494.072 47.7307 494.072 47.7307C494.072 47.7307 492.34 54.1345 490.285 60.4353C490.258 60.5309 490.223 60.6265 490.196 60.7147C490.312 59.1634 490.392 57.5533 490.446 55.9505C490.499 52.0023 490.321 48.0909 490.017 45.1795C489.91 43.7237 489.696 42.5106 489.597 41.6724C489.49 40.8269 489.419 40.349 489.419 40.349C489.419 40.349 489.338 39.8711 489.186 39.0256C489.026 38.1875 488.874 36.9891 488.534 35.5627C487.963 32.7027 486.962 28.9384 485.774 25.2549C484.515 21.5714 483.059 17.9762 481.799 15.3294C481.219 13.9987 480.611 12.9252 480.245 12.1606C479.861 11.4033 479.638 10.9695 479.638 10.9695C479.638 10.9695 479.727 11.4327 479.897 12.2488C480.04 13.0649 480.334 14.2045 480.531 15.6014C481.013 18.3806 481.415 22.0935 481.612 25.7843C481.746 29.4898 481.665 33.1586 481.442 35.8936C481.37 37.2611 481.192 38.4007 481.129 39.1947C481.04 39.9888 480.995 40.4373 480.995 40.4373C480.995 40.4373 480.924 40.8858 480.808 41.6798C480.674 42.4665 480.558 43.5987 480.272 44.9368C479.959 46.7234 479.459 48.907 478.869 51.1789C476.851 46.7822 475.466 43.3267 475.466 43.3267C475.466 43.3267 472.59 36.2538 470.384 28.9457C468.142 21.6597 466.587 14.1677 466.587 14.1677C466.587 14.1677 466.025 21.7406 466.203 29.3942C466.337 37.0405 467.213 44.731 467.213 44.731C467.213 44.731 467.865 50.7524 469.124 57.465C469.053 57.3842 468.981 57.3033 468.919 57.2151C467.052 54.8182 465.31 52.3038 464.14 50.3554C462.961 48.4071 462.237 47.069 462.237 47.069C462.237 47.069 461.523 45.7382 460.558 43.6722C459.834 42.143 459.03 40.1873 458.271 38.0919C458.298 37.614 458.325 37.1214 458.352 36.5847C458.512 33.3277 458.495 28.9825 458.28 24.6741C457.994 20.3657 457.512 16.0867 456.976 12.9105C456.753 11.3224 456.449 9.99904 456.288 9.08001C456.109 8.16098 456.011 7.63162 456.011 7.63162C456.011 7.63162 455.984 8.16097 455.922 9.0947C455.85 10.0284 455.833 11.3518 455.654 12.9399C455.395 16.1161 454.832 20.3289 454.064 24.4903C453.242 28.6516 452.224 32.7542 451.304 35.7906C450.393 38.8345 449.705 40.8269 449.705 40.8269C449.705 40.8269 449.008 42.8341 447.856 45.7897C447.749 46.0764 447.606 46.4073 447.481 46.7087C447.275 45.6794 447.132 45.0692 447.132 45.0692C447.132 45.0692 445.793 38.9889 443.649 33.1733C441.55 27.3356 438.682 21.8361 438.682 21.8361C438.682 21.8361 439.504 27.7988 439.486 33.6879C439.504 38.5183 438.986 43.2458 438.79 44.8119C437.852 40.5917 437.226 37.4743 437.226 37.4743C437.226 37.4743 435.663 29.8059 434.43 22.0714C433.18 14.3368 432.251 6.54348 432.251 6.54348C432.251 6.54348 431.956 8.48448 431.554 11.4033C432.072 7.30812 432.519 4.4187 432.519 4.4187C432.519 4.4187 429.125 12.6532 426.302 21.0862C423.444 29.5045 421.148 38.0919 421.148 38.0919C421.148 38.0919 418.915 46.3485 417.191 54.8918C417.593 46.4367 417.423 38.9889 417.423 38.9889C417.423 38.9889 417.28 29.1369 416.253 19.3805C415.306 9.61671 413.493 0 413.493 0C413.493 0 413.198 9.73435 412.037 19.3658C410.956 29.0045 409.018 38.4889 409.018 38.4889C409.018 38.4889 408.196 42.6944 406.847 48.2306C406.159 46.2382 405.552 44.3486 405.114 42.7459C404.65 41.2533 404.4 39.9888 404.167 39.1065C403.944 38.2242 403.819 37.7169 403.819 37.7169C403.819 37.7169 403.712 37.2096 403.533 36.32C403.372 35.4304 403.042 34.1585 402.819 32.6218C402.265 29.5486 401.782 25.4166 401.532 21.2406C401.354 17.0719 401.398 12.8591 401.639 9.69759C401.711 8.10951 401.907 6.80081 401.979 5.87442C402.068 4.94804 402.122 4.4187 402.122 4.4187C402.122 4.4187 401.943 4.926 401.622 5.81562C401.318 6.70524 400.8 7.96983 400.335 9.52115C399.308 12.6017 398.209 16.7778 397.325 21.02C396.521 25.2623 395.949 29.5707 395.717 32.8203C395.548 34.4452 395.556 35.8054 395.485 36.7538C395.44 37.7096 395.414 38.2537 395.414 38.2537C395.414 38.2537 395.414 38.7977 395.414 39.7535C395.431 40.7093 395.36 42.0768 395.449 43.7164C395.449 44.0399 395.467 44.3781 395.476 44.7163C395.405 44.3928 395.324 44.0546 395.244 43.6869C394.735 41.5327 393.94 38.6948 392.993 35.9083C392.055 33.1218 390.947 30.4015 390.027 28.3943C389.125 26.3871 388.455 25.0784 388.455 25.0784C388.455 25.0784 389.098 30.7544 388.812 36.3421C388.705 39.1359 388.428 41.9004 388.143 43.9516C387.991 45.0398 387.848 45.922 387.741 46.5176C387.16 43.209 386.758 40.9666 386.758 40.9666L380.88 7.6169L378.799 35.1657C378.504 34.0041 378.192 32.813 377.87 31.6219C376.111 25.0049 373.913 18.5276 373.913 18.5276C373.913 18.5276 374.02 25.2623 373.672 31.9381C373.377 38.6213 372.636 45.2383 372.636 45.2383C372.636 45.2383 372.484 46.6572 372.216 48.8188C370.492 44.4222 369.367 40.7167 369.367 40.7167C369.367 40.7167 367.446 34.5555 366.321 28.1664C365.141 21.7994 364.802 15.2632 364.802 15.2632C364.802 15.2632 363.042 21.6303 362.104 28.2105C361.292 33.6291 361.068 39.1359 361.006 40.8931C361.006 40.3417 360.988 39.8123 360.961 39.3271C360.863 37.1655 360.711 35.7465 360.711 35.7465C360.711 35.7465 360.148 30.0118 358.451 24.5932C357.594 21.8802 356.575 19.2481 355.673 17.3219C354.78 15.3956 354.119 14.1457 354.119 14.1457C354.119 14.1457 354.762 19.601 354.253 24.9094C353.994 27.5635 353.565 30.1736 353.118 32.0998C352.672 34.0261 352.306 35.2833 352.306 35.2833C352.306 35.2833 350.948 40.0182 348.697 44.5251C347.089 40.4887 345.847 36.7906 345.847 36.7906C345.847 36.7906 344.24 32.0631 342.971 27.2106C341.676 22.3728 340.729 17.4248 340.729 17.4248C340.729 17.4248 339.568 22.3361 338.764 27.3429C337.933 32.3425 337.469 37.4302 337.469 37.4302C337.469 37.4302 337.442 37.6728 337.406 38.0845C336.826 36.5112 336.495 35.526 336.495 35.526C336.495 35.526 334.173 28.7913 332.752 21.792C331.279 14.8147 330.743 7.63896 330.743 7.63896C330.743 7.63896 329.162 14.6971 328.545 21.9537C327.866 29.1957 328.17 36.5553 328.17 36.5553C328.17 36.5553 328.188 37.0111 328.224 37.8125C327.589 35.3422 326.562 31.5264 325.374 27.7547C323.4 21.417 320.988 15.2412 320.988 15.2412C320.988 15.2412 321.337 21.7332 321.194 28.1664C321.087 34.6143 320.497 40.9813 320.497 40.9813C320.497 40.9813 319.943 47.3631 318.925 53.6492C318.889 53.8551 318.854 54.0683 318.827 54.2742C318.228 52.5905 317.612 50.7745 317.049 48.9291C314.852 41.9371 313.396 34.7393 313.396 34.7393C313.396 34.7393 311.895 27.5562 311.154 20.2039C310.368 12.8738 310.377 5.42595 310.377 5.42595C310.377 5.42595 308.269 12.6532 306.938 20.0863C305.562 27.4973 304.973 35.0701 304.973 35.0701C304.973 35.0701 304.615 39.3565 304.508 44.7457C304.151 43.5693 303.954 42.8562 303.954 42.8562C303.954 42.8562 302.078 36.3641 300.747 29.7251C299.39 23.0933 298.586 16.3367 298.586 16.3367C298.586 16.3367 297.273 23.0345 296.54 29.8501C295.763 36.6582 295.576 43.5546 295.576 43.5546C295.576 43.5546 295.54 44.5913 295.522 46.2602C295.174 45.0839 294.834 43.9663 294.495 43.0105C293.646 40.5549 293.003 38.9521 293.003 38.9521C293.003 38.9521 292.36 37.342 291.279 34.9746C290.207 32.6071 288.581 29.5266 286.813 26.5416C284.982 23.5713 283.008 20.7039 281.391 18.6232C279.783 16.5425 278.658 15.2044 278.658 15.2044C278.658 15.2044 281.355 21.3729 282.829 27.6664C283.561 30.8206 284.106 33.96 284.365 36.3274C284.633 38.6874 284.732 40.2535 284.732 40.2535C284.732 40.2535 284.812 41.496 284.848 43.4076L274.513 23.9683L276.925 45.5691L278.184 56.8916C278.014 56.5754 277.845 56.2666 277.684 55.9505C276.04 52.6052 274.575 49.1644 273.646 46.5249C273.137 45.2162 272.842 44.0987 272.574 43.3193C272.324 42.54 272.181 42.0989 272.181 42.0989C272.181 42.0989 272.056 41.6504 271.842 40.8637C271.646 40.077 271.279 38.9521 270.993 37.592C270.332 34.8716 269.68 31.1955 269.261 27.4606C268.903 23.733 268.769 19.954 268.876 17.116C268.876 15.6897 269.01 14.5133 269.046 13.6825C269.1 12.8517 269.127 12.3738 269.127 12.3738C269.127 12.3738 268.966 12.8296 268.689 13.631C268.43 14.4324 267.965 15.572 267.572 16.9689C266.688 19.7481 265.759 23.5198 265.053 27.3576C264.955 27.9311 264.884 28.4972 264.794 29.0707C264.41 26.9239 263.919 24.6153 263.276 22.3214C262.088 18.1894 260.65 14.1383 259.113 11.2489C258.461 9.77846 257.684 8.62417 257.229 7.79337C256.746 6.97727 256.478 6.50673 256.478 6.50673C256.478 6.50673 256.63 7.01402 256.889 7.89629C257.13 8.78591 257.595 10.0137 257.854 11.5503C258.613 14.5721 258.988 18.6747 259.095 22.7331C259.176 26.8062 258.792 30.8573 258.443 33.8791C258.024 36.9008 257.684 38.9007 257.684 38.9007C257.684 38.9007 257.586 39.4006 257.416 40.2755C257.229 41.1504 257.041 42.4003 256.675 43.8855C256.023 46.8705 254.978 50.8186 253.763 54.73C253.414 55.8622 253.048 56.9871 252.673 58.09L254.066 45.5765L256.478 23.9756L246.143 43.4149C246.179 41.5033 246.26 40.2608 246.26 40.2608C246.26 40.2608 246.358 38.6948 246.626 36.3347C246.885 33.9673 247.43 30.8279 248.162 27.6738C249.636 21.3803 252.334 15.2118 252.334 15.2118C252.334 15.2118 251.199 16.5499 249.6 18.6305C247.983 20.7039 246.009 23.5786 244.178 26.5489C242.401 29.5339 240.784 32.6145 239.712 34.9819C238.631 37.342 237.988 38.9595 237.988 38.9595C237.988 38.9595 237.345 40.5623 236.496 43.0179C236.166 43.9737 235.817 45.0912 235.469 46.2676C235.451 44.5986 235.415 43.562 235.415 43.562C235.415 43.562 235.219 36.6582 234.451 29.8574C233.709 23.0419 232.405 16.344 232.405 16.344C232.405 16.344 231.61 23.1007 230.244 29.7324C228.913 36.3788 227.037 42.8635 227.037 42.8635C227.037 42.8635 226.831 43.584 226.483 44.753C226.385 39.3638 226.019 35.0775 226.019 35.0775C226.019 35.0775 225.429 27.512 224.053 20.0936C222.723 12.6605 220.614 5.43329 220.614 5.43329C220.614 5.43329 220.614 12.8737 219.837 20.2113C219.105 27.5562 217.595 34.7466 217.595 34.7466C217.595 34.7466 216.139 41.9518 213.942 48.9364C213.379 50.7745 212.763 52.5905 212.164 54.2815C212.129 54.0756 212.093 53.8624 212.066 53.6566C211.048 47.3704 210.494 40.9887 210.494 40.9887C210.494 40.9887 209.913 34.6143 209.797 28.1737C209.663 21.7332 210.003 15.2485 210.003 15.2485C210.003 15.2485 207.582 21.4244 205.617 27.762C204.429 31.5337 203.402 35.3495 202.767 37.8199C202.812 37.0185 202.821 36.5626 202.821 36.5626C202.821 36.5626 203.125 29.2031 202.446 21.9611C201.829 14.7045 200.248 7.64631 200.248 7.64631C200.248 7.64631 199.713 14.8221 198.239 21.7994C196.818 28.7987 194.496 35.5333 194.496 35.5333C194.496 35.5333 194.165 36.5185 193.585 38.0919C193.549 37.6802 193.522 37.4375 193.522 37.4375C193.522 37.4375 193.058 32.3498 192.227 27.3503C191.423 22.3361 190.262 17.4321 190.262 17.4321C190.262 17.4321 189.315 22.3802 188.02 27.2179C186.743 32.0704 185.144 36.7979 185.144 36.7979C185.144 36.7979 183.902 40.4961 182.294 44.5325C180.034 40.0255 178.686 35.2907 178.686 35.2907C178.686 35.2907 178.319 34.0335 177.873 32.1072C177.417 30.1809 176.997 27.5709 176.738 24.9167C176.229 19.6084 176.872 14.153 176.872 14.153C176.872 14.153 176.211 15.3956 175.318 17.3292C174.416 19.2555 173.398 21.8949 172.54 24.6006C170.843 30.0191 170.28 35.7539 170.28 35.7539C170.28 35.7539 170.128 37.1729 170.03 39.3344C170.003 39.8197 169.994 40.349 169.985 40.9005C169.932 39.1433 169.699 33.6291 168.887 28.2179C167.958 21.6376 166.189 15.2706 166.189 15.2706C166.189 15.2706 165.85 21.8067 164.671 28.1737C163.545 34.5628 161.625 40.724 161.625 40.724C161.625 40.724 160.499 44.4222 158.775 48.8262C158.507 46.6646 158.355 45.2456 158.355 45.2456C158.355 45.2456 157.614 38.6286 157.319 31.9454C156.971 25.2623 157.078 18.535 157.078 18.535C157.078 18.535 154.881 25.0123 153.121 31.6293C152.79 32.8203 152.487 34.0114 152.192 35.1731L150.111 7.62426L144.233 40.974C144.233 40.974 143.84 43.2164 143.251 46.5249C143.152 45.9294 143 45.0471 142.849 43.959C142.563 41.9004 142.286 39.1433 142.179 36.3494C141.893 30.7617 142.536 25.0858 142.536 25.0858C142.536 25.0858 141.866 26.3945 140.964 28.4017C140.044 30.4088 138.936 33.1292 137.998 35.9156C137.051 38.6948 136.256 41.5401 135.747 43.6943C135.658 44.0619 135.586 44.4001 135.515 44.7236C135.524 44.3854 135.542 44.0472 135.542 43.7237C135.631 42.0842 135.56 40.7166 135.578 39.7608C135.578 38.8051 135.578 38.261 135.578 38.261C135.578 38.261 135.551 37.7169 135.506 36.7612C135.444 35.8054 135.444 34.4525 135.274 32.8277C135.042 29.578 134.47 25.2696 133.666 21.0274C132.791 16.7851 131.683 12.6091 130.656 9.52848C130.2 7.97716 129.673 6.71257 129.369 5.82295C129.048 4.93333 128.869 4.42603 128.869 4.42603C128.869 4.42603 128.923 4.9554 129.012 5.88178C129.084 6.80817 129.28 8.11687 129.352 9.70495C129.593 12.8664 129.637 17.0719 129.459 21.2479C129.2 25.424 128.717 29.556 128.173 32.6292C127.949 34.1658 127.619 35.4378 127.458 36.3274C127.279 37.217 127.172 37.7243 127.172 37.7243C127.172 37.7243 127.047 38.2316 126.824 39.1139C126.583 39.9961 126.332 41.2607 125.877 42.7532C125.439 44.3633 124.832 46.2529 124.144 48.238C122.804 42.6944 121.973 38.4963 121.973 38.4963C121.973 38.4963 120.035 29.0119 118.954 19.3731C117.793 9.74906 117.498 0.00735941 117.498 0.00735941C117.498 0.00735941 115.685 9.62407 114.738 19.3878C113.711 29.1369 113.568 38.9962 113.568 38.9962C113.568 38.9962 113.398 46.4514 113.8 54.8991C112.076 46.3484 109.843 38.0993 109.843 38.0993C109.843 38.0993 107.556 29.5119 104.689 21.0935C101.858 12.6605 98.4721 4.42603 98.4721 4.42603C98.4721 4.42603 98.9188 7.31547 99.4368 11.418C99.0349 8.49183 98.7401 6.55084 98.7401 6.55084C98.7401 6.55084 97.8201 14.3442 96.5695 22.0787C95.3368 29.8206 93.7737 37.4817 93.7737 37.4817C93.7737 37.4817 93.1484 40.599 92.2105 44.8192C92.014 43.2532 91.4959 38.5257 91.5137 33.6953C91.487 27.8061 92.3177 21.8435 92.3177 21.8435C92.3177 21.8435 89.4504 27.3429 87.3512 33.1806C85.2074 38.9962 83.8676 45.0765 83.8676 45.0765C83.8676 45.0765 83.7247 45.6868 83.5192 46.7161C83.3942 46.4146 83.2602 46.0838 83.1441 45.797C81.9828 42.8414 81.295 40.8343 81.295 40.8343C81.295 40.8343 80.6072 38.8345 79.6961 35.798C78.7761 32.7615 77.7578 28.659 76.936 24.4976C76.1767 20.3363 75.6051 16.1234 75.346 12.9473C75.1763 11.3592 75.1495 10.0358 75.078 9.10206C75.0245 8.16833 74.9887 7.63896 74.9887 7.63896C74.9887 7.63896 74.8905 8.16832 74.7118 9.08735C74.551 10.0064 74.2473 11.3298 74.024 12.9179C73.4881 16.094 73.0057 20.373 72.7199 24.6814C72.4966 28.9898 72.4876 33.3277 72.6484 36.592C72.6752 37.1288 72.702 37.6287 72.7288 38.0993C71.9785 40.1946 71.1746 42.143 70.4421 43.6796C69.4774 45.7382 68.7628 47.0763 68.7628 47.0763C68.7628 47.0763 68.0393 48.4218 66.8602 50.3628C65.69 52.3111 63.9482 54.8256 62.0813 57.2224C62.0099 57.3033 61.9473 57.3841 61.8759 57.4724C63.1264 50.7671 63.7874 44.7383 63.7874 44.7383C63.7874 44.7383 64.6718 37.0479 64.7968 29.4016C64.9755 21.7479 64.4127 14.1751 64.4127 14.1751C64.4127 14.1751 62.8674 21.6597 60.6164 28.9531C58.4101 36.2612 55.5338 43.334 55.5338 43.334C55.5338 43.334 54.1493 46.7896 52.1306 51.1862C51.5321 48.9144 51.0408 46.7308 50.7282 44.9442C50.4424 43.6061 50.3352 42.4738 50.1922 41.6872C50.0761 40.8931 50.0047 40.4446 50.0047 40.4446C50.0047 40.4446 49.96 39.9888 49.8707 39.2021C49.7992 38.4081 49.6206 37.2684 49.558 35.9009C49.3347 33.1659 49.2543 29.4898 49.3883 25.7916C49.5848 22.1008 49.9868 18.3879 50.4691 15.6088C50.6657 14.2119 50.9515 13.0649 51.1034 12.2562C51.2641 11.4474 51.3624 10.9769 51.3624 10.9769C51.3624 10.9769 51.1391 11.4107 50.755 12.1679C50.3888 12.9326 49.7813 14.006 49.2007 15.3367C47.9413 17.9762 46.4942 21.5788 45.2258 25.2623C44.0289 28.9531 43.0374 32.7174 42.4657 35.5701C42.1352 36.9964 41.9833 38.1948 41.8136 39.033C41.6707 39.8711 41.5814 40.3564 41.5814 40.3564C41.5814 40.3564 41.5188 40.8416 41.4027 41.6798C41.3134 42.5253 41.0901 43.7311 40.9829 45.1868C40.6703 48.0983 40.5005 52.0097 40.5541 55.9578C40.5988 57.568 40.6881 59.1781 40.8042 60.7221C40.7775 60.6265 40.7417 60.5309 40.7149 60.4427C38.6605 54.1418 36.9276 47.738 36.9276 47.738C36.9276 47.738 35.1768 41.3416 33.7476 34.8569C32.3005 28.3796 31.184 21.8141 31.184 21.8141C31.184 21.8141 30.1925 28.3869 29.5404 35.026C28.8705 41.6577 28.5311 48.3483 28.5311 48.3483C28.5311 48.3483 28.1827 55.0314 28.1738 61.7661C28.1738 63.2807 28.1738 64.7878 28.2006 66.2289H27.8611L27.2359 43.4076L26.4855 15.447L18.8572 42.7017L13.8372 60.6926C13.9354 59.9942 14.0248 59.281 14.1141 58.5752C15.1056 50.9656 15.6862 43.3708 15.6862 43.3708C15.6862 43.3708 16.2847 35.7686 16.4722 28.1958C16.6866 20.6157 16.4812 13.0796 16.4812 13.0796C16.4812 13.0796 14.5786 20.4613 12.3008 27.7253C10.0409 35.004 7.39688 42.143 7.39688 42.143C7.39688 42.143 4.77967 49.2967 1.7873 56.3107C1.26029 57.5533 0.724335 58.7958 0.197323 59.9942C0.527821 55.2814 0.608219 51.4362 0.608219 51.4362C0.608219 51.4362 0.777931 45.0545 0.456364 38.7315C0.161594 32.4013 -0.606594 26.1592 -0.606594 26.1592C-0.606594 26.1592 -1.94646 32.3425 -3.73295 38.3933C-5.50158 44.4516 -7.70789 50.3554 -7.70789 50.3554C-7.70789 50.3554 -8.48501 52.4582 -9.6641 55.3696L-11.5042 47.7307L-17.748 21.792L-19.9096 48.1718L-20.5349 55.774C-23.4647 52.0097 -25.6443 49.0982 -25.6443 49.0982C-25.6443 49.0982 -30.2355 42.9811 -34.5678 36.695C-38.9179 30.4235 -43 23.9903 -43 23.9903C-43 23.9903 -40.8919 31.0338 -38.4534 38.0331C-36.0416 45.0398 -33.2994 51.995 -33.2994 51.995L-33.2368 51.9803Z" fill="#2F7F2B"/>
</svg>
