<svg width="146" height="164" viewBox="0 0 146 164" fill="none" xmlns="http://www.w3.org/2000/svg">
<g id="Frame">
<path id="Vector" d="M109.25 86.25H97.75V40.25H103.5C109.6 40.25 115.45 42.6732 119.763 46.9865C124.077 51.2999 126.5 57.15 126.5 63.25C126.5 64.775 127.106 66.2375 128.184 67.3159C129.262 68.3942 130.725 69 132.25 69C133.775 69 135.238 68.3942 136.316 67.3159C137.394 66.2375 138 64.775 138 63.25C137.99 54.103 134.353 45.3333 127.885 38.8653C121.417 32.3974 112.647 28.7595 103.5 28.75H97.75V17.25C97.75 15.725 97.1442 14.2625 96.0659 13.1841C94.9875 12.1058 93.525 11.5 92 11.5C90.475 11.5 89.0125 12.1058 87.9341 13.1841C86.8558 14.2625 86.25 15.725 86.25 17.25V28.75H80.5C71.35 28.75 62.5748 32.3848 56.1048 38.8548C49.6348 45.3248 46 54.1 46 63.25C46 72.4 49.6348 81.1752 56.1048 87.6452C62.5748 94.1152 71.35 97.75 80.5 97.75H86.25V143.75H74.75C68.65 143.75 62.7999 141.327 58.4865 137.013C54.1732 132.7 51.75 126.85 51.75 120.75C51.75 119.225 51.1442 117.762 50.0659 116.684C48.9875 115.606 47.525 115 46 115C44.475 115 43.0125 115.606 41.9341 116.684C40.8558 117.762 40.25 119.225 40.25 120.75C40.2595 129.897 43.8974 138.667 50.3653 145.135C56.8333 151.603 65.603 155.24 74.75 155.25H86.25V166.75C86.25 168.275 86.8558 169.738 87.9341 170.816C89.0125 171.894 90.475 172.5 92 172.5C93.525 172.5 94.9875 171.894 96.0659 170.816C97.1442 169.738 97.75 168.275 97.75 166.75V155.25H109.25C118.4 155.25 127.175 151.615 133.645 145.145C140.115 138.675 143.75 129.9 143.75 120.75C143.75 111.6 140.115 102.825 133.645 96.3548C127.175 89.8848 118.4 86.25 109.25 86.25ZM80.5 86.25C74.4 86.25 68.5499 83.8268 64.2365 79.5135C59.9232 75.2001 57.5 69.35 57.5 63.25C57.5 57.15 59.9232 51.2999 64.2365 46.9865C68.5499 42.6732 74.4 40.25 80.5 40.25H86.25V86.25H80.5ZM109.25 143.75H97.75V97.75H109.25C115.35 97.75 121.2 100.173 125.513 104.487C129.827 108.8 132.25 114.65 132.25 120.75C132.25 126.85 129.827 132.7 125.513 137.013C121.2 141.327 115.35 143.75 109.25 143.75Z" fill="#F8FFF4"/>
</g>
</svg>
