<svg width="291" height="309" viewBox="0 0 291 309" fill="none" xmlns="http://www.w3.org/2000/svg">
<path d="M76.6433 106.152C76.5966 106.164 76.5479 106.168 76.4979 106.161C76.2775 106.135 76.121 105.934 76.1472 105.714C76.1965 105.304 76.2516 104.89 76.3084 104.483C76.3389 104.263 76.5424 104.112 76.7621 104.141C76.9822 104.171 77.1352 104.374 77.1047 104.594C77.048 104.996 76.9945 105.405 76.9452 105.809C76.9241 105.978 76.8001 106.111 76.6443 106.15L76.6433 106.152ZM162.48 84.3479C162.472 84.3499 162.465 84.3518 162.456 84.3541C161.914 84.4552 161.357 84.5353 160.801 84.5946C160.58 84.6181 160.383 84.4579 160.359 84.2377C160.336 84.0174 160.495 83.8204 160.717 83.7966C161.252 83.7399 161.788 83.6621 162.309 83.5648C162.527 83.5242 162.737 83.6688 162.777 83.8861C162.816 84.0957 162.684 84.2982 162.481 84.3492L162.48 84.3479ZM166.412 83.1969C166.221 83.2447 166.018 83.1465 165.942 82.9587C165.859 82.7534 165.958 82.5191 166.163 82.4359C166.654 82.2371 167.148 82.0143 167.63 81.775C167.829 81.6769 168.07 81.7573 168.168 81.9561C168.266 82.1549 168.186 82.3957 167.987 82.4938C167.486 82.7419 166.974 82.9734 166.463 83.18C166.445 83.1872 166.427 83.193 166.409 83.1975L166.412 83.1969ZM156.76 84.6465C156.72 84.6566 156.678 84.6602 156.634 84.6573C156.089 84.6186 155.531 84.5611 154.977 84.4874C154.758 84.4583 154.603 84.2556 154.632 84.036C154.662 83.8163 154.863 83.6625 155.084 83.6912C155.623 83.7633 156.163 83.8182 156.692 83.8556C156.912 83.872 157.079 84.0634 157.064 84.2837C157.051 84.4605 156.924 84.6039 156.761 84.6449L156.76 84.6465ZM171.4 80.3817C171.247 80.4201 171.079 80.3657 170.98 80.2304C170.848 80.0524 170.886 79.8003 171.064 79.6688C171.492 79.3536 171.919 79.0163 172.333 78.6686C172.503 78.5268 172.757 78.5474 172.898 78.7173C173.042 78.8869 173.02 79.1407 172.85 79.2825C172.423 79.6415 171.983 79.9889 171.541 80.3148C171.497 80.3463 171.449 80.3694 171.4 80.3817ZM151.11 83.6617C151.045 83.6779 150.976 83.6786 150.908 83.6598C150.383 83.5183 149.848 83.3599 149.317 83.1895C149.105 83.1225 148.989 82.8964 149.057 82.6852C149.124 82.4739 149.35 82.358 149.561 82.425C150.08 82.5916 150.605 82.7457 151.118 82.8847C151.333 82.9426 151.458 83.1635 151.4 83.3767C151.361 83.5217 151.246 83.6275 151.11 83.6617ZM195.022 71.9463C194.808 71.9999 194.589 71.8699 194.535 71.6545C194.481 71.4391 194.611 71.2217 194.827 71.1678C195.346 71.0377 195.873 70.8921 196.393 70.7384C196.604 70.676 196.828 70.7963 196.891 71.0094C196.954 71.2225 196.834 71.4458 196.62 71.5088C196.089 71.6668 195.552 71.8137 195.022 71.9476L195.022 71.9463ZM190.997 72.7278C190.982 72.7314 190.968 72.735 190.953 72.736C190.629 72.7799 190.298 72.82 189.971 72.8549C189.748 72.879 189.525 72.9005 189.302 72.9191C189.08 72.9387 188.886 72.7736 188.868 72.5533C188.848 72.3321 189.012 72.138 189.234 72.1197C189.452 72.1011 189.668 72.0799 189.886 72.0571C190.206 72.0226 190.528 71.9848 190.845 71.9412C191.065 71.9109 191.267 72.0659 191.297 72.2845C191.324 72.4886 191.193 72.6787 190.997 72.7278ZM175.624 76.5018C175.499 76.533 175.362 76.5039 175.259 76.4124C175.094 76.2649 175.079 76.0109 175.226 75.8457C175.58 75.4468 175.931 75.0307 176.27 74.6068C176.408 74.4329 176.661 74.4042 176.835 74.5427C177.009 74.6811 177.037 74.9332 176.899 75.1071C176.552 75.5414 176.191 75.9695 175.828 76.3791C175.771 76.4414 175.7 76.4826 175.625 76.5015L175.624 76.5018ZM200.478 70.1613C200.286 70.2094 200.084 70.1096 200.008 69.9218C199.926 69.7161 200.026 69.4828 200.232 69.3996C200.727 69.2012 201.232 68.9894 201.733 68.7702C201.937 68.6818 202.172 68.7732 202.262 68.9769C202.351 69.1793 202.259 69.4162 202.056 69.5055C201.547 69.7296 201.033 69.9449 200.53 70.1454C200.513 70.1525 200.496 70.158 200.478 70.1626L200.478 70.1613ZM77.5053 100.892C77.4482 100.907 77.3878 100.908 77.3268 100.896C77.1099 100.851 76.97 100.639 77.0148 100.421C77.1267 99.8812 77.2477 99.3393 77.3729 98.8088C77.4238 98.5934 77.64 98.4593 77.8559 98.5114C78.0714 98.5623 78.2055 98.7783 78.1533 98.994C78.0291 99.5174 77.9103 100.052 77.8007 100.584C77.7679 100.74 77.6495 100.856 77.5053 100.892ZM185.267 72.9956C185.231 73.0047 185.192 73.009 185.153 73.0077C184.603 72.9839 184.045 72.9472 183.495 72.8959C183.275 72.8753 183.111 72.6803 183.132 72.46C183.153 72.2397 183.348 72.0765 183.568 72.0971C184.105 72.1462 184.65 72.1836 185.186 72.205C185.408 72.2143 185.581 72.4014 185.571 72.623C185.563 72.8044 185.436 72.9534 185.267 72.9956ZM205.686 67.7405C205.511 67.7844 205.321 67.705 205.234 67.5379C205.131 67.3417 205.206 67.0997 205.402 66.9954C205.871 66.7483 206.354 66.4869 206.835 66.2174C207.029 66.1096 207.274 66.1779 207.382 66.3716C207.489 66.5652 207.421 66.8099 207.227 66.9177C206.739 67.1901 206.251 67.4557 205.776 67.7057C205.746 67.7213 205.716 67.733 205.686 67.7405ZM145.698 81.7595C145.616 81.78 145.527 81.7749 145.443 81.7392C144.948 81.5283 144.44 81.3011 143.932 81.0655C143.731 80.9724 143.643 80.7337 143.737 80.5325C143.83 80.3313 144.069 80.2439 144.27 80.337C144.77 80.569 145.269 80.7913 145.758 81C145.962 81.0869 146.056 81.3224 145.969 81.5261C145.918 81.6465 145.815 81.729 145.698 81.7582L145.698 81.7595ZM210.655 64.8585C210.492 64.8994 210.312 64.834 210.218 64.6825C210.1 64.4941 210.156 64.2472 210.344 64.1296C210.793 63.8478 211.255 63.5514 211.72 63.2475C211.906 63.1264 212.155 63.1785 212.276 63.3634C212.397 63.5483 212.345 63.7971 212.16 63.9192C211.692 64.2254 211.224 64.5244 210.772 64.8085C210.735 64.8315 210.697 64.8481 210.656 64.8582L210.655 64.8585ZM179.576 72.2596C179.517 72.2743 179.456 72.2759 179.393 72.2626C178.855 72.1451 178.311 72.0137 177.78 71.8696C177.565 71.8116 177.438 71.5923 177.497 71.3779C177.555 71.1634 177.774 71.0367 177.989 71.0947C178.193 71.1498 178.399 71.2029 178.605 71.2547C178.878 70.8046 179.143 70.3438 179.394 69.881C179.5 69.6863 179.744 69.6142 179.939 69.7198C180.134 69.8255 180.206 70.0694 180.1 70.2642C179.885 70.6614 179.659 71.0586 179.426 71.4477C179.472 71.4583 179.518 71.4674 179.564 71.4781C179.781 71.5257 179.918 71.7397 179.871 71.9555C179.838 72.1099 179.719 72.2239 179.576 72.2596ZM215.43 61.6664C215.273 61.7057 215.103 61.6478 215.005 61.5083C214.876 61.3267 214.92 61.0772 215.102 60.9489C215.549 60.6344 215.994 60.3175 216.436 60C216.616 59.8695 216.866 59.9116 216.997 60.0912C217.126 60.2712 217.085 60.5214 216.905 60.6519C216.461 60.9713 216.014 61.2901 215.565 61.6067C215.524 61.6362 215.478 61.656 215.431 61.6677L215.43 61.6664ZM78.9568 95.3416C78.8867 95.3591 78.812 95.3585 78.7371 95.3345C78.5257 95.2675 78.4098 95.0414 78.477 94.8302C78.6457 94.3026 78.8232 93.7769 79.0068 93.2649C79.0814 93.0559 79.3109 92.9474 79.52 93.022C79.7291 93.0965 79.8375 93.3258 79.7629 93.5348C79.5828 94.039 79.4076 94.5572 79.2421 95.0757C79.198 95.2136 79.087 95.3104 78.9572 95.3429L78.9568 95.3416ZM140.538 79.2402C140.444 79.2636 140.341 79.2536 140.25 79.2034C139.79 78.9557 139.318 78.6961 138.807 78.4118C138.613 78.3045 138.544 78.0599 138.652 77.8659C138.76 77.6721 139.004 77.6026 139.199 77.7112C139.707 77.9948 140.175 78.2512 140.632 78.4982C140.827 78.6039 140.9 78.8462 140.794 79.0422C140.739 79.1457 140.644 79.2149 140.538 79.2415L140.538 79.2402ZM174.095 70.5665C174.016 70.5863 173.929 70.5818 173.846 70.5487C173.335 70.3417 172.823 70.1197 172.323 69.8876C172.122 69.7946 172.035 69.5559 172.128 69.3547C172.221 69.1535 172.46 69.0661 172.661 69.1591C173.15 69.3857 173.65 69.6025 174.148 69.8044C174.354 69.888 174.453 70.1212 174.37 70.3266C174.32 70.4509 174.215 70.5349 174.095 70.5652L174.095 70.5665ZM220.075 58.2837C219.923 58.3217 219.756 58.2686 219.656 58.1349C219.523 57.9572 219.559 57.7054 219.737 57.5727C220.174 57.2454 220.611 56.9182 221.047 56.5884C221.225 56.4543 221.476 56.4892 221.61 56.6653C221.744 56.8414 221.709 57.0942 221.533 57.2279C221.097 57.559 220.658 57.8882 220.22 58.2158C220.176 58.2489 220.127 58.2706 220.077 58.2833L220.075 58.2837ZM181.587 66.7508C181.508 66.7707 181.423 66.7671 181.34 66.7341C181.135 66.6518 181.034 66.4176 181.117 66.2122C181.317 65.7154 181.508 65.2043 181.686 64.6936C181.759 64.4849 181.988 64.3739 182.197 64.4471C182.406 64.5203 182.517 64.749 182.443 64.9576C182.261 65.4804 182.065 66.0025 181.861 66.5113C181.811 66.6356 181.707 66.7209 181.586 66.7512L181.587 66.7508ZM224.639 54.7958C224.489 54.8332 224.325 54.7833 224.225 54.6539C224.089 54.4798 224.118 54.227 224.294 54.0907C224.724 53.754 225.153 53.4164 225.581 53.0775C225.755 52.9402 226.008 52.9693 226.146 53.1431C226.283 53.3169 226.254 53.5697 226.08 53.707C225.65 54.0475 225.22 54.3855 224.787 54.7227C224.741 54.7591 224.691 54.7828 224.637 54.7961L224.639 54.7958ZM135.535 76.4207C135.438 76.4451 135.331 76.4332 135.238 76.3794C134.764 76.1064 134.29 75.8348 133.815 75.5635C133.622 75.4532 133.555 75.208 133.666 75.0162C133.776 74.8231 134.022 74.7575 134.213 74.8667C134.688 75.138 135.163 75.4107 135.637 75.6836C135.829 75.7941 135.896 76.0394 135.786 76.2312C135.729 76.3295 135.638 76.3951 135.535 76.4207ZM81.0267 89.9904C80.941 90.0119 80.8482 90.0048 80.7612 89.9659C80.5599 89.8729 80.4713 89.6345 80.5644 89.4333C80.7951 88.9329 81.0379 88.4309 81.2855 87.9428C81.3864 87.7452 81.6273 87.6656 81.825 87.7664C82.0224 87.8659 82.1022 88.1079 82.0013 88.3055C81.7583 88.7842 81.5201 89.2768 81.2939 89.7677C81.2413 89.8829 81.1407 89.9605 81.0264 89.9891L81.0267 89.9904ZM168.984 67.9602C168.882 67.9859 168.77 67.971 168.674 67.911C168.205 67.6176 167.739 67.308 167.289 66.9932C167.109 66.8661 167.064 66.6154 167.191 66.4346C167.318 66.2538 167.569 66.2089 167.75 66.336C168.189 66.644 168.643 66.9452 169.1 67.2308C169.288 67.3478 169.344 67.5957 169.227 67.7836C169.17 67.8751 169.082 67.9358 168.984 67.9602ZM229.125 51.21C228.978 51.2468 228.819 51.1985 228.716 51.0753C228.575 50.9037 228.601 50.6503 228.773 50.5107C229.196 50.165 229.618 49.818 230.039 49.47C230.21 49.3278 230.463 49.3527 230.604 49.5229C230.745 49.6932 230.721 49.9472 230.551 50.0878C230.129 50.4374 229.706 50.7847 229.282 51.1321C229.235 51.1701 229.181 51.1973 229.125 51.2113L229.125 51.21ZM183.295 61.2766C183.235 61.2915 183.172 61.2935 183.108 61.278C182.891 61.2288 182.756 61.0144 182.805 60.798C182.925 60.273 183.036 59.7393 183.132 59.2091C183.171 58.9911 183.381 58.8463 183.599 58.8867C183.817 58.9259 183.962 59.135 183.922 59.3534C183.823 59.8952 183.71 60.442 183.587 60.9773C183.552 61.1295 183.435 61.2415 183.292 61.2772L183.295 61.2766ZM130.525 73.6142C130.431 73.6376 130.329 73.6273 130.238 73.5784C129.743 73.3135 129.256 73.0604 128.79 72.8241C128.592 72.7233 128.514 72.4823 128.613 72.285C128.714 72.0874 128.955 72.0091 129.153 72.1086C129.622 72.3468 130.115 72.6025 130.616 72.8703C130.811 72.9743 130.885 73.2179 130.781 73.4136C130.725 73.5171 130.63 73.5879 130.523 73.6146L130.525 73.6142ZM233.532 47.5269C233.389 47.5627 233.232 47.518 233.129 47.399C232.984 47.231 233.005 46.9776 233.173 46.8335C233.588 46.4787 234.003 46.1226 234.415 45.7655C234.583 45.6201 234.836 45.6381 234.982 45.8058C235.127 45.9735 235.108 46.2265 234.941 46.3716C234.527 46.7303 234.112 47.0867 233.694 47.4435C233.645 47.4847 233.589 47.5139 233.532 47.5282L233.532 47.5269ZM83.7749 84.9562C83.671 84.9823 83.5567 84.9667 83.46 84.9055C83.2726 84.7855 83.2187 84.537 83.3391 84.3511C83.638 83.886 83.9486 83.4236 84.2644 82.9764C84.3916 82.7956 84.6429 82.752 84.8237 82.8791C85.0045 83.0062 85.0481 83.2573 84.9209 83.438C84.6122 83.8752 84.3078 84.3292 84.0147 84.7845C83.957 84.8734 83.8696 84.9325 83.7736 84.9566L83.7749 84.9562ZM164.426 64.4822C164.298 64.5141 164.158 64.483 164.055 64.3873C163.648 64.0109 163.248 63.6201 162.866 63.2248C162.712 63.065 162.716 62.8116 162.876 62.6571C163.034 62.5029 163.29 62.508 163.444 62.6665C163.816 63.0505 164.205 63.4315 164.6 63.7973C164.764 63.9481 164.773 64.2021 164.622 64.364C164.567 64.4234 164.498 64.4627 164.425 64.4809L164.426 64.4822ZM237.858 43.7495C237.718 43.7846 237.564 43.7432 237.461 43.6271C237.313 43.4613 237.327 43.2083 237.493 43.0606C237.9 42.6967 238.307 42.3315 238.712 41.9654C238.877 41.8164 239.13 41.8302 239.279 41.9943C239.428 42.1584 239.415 42.4124 239.25 42.5614C238.844 42.9292 238.436 43.2947 238.028 43.6589C237.978 43.7031 237.919 43.7329 237.858 43.7482L237.858 43.7495ZM125.352 71.1228C125.27 71.1433 125.182 71.1378 125.098 71.1035C124.591 70.8899 124.082 70.6877 123.589 70.5011C123.381 70.4233 123.277 70.1917 123.356 69.9844C123.434 69.7774 123.665 69.6725 123.873 69.7515C124.376 69.9414 124.893 70.1485 125.41 70.3649C125.615 70.4502 125.71 70.687 125.625 70.8904C125.574 71.0121 125.47 71.0946 125.352 71.1241L125.352 71.1228ZM87.231 80.3805C87.1064 80.4117 86.9694 80.3826 86.8668 80.2924C86.7002 80.1452 86.6853 79.8925 86.8326 79.726C87.1997 79.3128 87.5788 78.9035 87.9605 78.5101C88.1153 78.3514 88.3695 78.3471 88.5283 78.5017C88.687 78.6564 88.6913 78.9104 88.5365 79.0692C88.1635 79.4535 87.7916 79.8527 87.4336 80.2581C87.3778 80.3217 87.3067 80.3629 87.2314 80.3818L87.231 80.3805ZM184.142 55.6029C184.101 55.613 184.058 55.6169 184.015 55.614C183.794 55.5976 183.627 55.4062 183.644 55.1843C183.683 54.6477 183.711 54.103 183.727 53.5641C183.733 53.3431 183.917 53.1688 184.14 53.1752C184.361 53.1819 184.535 53.3671 184.529 53.588C184.512 54.1383 184.484 54.6953 184.444 55.2433C184.43 55.4204 184.304 55.5623 184.14 55.6032L184.142 55.6029ZM242.101 39.8774C241.963 39.9118 241.812 39.8723 241.709 39.7617C241.558 39.5996 241.566 39.3452 241.728 39.1943C242.127 38.8213 242.525 38.4487 242.923 38.0735C243.083 37.9203 243.337 37.9283 243.49 38.0901C243.642 38.2519 243.635 38.5046 243.473 38.6569C243.074 39.0324 242.676 39.408 242.275 39.7812C242.224 39.8286 242.163 39.8618 242.099 39.8777L242.101 39.8774ZM160.62 60.1938C160.465 60.2325 160.296 60.1771 160.196 60.0393C159.872 59.591 159.557 59.1292 159.26 58.6644C159.14 58.478 159.195 58.2297 159.382 58.1099C159.57 57.9898 159.817 58.0452 159.937 58.2317C160.227 58.6831 160.532 59.1333 160.848 59.5685C160.979 59.7482 160.938 59.9996 160.758 60.1288C160.715 60.1603 160.669 60.1814 160.621 60.1935L160.62 60.1938ZM119.903 69.332C119.844 69.3466 119.783 69.3483 119.72 69.335C119.201 69.2224 118.665 69.122 118.129 69.0383C117.91 69.0037 117.76 68.7984 117.795 68.58C117.83 68.3616 118.036 68.211 118.254 68.246C118.806 68.3326 119.355 68.4349 119.89 68.5521C120.107 68.5984 120.243 68.8124 120.197 69.0295C120.164 69.1839 120.045 69.2979 119.902 69.3336L119.903 69.332ZM91.3716 76.4111C91.2249 76.4478 91.0639 76.3999 90.9623 76.275C90.8226 76.1031 90.8489 75.8497 91.0209 75.7101C91.4487 75.3631 91.8905 75.0223 92.3345 74.696C92.5127 74.5645 92.7653 74.6033 92.8955 74.7817C93.0257 74.9601 92.9881 75.2122 92.8095 75.3424C92.3759 75.6605 91.9448 75.9945 91.5261 76.3338C91.4791 76.3718 91.4262 76.3974 91.3703 76.4114L91.3716 76.4111ZM246.258 35.9147C246.124 35.9482 245.976 35.9123 245.873 35.8056C245.719 35.647 245.722 35.3927 245.88 35.2385C246.272 34.8577 246.662 34.4747 247.051 34.0921C247.209 33.9366 247.463 33.9378 247.619 34.096C247.774 34.2542 247.773 34.5083 247.615 34.6638C247.225 35.0481 246.834 35.4314 246.441 35.8138C246.388 35.8657 246.325 35.8995 246.258 35.916L246.258 35.9147ZM114.207 68.6635C114.172 68.6723 114.135 68.6758 114.098 68.6755C113.562 68.6622 113.017 68.6608 112.476 68.6734C112.254 68.678 112.071 68.5033 112.066 68.281C112.061 68.0588 112.236 67.8757 112.459 67.8711C113.012 67.8582 113.571 67.8589 114.119 67.8732C114.341 67.8783 114.516 68.0635 114.51 68.2841C114.506 68.4687 114.377 68.6209 114.207 68.6635ZM96.1129 73.182C95.9415 73.2249 95.7574 73.151 95.6662 72.9905C95.5571 72.7972 95.6255 72.5525 95.8177 72.4438C96.2965 72.1736 96.7879 71.9099 97.2819 71.6622C97.4793 71.5631 97.7211 71.6418 97.8218 71.84C97.9212 72.0385 97.842 72.279 97.6437 72.3796C97.1623 72.6229 96.6803 72.88 96.2135 73.143C96.1807 73.1609 96.147 73.1749 96.1132 73.1833L96.1129 73.182ZM108.478 68.9971C108.464 69.0007 108.451 69.004 108.436 69.005C107.903 69.0805 107.365 69.1696 106.836 69.2692C106.618 69.3098 106.407 69.1668 106.366 68.9495C106.326 68.7321 106.47 68.5238 106.686 68.4805C107.228 68.3781 107.779 68.287 108.324 68.2098C108.544 68.1783 108.746 68.3316 108.778 68.5512C108.807 68.7563 108.676 68.9477 108.478 68.9971ZM101.324 70.7827C101.127 70.8321 100.92 70.7251 100.85 70.5305C100.774 70.3219 100.882 70.0922 101.089 70.0168C101.608 69.8277 102.136 69.65 102.662 69.4853C102.874 69.4213 103.099 69.5373 103.165 69.7481C103.232 69.959 103.113 70.1845 102.902 70.2511C102.389 70.4113 101.871 70.5864 101.365 70.7697C101.351 70.7745 101.338 70.7791 101.325 70.7823L101.324 70.7827ZM184.128 49.866C184.106 49.8716 184.085 49.8755 184.062 49.8771C183.841 49.8938 183.648 49.7284 183.63 49.5081C183.588 48.9712 183.535 48.4288 183.47 47.8935C183.444 47.6739 183.601 47.4746 183.821 47.4473C184.04 47.4212 184.241 47.5778 184.267 47.7974C184.333 48.3434 184.388 48.8991 184.43 49.4471C184.445 49.6446 184.314 49.8209 184.128 49.8673L184.128 49.866ZM157.727 55.2454C157.544 55.2912 157.348 55.2024 157.266 55.0243C157.034 54.5239 156.813 54.0097 156.609 53.4982C156.527 53.2926 156.628 53.0593 156.833 52.9774C157.041 52.8965 157.273 52.9957 157.354 53.2013C157.552 53.7005 157.767 54.201 157.993 54.6879C158.086 54.8893 157.998 55.1278 157.797 55.221C157.773 55.2324 157.749 55.2399 157.725 55.2457L157.727 55.2454ZM250.328 31.8623C250.197 31.8951 250.052 31.8611 249.949 31.76C249.791 31.6053 249.789 31.3506 249.944 31.1932C250.327 30.8037 250.708 30.4132 251.089 30.0215C251.243 29.8627 251.498 29.8584 251.656 30.0131C251.815 30.1678 251.819 30.4218 251.665 30.5805C251.283 30.9739 250.901 31.366 250.517 31.7558C250.463 31.8107 250.397 31.8464 250.329 31.8636L250.328 31.8623ZM254.307 27.721C254.179 27.7532 254.038 27.7208 253.934 27.6242C253.772 27.4731 253.765 27.2184 253.916 27.0564C254.289 26.6582 254.663 26.26 255.035 25.8594C255.186 25.6975 255.44 25.6876 255.602 25.8387C255.764 25.9898 255.774 26.2438 255.623 26.4058C255.25 26.8067 254.875 27.2078 254.501 27.6064C254.446 27.6642 254.379 27.7031 254.306 27.7213L254.307 27.721ZM183.254 44.1984C183.254 44.1984 183.249 44.1997 183.248 44.2C183.031 44.2501 182.816 44.1165 182.766 43.9001C182.719 43.6954 182.669 43.4901 182.618 43.2864C182.538 42.9672 182.453 42.6451 182.364 42.3281C182.305 42.114 182.429 41.8927 182.643 41.8336C182.859 41.7699 183.077 41.8986 183.138 42.1123C183.228 42.4358 183.315 42.7644 183.397 43.0913C183.449 43.3003 183.5 43.5095 183.548 43.7194C183.598 43.9331 183.466 44.1467 183.255 44.1997L183.254 44.1984ZM155.821 49.8387C155.606 49.8927 155.388 49.7624 155.334 49.547C155.201 49.0124 155.079 48.4664 154.974 47.9247C154.932 47.7063 155.078 47.4961 155.292 47.4534C155.509 47.4115 155.72 47.5532 155.763 47.7712C155.866 48.2983 155.984 48.83 156.115 49.3516C156.169 49.567 156.038 49.7844 155.823 49.8384L155.821 49.8387ZM258.194 23.4925C258.069 23.5237 257.931 23.4949 257.828 23.4022C257.662 23.2546 257.65 23 257.797 22.8348C258.162 22.429 258.527 22.022 258.889 21.6128C259.037 21.4476 259.291 21.4322 259.456 21.5784C259.623 21.7256 259.636 21.9787 259.49 22.1449C259.126 22.5545 258.762 22.9628 258.395 23.3704C258.34 23.4324 258.269 23.4724 258.195 23.4909L258.194 23.4925ZM261.986 19.18C261.864 19.2106 261.729 19.1837 261.627 19.0949C261.458 18.9509 261.439 18.6965 261.585 18.5291C261.94 18.1146 262.296 17.7001 262.649 17.2837C262.793 17.1153 263.045 17.0934 263.215 17.2371C263.385 17.3807 263.405 17.6334 263.262 17.8032C262.907 18.2202 262.551 18.6373 262.194 19.0521C262.138 19.1173 262.066 19.1602 261.988 19.1797L261.986 19.18ZM181.53 38.7284C181.339 38.7761 181.137 38.6766 181.061 38.4888C180.858 37.988 180.643 37.4862 180.421 36.9984C180.329 36.7966 180.419 36.5591 180.62 36.4659C180.821 36.3743 181.06 36.4621 181.153 36.6648C181.38 37.1637 181.601 37.6752 181.808 38.1887C181.891 38.394 181.791 38.6286 181.585 38.7105C181.568 38.7176 181.55 38.7235 181.532 38.728L181.53 38.7284ZM154.956 44.1717C154.931 44.1779 154.907 44.1811 154.882 44.1834C154.66 44.1962 154.47 44.0272 154.457 43.8056C154.425 43.2538 154.408 42.6955 154.406 42.1446C154.405 41.9227 154.584 41.7416 154.806 41.7411C155.028 41.7407 155.207 41.9191 155.209 42.1406C155.211 42.6766 155.228 43.221 155.259 43.7579C155.271 43.9535 155.14 44.1242 154.957 44.1701L154.956 44.1717ZM178.971 33.5958C178.804 33.6374 178.623 33.5684 178.529 33.414C178.249 32.9519 177.956 32.4916 177.658 32.0463C177.535 31.8621 177.584 31.6126 177.768 31.4892C177.953 31.3659 178.202 31.4151 178.326 31.5993C178.631 32.0537 178.931 32.5246 179.217 32.9991C179.332 33.1882 179.271 33.4351 179.081 33.5504C179.046 33.5715 179.008 33.5864 178.971 33.5958ZM155.169 38.4428C155.121 38.4549 155.07 38.4581 155.018 38.4517C154.799 38.4226 154.644 38.2199 154.674 38.0002C154.747 37.4522 154.837 36.9003 154.942 36.3598C154.984 36.1424 155.194 36.0002 155.412 36.0406C155.63 36.0827 155.772 36.2926 155.732 36.5109C155.63 37.0369 155.542 37.5745 155.47 38.1069C155.447 38.274 155.324 38.4041 155.169 38.4428ZM175.583 28.9698C175.444 29.0046 175.291 28.9641 175.189 28.8519C174.82 28.4491 174.44 28.0632 174.058 27.7079C173.896 27.5567 173.886 27.3027 174.038 27.1408C174.189 26.9788 174.443 26.9689 174.605 27.12C175.003 27.4907 175.398 27.8908 175.782 28.3092C175.932 28.4729 175.919 28.727 175.757 28.8766C175.706 28.9237 175.646 28.9539 175.584 28.9695L175.583 28.9698ZM156.518 32.8737C156.442 32.8929 156.359 32.89 156.279 32.8605C156.072 32.7827 155.967 32.5511 156.045 32.3441C156.243 31.8188 156.464 31.3002 156.7 30.8041C156.794 30.6039 157.034 30.5191 157.234 30.6137C157.435 30.7083 157.519 30.9477 157.425 31.1479C157.197 31.624 156.986 32.1224 156.796 32.6263C156.748 32.7542 156.64 32.8431 156.517 32.874L156.518 32.8737ZM171.114 25.4058C171.022 25.4289 170.921 25.4195 170.83 25.3722C170.35 25.1213 169.863 24.9081 169.382 24.739C169.174 24.6658 169.063 24.4371 169.137 24.2268C169.21 24.0182 169.439 23.9071 169.649 23.9813C170.167 24.1634 170.691 24.3922 171.205 24.6619C171.402 24.7643 171.477 25.0076 171.374 25.2042C171.319 25.309 171.223 25.3798 171.116 25.4068L171.114 25.4058ZM159.35 27.9053C159.23 27.9356 159.097 27.9093 158.995 27.8234C158.825 27.6811 158.802 27.4277 158.945 27.258C159.317 26.8146 159.71 26.4034 160.114 26.0333C160.278 25.8834 160.532 25.8943 160.682 26.0581C160.832 26.2218 160.821 26.4755 160.657 26.6255C160.278 26.9712 159.91 27.3584 159.562 27.7738C159.506 27.8417 159.431 27.8852 159.352 27.905L159.35 27.9053ZM165.576 24.2772C165.559 24.2814 165.543 24.2853 165.526 24.2869C165.487 24.2912 165.449 24.2964 165.411 24.3019C164.933 24.3664 164.459 24.474 164.002 24.6228C163.79 24.6897 163.566 24.5763 163.496 24.3648C163.428 24.1543 163.543 23.9284 163.755 23.8589C164.257 23.6958 164.779 23.5762 165.304 23.5055C165.347 23.5003 165.388 23.4941 165.431 23.4889C165.651 23.4628 165.851 23.6194 165.877 23.8391C165.902 24.0425 165.77 24.2271 165.577 24.2756L165.576 24.2772Z" fill="#383838"/>
<path d="M145.186 308.265C225.369 308.265 290.371 298.345 290.371 286.108C290.371 273.871 225.369 263.951 145.186 263.951C65.0018 263.951 0 273.871 0 286.108C0 298.345 65.0018 308.265 145.186 308.265Z" fill="#F4F2F2"/>
<path d="M80 213.999L246.793 183.519V117.473L61.3186 106.123L80 213.999Z" fill="#5AA02D"/>
<path d="M80.9299 213.885L80.9189 213.892C80.7327 213.922 80.5647 213.995 80.3858 214.046L82.5002 225.958C82.7084 225.948 82.9165 225.948 83.1247 225.907L254.006 194.621C256.909 194.088 259.017 191.565 259.017 188.614V111.73C259.017 108.501 256.5 105.828 253.279 105.627L60.5703 93.8387C60.0627 93.8095 59.5661 93.8569 59.0876 93.9482L61.2423 106.116L61.3226 106.124L246.797 117.47V183.516L80.9335 213.882L80.9299 213.885Z" fill="#2F7F2B"/>
<path d="M107.359 256.196H207.111C208.448 250.871 212.034 246.445 216.807 243.977H97.6699C102.436 246.445 106.018 250.871 107.362 256.196H107.359Z" fill="black"/>
<path d="M234.165 243.977C238.935 246.445 242.517 250.871 243.861 256.196H249.365C252.739 256.196 255.478 253.457 255.478 250.083C255.478 246.708 252.739 243.977 249.365 243.977H234.165Z" fill="black"/>
<path d="M80.382 214.046L61.2385 106.117L59.0839 93.9487L57.8459 86.9991C57.3711 84.293 55.1434 82.2406 52.4118 81.985L31.7016 80.0275C28.3382 79.7098 25.3655 82.1785 25.0442 85.5383C24.7264 88.8944 27.1915 91.8744 30.5586 92.1885L46.6381 93.7077L74.1846 248.995C76.9455 245.541 80.875 243.072 85.3815 242.203L82.4965 225.952L80.382 214.039V214.046Z" fill="black"/>
<path d="M209.653 260.823C209.653 269.562 216.738 276.654 225.477 276.654C234.216 276.654 241.319 269.562 241.319 260.823C241.319 252.084 234.231 244.988 225.477 244.988C216.723 244.988 209.653 252.08 209.653 260.823ZM233.11 260.823C233.11 265.026 229.692 268.448 225.481 268.448C221.27 268.448 217.863 265.026 217.863 260.823C217.863 256.62 221.288 253.198 225.481 253.198C229.673 253.198 233.11 256.616 233.11 260.823Z" fill="black"/>
<path d="M234.165 243.977C231.558 242.629 228.614 241.852 225.474 241.852C222.333 241.852 219.404 242.633 216.804 243.977C212.034 246.446 208.448 250.872 207.108 256.196C206.732 257.679 206.513 259.22 206.513 260.823C206.513 271.283 215.018 279.792 225.474 279.792C235.929 279.792 244.449 271.286 244.449 260.823C244.449 259.22 244.226 257.679 243.857 256.196C242.514 250.872 238.931 246.446 234.162 243.977H234.165ZM225.474 276.655C216.734 276.655 209.65 269.562 209.65 260.823C209.65 252.084 216.734 244.989 225.474 244.989C234.213 244.989 241.316 252.081 241.316 260.823C241.316 269.566 234.227 276.655 225.474 276.655Z" fill="white"/>
<path d="M217.859 260.824C217.859 265.028 221.285 268.45 225.477 268.45C229.67 268.45 233.106 265.028 233.106 260.824C233.106 256.621 229.688 253.199 225.477 253.199C221.267 253.199 217.859 256.617 217.859 260.824Z" fill="#2F7F2B"/>
<path d="M73.1548 260.823C73.1548 269.562 80.2395 276.654 88.9859 276.654C97.7323 276.654 104.817 269.562 104.817 260.823C104.817 252.084 97.7287 244.988 88.9859 244.988C80.2432 244.988 73.1548 252.08 73.1548 260.823ZM96.6112 260.823C96.6112 265.026 93.1966 268.448 88.9896 268.448C84.7825 268.448 81.3607 265.026 81.3607 260.823C81.3607 256.62 84.7825 253.198 88.9896 253.198C93.1966 253.198 96.6112 256.616 96.6112 260.823Z" fill="black"/>
<path d="M97.6703 243.977C95.0628 242.629 92.1157 241.852 88.9897 241.852C87.759 241.852 86.5502 241.983 85.3815 242.209C80.875 243.079 76.9456 245.547 74.1847 249.002C71.5809 252.245 70.0251 256.353 70.0251 260.823C70.0251 271.283 78.5305 279.792 88.9933 279.792C99.4561 279.792 107.961 271.286 107.961 260.823C107.961 259.22 107.742 257.679 107.363 256.196C106.019 250.872 102.436 246.446 97.6703 243.977ZM88.9897 276.655C80.2433 276.655 73.1585 269.562 73.1585 260.823C73.1585 252.084 80.2433 244.989 88.9897 244.989C97.736 244.989 104.821 252.081 104.821 260.823C104.821 269.566 97.7324 276.655 88.9897 276.655Z" fill="white"/>
<path d="M81.3608 260.824C81.3608 265.028 84.7827 268.45 88.9897 268.45C93.1968 268.45 96.6113 265.028 96.6113 260.824C96.6113 256.621 93.1968 253.199 88.9897 253.199C84.7827 253.199 81.3608 256.617 81.3608 260.824Z" fill="#2F7F2B"/>
<path d="M270.611 14.5048L271.7 14.3783L272.34 14.8473C272.562 15.0107 272.866 14.9754 273.017 14.7687C273.169 14.5619 273.112 14.2619 272.889 14.0986L272.083 13.5071C271.976 13.4288 271.844 13.3929 271.717 13.4078L270.337 13.5679C270.211 13.2201 270.061 12.8862 269.892 12.572L271.524 12.3436C271.647 12.3265 271.755 12.2633 271.825 12.1669L272.536 11.1988L273.692 11.0645C273.957 11.0338 274.131 10.7969 274.081 10.5352C274.031 10.2734 273.775 10.0863 273.511 10.117L272.155 10.2743C272.028 10.289 271.916 10.3532 271.843 10.4524L271.129 11.4256L269.355 11.6735C269.401 11.4484 269.419 11.2205 269.409 10.9912C269.876 11.0302 270.266 10.9108 270.487 10.6097C270.829 10.1438 270.646 9.4254 270.081 8.74371L270.467 8.6989C270.732 8.66817 270.905 8.43132 270.855 8.16953C270.805 7.90775 270.55 7.72066 270.285 7.75139L269.409 7.85297L269.243 6.98653C269.192 6.72475 268.937 6.53766 268.673 6.56839C268.408 6.59912 268.234 6.83597 268.284 7.09776L268.358 7.47949C267.538 7.1456 266.797 7.18665 266.456 7.6525C266.235 7.95362 266.238 8.36162 266.416 8.79596C266.194 8.85538 265.982 8.9405 265.781 9.05162L265.485 7.28556L266.198 6.3123C266.271 6.21309 266.299 6.0866 266.274 5.96097L266.017 4.62078C265.967 4.359 265.712 4.17191 265.447 4.20264C265.182 4.23336 265.009 4.47022 265.059 4.732L265.278 5.87586L264.568 6.844C264.498 6.94034 264.47 7.06208 264.49 7.18416L264.763 8.80993C264.412 8.74315 264.049 8.69997 263.679 8.68452L263.417 7.31998C263.393 7.19442 263.32 7.07968 263.213 7.00131L262.406 6.40988C262.184 6.24654 261.88 6.28175 261.729 6.48853C261.577 6.69531 261.634 6.99529 261.857 7.15863L262.497 7.62764L262.703 8.70493C261.258 8.8281 259.328 9.45937 258.681 10.6931C257.966 12.0585 259.023 14.0011 261.667 14.2951C260.642 16.2132 261.512 17.2697 262.156 17.7418C262.799 18.2138 264.068 18.7261 265.59 17.1728C266.658 19.5928 268.827 20.0391 269.922 18.9381C270.906 17.9494 270.926 15.9158 270.611 14.5048ZM259.556 11.1748C260.077 10.1812 262.528 9.2424 264.885 9.7959C264.244 10.6153 264.102 11.653 264.766 12.5661C264.4 12.7945 263.974 13.0406 263.603 13.16C261.015 13.9916 258.902 12.4226 259.556 11.1748ZM269.2 18.2485C268.204 19.2492 266.075 17.6977 266.091 14.9848C266.094 14.5955 266.2 14.1153 266.308 13.6975C267.351 14.047 268.304 13.6398 268.915 12.7519C270.158 14.8465 269.985 17.4601 269.2 18.2485Z" fill="#383838"/>
</svg>
