<svg width="127" height="95" viewBox="0 0 127 95" fill="none" xmlns="http://www.w3.org/2000/svg">
<path d="M124.409 15.3417L111.272 2.53459C109.631 0.911353 107.408 0 105.092 0C102.776 0 100.553 0.911353 98.912 2.53459L48.169 52.1758L48.1087 52.116L28.0524 32.9433C26.4069 31.3261 24.1835 30.4216 21.8683 30.4278C19.5532 30.4339 17.3347 31.35 15.6978 32.976L2.56046 46.0222C0.920891 47.653 0 49.8632 0 52.1676C0 54.472 0.920891 56.6822 2.56046 58.313L41.7645 97.4518C42.5778 98.2597 43.5434 98.9005 44.6061 99.3378C45.6688 99.775 46.8079 100 47.9582 100C49.1085 100 50.2476 99.775 51.3103 99.3378C52.373 98.9005 53.3386 98.2597 54.1519 97.4518L124.437 27.665C125.252 26.8552 125.898 25.8935 126.338 24.8352C126.777 23.7768 127.003 22.6427 127 21.4977C126.997 20.3528 126.767 19.2196 126.323 18.1632C125.878 17.1068 125.228 16.148 124.409 15.3417ZM47.961 91.3147L8.75691 52.1758L21.8943 39.1295L21.9545 39.1893L42.0108 58.3619C43.6509 59.9752 45.866 60.8803 48.1744 60.8803C50.4829 60.8803 52.698 59.9752 54.338 58.3619L105.13 8.68809L118.235 21.517L47.961 91.3147Z" fill="#F8FFF4"/>
</svg>
