<svg width="51" height="20" viewBox="0 0 51 20" fill="none" xmlns="http://www.w3.org/2000/svg">
<g id="G Pay">
<path d="M23.8034 15.6237H21.9311V1.06237H26.8946C28.1525 1.06237 29.2252 1.48147 30.1028 2.31967C31 3.15788 31.4485 4.18126 31.4485 5.38984C31.4485 6.62765 31 7.65103 30.1028 8.47949C29.2349 9.30795 28.1623 9.7173 26.8946 9.7173H23.8034V15.6237ZM23.8034 2.85573V7.93368H26.9336C27.6747 7.93368 28.2988 7.68027 28.7864 7.1832C29.2837 6.68613 29.5372 6.08184 29.5372 5.39958C29.5372 4.72707 29.2837 4.13253 28.7864 3.63546C28.2988 3.11889 27.6845 2.86548 26.9336 2.86548H23.8034V2.85573Z" fill="white"/>
<path d="M36.3435 5.33136C37.7282 5.33136 38.8204 5.70172 39.62 6.44246C40.4196 7.1832 40.8194 8.19684 40.8194 9.48339V15.6237H39.0349V14.2397H38.9569C38.1866 15.38 37.1529 15.9453 35.8657 15.9453C34.7638 15.9453 33.8472 15.6237 33.1061 14.9707C32.365 14.3177 31.9944 13.5087 31.9944 12.5341C31.9944 11.5009 32.3845 10.6822 33.1646 10.0779C33.9447 9.46389 34.9881 9.16175 36.285 9.16175C37.3967 9.16175 38.3133 9.36643 39.0252 9.77578V9.34693C39.0252 8.69391 38.7716 8.14811 38.2548 7.69002C37.738 7.23193 37.1334 7.00776 36.441 7.00776C35.3976 7.00776 34.5688 7.44636 33.9642 8.33329L32.3162 7.30016C33.2231 5.98437 34.5688 5.33136 36.3435 5.33136ZM33.9252 12.5633C33.9252 13.0506 34.13 13.46 34.5493 13.7816C34.9588 14.1032 35.4464 14.2689 36.0022 14.2689C36.7921 14.2689 37.4942 13.9765 38.1085 13.3917C38.7229 12.807 39.0349 12.1247 39.0349 11.3352C38.4498 10.8771 37.6405 10.6432 36.5971 10.6432C35.8365 10.6432 35.2026 10.8284 34.6955 11.189C34.1787 11.5691 33.9252 12.0272 33.9252 12.5633Z" fill="white"/>
<path d="M51 5.65309L44.7591 20H42.8283L45.1492 14.9805L41.0341 5.65309H43.0721L46.0365 12.807H46.0755L48.962 5.65309H51Z" fill="white"/>
<path d="M16.3561 8.53798C16.3561 7.92784 16.3015 7.34402 16.2001 6.78262H8.35218V9.99898L12.872 9.99996C12.6886 11.0701 12.0987 11.9824 11.1947 12.5906V14.6773H13.8851C15.4561 13.2241 16.3561 11.076 16.3561 8.53798Z" fill="#4285F4"/>
<path d="M11.1957 12.5907C10.4468 13.0956 9.48235 13.3909 8.35411 13.3909C6.17467 13.3909 4.32581 11.923 3.66369 9.9445H0.888436V12.0965C2.26338 14.8236 5.08934 16.695 8.35411 16.695C10.6106 16.695 12.5063 15.9532 13.8861 14.6764L11.1957 12.5907Z" fill="#34A853"/>
<path d="M3.40226 8.3479C3.40226 7.79235 3.4949 7.25531 3.6636 6.75044V4.5984H0.888352C0.319845 5.72608 0 6.99898 0 8.3479C0 9.69682 0.32082 10.9697 0.888352 12.0974L3.6636 9.94536C3.4949 9.44049 3.40226 8.90345 3.40226 8.3479Z" fill="#FABB05"/>
<path d="M8.35411 3.30408C9.58571 3.30408 10.6886 3.72805 11.5594 4.55651L13.9436 2.17543C12.4955 0.827482 10.6077 0 8.35411 0C5.09032 0 2.2633 1.87132 0.888352 4.5984L3.6636 6.75044C4.32572 4.77189 6.17467 3.30408 8.35411 3.30408Z" fill="#E94235"/>
</g>
</svg>
