<svg width="596" height="76" viewBox="0 0 596 76" fill="none" xmlns="http://www.w3.org/2000/svg">
<path d="M-1.23684 51.9803C-1.23684 51.9803 1.47863 58.9428 4.5246 65.8392C6.1771 69.6183 7.92786 73.3753 9.16947 76H585.893C587.144 73.3679 588.885 69.6183 590.538 65.8392C593.584 58.9355 596.299 51.9803 596.299 51.9803C596.299 51.9803 599.042 45.0251 601.453 38.0184C603.892 31.0117 606 23.9756 606 23.9756C606 23.9756 601.918 30.4088 597.568 36.6803C593.236 42.9664 588.644 49.0835 588.644 49.0835C588.644 49.0835 586.474 51.995 583.535 55.7593L582.91 48.1571L580.748 21.7773L574.504 47.716L572.664 55.3549C571.485 52.4435 570.708 50.3407 570.708 50.3407C570.708 50.3407 568.502 44.4369 566.733 38.3787C564.938 32.3278 563.607 26.1445 563.607 26.1445C563.607 26.1445 562.838 32.3866 562.544 38.7168C562.222 45.0398 562.392 51.4215 562.392 51.4215C562.392 51.4215 562.472 55.2593 562.803 59.9795C562.276 58.7811 561.74 57.5386 561.213 56.296C558.22 49.282 555.603 42.1283 555.603 42.1283C555.603 42.1283 552.959 34.9819 550.699 27.7106C548.412 20.4466 546.519 13.0649 546.519 13.0649C546.519 13.0649 546.322 20.6009 546.528 28.1811C546.715 35.7539 547.314 43.3561 547.314 43.3561C547.314 43.3561 547.885 50.951 548.886 58.5605C549.1 60.2221 549.333 61.8837 549.565 63.4718C549.02 61.2073 548.404 58.6634 547.787 56.1122C545.858 48.5688 543.928 41.0328 543.928 41.0328L539.864 26.0048C537.738 18.5203 535.603 11.0357 535.603 11.0357C535.603 11.0357 535.639 18.7114 535.675 26.3945C535.612 34.0629 535.541 41.7313 535.541 41.7313L535.201 57.0459C535.085 60.303 534.969 63.5527 534.871 66.2215H534.799C534.817 64.7805 534.835 63.2733 534.826 61.7587C534.826 55.0314 534.469 48.3409 534.469 48.3409C534.469 48.3409 534.138 41.6504 533.46 35.0187C532.807 28.3796 531.816 21.8067 531.816 21.8067C531.816 21.8067 530.699 28.3723 529.252 34.8496C527.823 41.3416 526.072 47.7307 526.072 47.7307C526.072 47.7307 524.34 54.1345 522.285 60.4353C522.258 60.5309 522.223 60.6265 522.196 60.7147C522.312 59.1634 522.392 57.5533 522.446 55.9505C522.499 52.0023 522.321 48.0909 522.017 45.1795C521.91 43.7237 521.696 42.5106 521.597 41.6724C521.49 40.8269 521.419 40.349 521.419 40.349C521.419 40.349 521.338 39.8711 521.186 39.0256C521.026 38.1875 520.874 36.9891 520.534 35.5627C519.963 32.7027 518.962 28.9384 517.774 25.2549C516.515 21.5714 515.059 17.9762 513.799 15.3294C513.219 13.9987 512.611 12.9252 512.245 12.1606C511.861 11.4033 511.638 10.9695 511.638 10.9695C511.638 10.9695 511.727 11.4327 511.897 12.2488C512.04 13.0649 512.334 14.2045 512.531 15.6014C513.013 18.3806 513.415 22.0935 513.612 25.7843C513.746 29.4898 513.665 33.1586 513.442 35.8936C513.37 37.2611 513.192 38.4007 513.129 39.1947C513.04 39.9888 512.995 40.4373 512.995 40.4373C512.995 40.4373 512.924 40.8858 512.808 41.6798C512.674 42.4665 512.558 43.5987 512.272 44.9368C511.959 46.7234 511.459 48.907 510.869 51.1789C508.851 46.7822 507.466 43.3267 507.466 43.3267C507.466 43.3267 504.59 36.2538 502.384 28.9457C500.142 21.6597 498.587 14.1677 498.587 14.1677C498.587 14.1677 498.025 21.7406 498.203 29.3942C498.337 37.0405 499.213 44.731 499.213 44.731C499.213 44.731 499.865 50.7524 501.124 57.465C501.053 57.3842 500.981 57.3033 500.919 57.2151C499.052 54.8182 497.31 52.3038 496.14 50.3554C494.961 48.4071 494.237 47.069 494.237 47.069C494.237 47.069 493.523 45.7382 492.558 43.6722C491.834 42.143 491.03 40.1873 490.271 38.0919C490.298 37.614 490.325 37.1214 490.352 36.5847C490.512 33.3277 490.495 28.9825 490.28 24.6741C489.994 20.3657 489.512 16.0867 488.976 12.9105C488.753 11.3224 488.449 9.99904 488.288 9.08001C488.109 8.16098 488.011 7.63162 488.011 7.63162C488.011 7.63162 487.984 8.16097 487.922 9.0947C487.85 10.0284 487.833 11.3518 487.654 12.9399C487.395 16.1161 486.832 20.3289 486.064 24.4903C485.242 28.6516 484.224 32.7542 483.304 35.7906C482.393 38.8345 481.705 40.8269 481.705 40.8269C481.705 40.8269 481.008 42.8341 479.856 45.7897C479.749 46.0764 479.606 46.4073 479.481 46.7087C479.275 45.6794 479.132 45.0692 479.132 45.0692C479.132 45.0692 477.793 38.9889 475.649 33.1733C473.55 27.3356 470.682 21.8361 470.682 21.8361C470.682 21.8361 471.504 27.7988 471.486 33.6879C471.504 38.5183 470.986 43.2458 470.79 44.8119C469.852 40.5917 469.226 37.4743 469.226 37.4743C469.226 37.4743 467.663 29.8059 466.43 22.0714C465.18 14.3368 464.251 6.54348 464.251 6.54348C464.251 6.54348 463.956 8.48448 463.554 11.4033C464.072 7.30812 464.519 4.4187 464.519 4.4187C464.519 4.4187 461.125 12.6532 458.302 21.0862C455.444 29.5045 453.148 38.0919 453.148 38.0919C453.148 38.0919 450.915 46.3485 449.191 54.8918C449.593 46.4367 449.423 38.9889 449.423 38.9889C449.423 38.9889 449.28 29.1369 448.253 19.3805C447.306 9.61671 445.493 0 445.493 0C445.493 0 445.198 9.73435 444.037 19.3658C442.956 29.0045 441.018 38.4889 441.018 38.4889C441.018 38.4889 440.196 42.6944 438.847 48.2306C438.159 46.2382 437.552 44.3486 437.114 42.7459C436.65 41.2533 436.4 39.9888 436.167 39.1065C435.944 38.2242 435.819 37.7169 435.819 37.7169C435.819 37.7169 435.712 37.2096 435.533 36.32C435.372 35.4304 435.042 34.1585 434.819 32.6218C434.265 29.5486 433.782 25.4166 433.532 21.2406C433.354 17.0719 433.398 12.8591 433.639 9.69759C433.711 8.10951 433.907 6.80081 433.979 5.87442C434.068 4.94804 434.122 4.4187 434.122 4.4187C434.122 4.4187 433.943 4.926 433.622 5.81562C433.318 6.70524 432.8 7.96983 432.335 9.52115C431.308 12.6017 430.209 16.7778 429.325 21.02C428.521 25.2623 427.949 29.5707 427.717 32.8203C427.548 34.4452 427.556 35.8054 427.485 36.7538C427.44 37.7096 427.414 38.2537 427.414 38.2537C427.414 38.2537 427.414 38.7977 427.414 39.7535C427.431 40.7093 427.36 42.0768 427.449 43.7164C427.449 44.0399 427.467 44.3781 427.476 44.7163C427.405 44.3928 427.324 44.0546 427.244 43.6869C426.735 41.5327 425.94 38.6948 424.993 35.9083C424.055 33.1218 422.947 30.4015 422.027 28.3943C421.125 26.3871 420.455 25.0784 420.455 25.0784C420.455 25.0784 421.098 30.7544 420.812 36.3421C420.705 39.1359 420.428 41.9004 420.143 43.9516C419.991 45.0398 419.848 45.922 419.741 46.5176C419.16 43.209 418.758 40.9666 418.758 40.9666L412.88 7.6169L410.799 35.1657C410.504 34.0041 410.192 32.813 409.87 31.6219C408.111 25.0049 405.913 18.5276 405.913 18.5276C405.913 18.5276 406.02 25.2623 405.672 31.9381C405.377 38.6213 404.636 45.2383 404.636 45.2383C404.636 45.2383 404.484 46.6572 404.216 48.8188C402.492 44.4222 401.367 40.7167 401.367 40.7167C401.367 40.7167 399.446 34.5555 398.321 28.1664C397.141 21.7994 396.802 15.2632 396.802 15.2632C396.802 15.2632 395.042 21.6303 394.104 28.2105C393.292 33.6291 393.068 39.1359 393.006 40.8931C393.006 40.3417 392.988 39.8123 392.961 39.3271C392.863 37.1655 392.711 35.7465 392.711 35.7465C392.711 35.7465 392.148 30.0118 390.451 24.5932C389.594 21.8802 388.575 19.2481 387.673 17.3219C386.78 15.3956 386.119 14.1457 386.119 14.1457C386.119 14.1457 386.762 19.601 386.253 24.9094C385.994 27.5635 385.565 30.1736 385.118 32.0998C384.672 34.0261 384.306 35.2833 384.306 35.2833C384.306 35.2833 382.948 40.0182 380.697 44.5251C379.089 40.4887 377.847 36.7906 377.847 36.7906C377.847 36.7906 376.24 32.0631 374.971 27.2106C373.676 22.3728 372.729 17.4248 372.729 17.4248C372.729 17.4248 371.568 22.3361 370.764 27.3429C369.933 32.3425 369.469 37.4302 369.469 37.4302C369.469 37.4302 369.442 37.6728 369.406 38.0845C368.826 36.5112 368.495 35.526 368.495 35.526C368.495 35.526 366.173 28.7913 364.752 21.792C363.279 14.8147 362.743 7.63896 362.743 7.63896C362.743 7.63896 361.162 14.6971 360.545 21.9537C359.866 29.1957 360.17 36.5553 360.17 36.5553C360.17 36.5553 360.188 37.0111 360.224 37.8125C359.589 35.3422 358.562 31.5264 357.374 27.7547C355.4 21.417 352.988 15.2412 352.988 15.2412C352.988 15.2412 353.337 21.7332 353.194 28.1664C353.087 34.6143 352.497 40.9813 352.497 40.9813C352.497 40.9813 351.943 47.3631 350.925 53.6492C350.889 53.8551 350.854 54.0683 350.827 54.2742C350.228 52.5905 349.612 50.7745 349.049 48.9291C346.852 41.9371 345.396 34.7393 345.396 34.7393C345.396 34.7393 343.895 27.5562 343.154 20.2039C342.368 12.8738 342.377 5.42595 342.377 5.42595C342.377 5.42595 340.269 12.6532 338.938 20.0863C337.562 27.4973 336.973 35.0701 336.973 35.0701C336.973 35.0701 336.615 39.3565 336.508 44.7457C336.151 43.5693 335.954 42.8562 335.954 42.8562C335.954 42.8562 334.078 36.3641 332.747 29.7251C331.39 23.0933 330.586 16.3367 330.586 16.3367C330.586 16.3367 329.273 23.0345 328.54 29.8501C327.763 36.6582 327.576 43.5546 327.576 43.5546C327.576 43.5546 327.54 44.5913 327.522 46.2602C327.174 45.0839 326.834 43.9663 326.495 43.0105C325.646 40.5549 325.003 38.9521 325.003 38.9521C325.003 38.9521 324.36 37.342 323.279 34.9746C322.207 32.6071 320.581 29.5266 318.813 26.5416C316.982 23.5713 315.008 20.7039 313.391 18.6232C311.783 16.5425 310.658 15.2044 310.658 15.2044C310.658 15.2044 313.355 21.3729 314.829 27.6664C315.561 30.8206 316.106 33.96 316.365 36.3274C316.633 38.6874 316.732 40.2535 316.732 40.2535C316.732 40.2535 316.812 41.496 316.848 43.4076L306.513 23.9683L308.925 45.5691L310.184 56.8916C310.014 56.5754 309.845 56.2666 309.684 55.9505C308.04 52.6052 306.575 49.1644 305.646 46.5249C305.137 45.2162 304.842 44.0987 304.574 43.3193C304.324 42.54 304.181 42.0989 304.181 42.0989C304.181 42.0989 304.056 41.6504 303.842 40.8637C303.646 40.077 303.279 38.9521 302.993 37.592C302.332 34.8716 301.68 31.1955 301.261 27.4606C300.903 23.733 300.769 19.954 300.876 17.116C300.876 15.6897 301.01 14.5133 301.046 13.6825C301.1 12.8517 301.127 12.3738 301.127 12.3738C301.127 12.3738 300.966 12.8296 300.689 13.631C300.43 14.4324 299.965 15.572 299.572 16.9689C298.688 19.7481 297.759 23.5198 297.053 27.3576C296.955 27.9311 296.884 28.4972 296.794 29.0707C296.41 26.9239 295.919 24.6153 295.276 22.3214C294.088 18.1894 292.65 14.1383 291.113 11.2489C290.461 9.77846 289.684 8.62417 289.229 7.79337C288.746 6.97727 288.478 6.50673 288.478 6.50673C288.478 6.50673 288.63 7.01402 288.889 7.89629C289.13 8.78591 289.595 10.0137 289.854 11.5503C290.613 14.5721 290.988 18.6747 291.095 22.7331C291.176 26.8062 290.792 30.8573 290.443 33.8791C290.024 36.9008 289.684 38.9007 289.684 38.9007C289.684 38.9007 289.586 39.4006 289.416 40.2755C289.229 41.1504 289.041 42.4003 288.675 43.8855C288.023 46.8705 286.978 50.8186 285.763 54.73C285.414 55.8622 285.048 56.9871 284.673 58.09L286.066 45.5765L288.478 23.9756L278.143 43.4149C278.179 41.5033 278.26 40.2608 278.26 40.2608C278.26 40.2608 278.358 38.6948 278.626 36.3347C278.885 33.9673 279.43 30.8279 280.162 27.6738C281.636 21.3803 284.334 15.2118 284.334 15.2118C284.334 15.2118 283.199 16.5499 281.6 18.6305C279.983 20.7039 278.009 23.5786 276.178 26.5489C274.401 29.5339 272.784 32.6145 271.712 34.9819C270.631 37.342 269.988 38.9595 269.988 38.9595C269.988 38.9595 269.345 40.5623 268.496 43.0179C268.166 43.9737 267.817 45.0912 267.469 46.2676C267.451 44.5986 267.415 43.562 267.415 43.562C267.415 43.562 267.219 36.6582 266.451 29.8574C265.709 23.0419 264.405 16.344 264.405 16.344C264.405 16.344 263.61 23.1007 262.244 29.7324C260.913 36.3788 259.037 42.8635 259.037 42.8635C259.037 42.8635 258.831 43.584 258.483 44.753C258.385 39.3638 258.019 35.0775 258.019 35.0775C258.019 35.0775 257.429 27.512 256.053 20.0936C254.723 12.6605 252.614 5.43329 252.614 5.43329C252.614 5.43329 252.614 12.8737 251.837 20.2113C251.105 27.5562 249.595 34.7466 249.595 34.7466C249.595 34.7466 248.139 41.9518 245.942 48.9364C245.379 50.7745 244.763 52.5905 244.164 54.2815C244.129 54.0756 244.093 53.8624 244.066 53.6566C243.048 47.3704 242.494 40.9887 242.494 40.9887C242.494 40.9887 241.913 34.6143 241.797 28.1737C241.663 21.7332 242.003 15.2485 242.003 15.2485C242.003 15.2485 239.582 21.4244 237.617 27.762C236.429 31.5337 235.402 35.3495 234.767 37.8199C234.812 37.0185 234.821 36.5626 234.821 36.5626C234.821 36.5626 235.125 29.2031 234.446 21.9611C233.829 14.7045 232.248 7.64631 232.248 7.64631C232.248 7.64631 231.713 14.8221 230.239 21.7994C228.818 28.7987 226.496 35.5333 226.496 35.5333C226.496 35.5333 226.165 36.5185 225.585 38.0919C225.549 37.6802 225.522 37.4375 225.522 37.4375C225.522 37.4375 225.058 32.3498 224.227 27.3503C223.423 22.3361 222.262 17.4321 222.262 17.4321C222.262 17.4321 221.315 22.3802 220.02 27.2179C218.743 32.0704 217.144 36.7979 217.144 36.7979C217.144 36.7979 215.902 40.4961 214.294 44.5325C212.034 40.0255 210.686 35.2907 210.686 35.2907C210.686 35.2907 210.319 34.0335 209.873 32.1072C209.417 30.1809 208.997 27.5709 208.738 24.9167C208.229 19.6084 208.872 14.153 208.872 14.153C208.872 14.153 208.211 15.3956 207.318 17.3292C206.416 19.2555 205.398 21.8949 204.54 24.6006C202.843 30.0191 202.28 35.7539 202.28 35.7539C202.28 35.7539 202.128 37.1729 202.03 39.3344C202.003 39.8197 201.994 40.349 201.985 40.9005C201.932 39.1433 201.699 33.6291 200.887 28.2179C199.958 21.6376 198.189 15.2706 198.189 15.2706C198.189 15.2706 197.85 21.8067 196.671 28.1737C195.545 34.5628 193.625 40.724 193.625 40.724C193.625 40.724 192.499 44.4222 190.775 48.8262C190.507 46.6646 190.355 45.2456 190.355 45.2456C190.355 45.2456 189.614 38.6286 189.319 31.9454C188.971 25.2623 189.078 18.535 189.078 18.535C189.078 18.535 186.881 25.0123 185.121 31.6293C184.79 32.8203 184.487 34.0114 184.192 35.1731L182.111 7.62426L176.233 40.974C176.233 40.974 175.84 43.2164 175.251 46.5249C175.152 45.9294 175 45.0471 174.849 43.959C174.563 41.9004 174.286 39.1433 174.179 36.3494C173.893 30.7617 174.536 25.0858 174.536 25.0858C174.536 25.0858 173.866 26.3945 172.964 28.4017C172.044 30.4088 170.936 33.1292 169.998 35.9156C169.051 38.6948 168.256 41.5401 167.747 43.6943C167.658 44.0619 167.586 44.4001 167.515 44.7236C167.524 44.3854 167.542 44.0472 167.542 43.7237C167.631 42.0842 167.56 40.7166 167.578 39.7608C167.578 38.8051 167.578 38.261 167.578 38.261C167.578 38.261 167.551 37.7169 167.506 36.7612C167.444 35.8054 167.444 34.4525 167.274 32.8277C167.042 29.578 166.47 25.2696 165.666 21.0274C164.791 16.7851 163.683 12.6091 162.656 9.52848C162.2 7.97716 161.673 6.71257 161.369 5.82295C161.048 4.93333 160.869 4.42603 160.869 4.42603C160.869 4.42603 160.923 4.9554 161.012 5.88178C161.084 6.80817 161.28 8.11687 161.352 9.70495C161.593 12.8664 161.637 17.0719 161.459 21.2479C161.2 25.424 160.717 29.556 160.173 32.6292C159.949 34.1658 159.619 35.4378 159.458 36.3274C159.279 37.217 159.172 37.7243 159.172 37.7243C159.172 37.7243 159.047 38.2316 158.824 39.1139C158.583 39.9961 158.332 41.2607 157.877 42.7532C157.439 44.3633 156.832 46.2529 156.144 48.238C154.804 42.6944 153.973 38.4963 153.973 38.4963C153.973 38.4963 152.035 29.0119 150.954 19.3731C149.793 9.74906 149.498 0.00735941 149.498 0.00735941C149.498 0.00735941 147.685 9.62407 146.738 19.3878C145.711 29.1369 145.568 38.9962 145.568 38.9962C145.568 38.9962 145.398 46.4514 145.8 54.8991C144.076 46.3484 141.843 38.0993 141.843 38.0993C141.843 38.0993 139.556 29.5119 136.689 21.0935C133.858 12.6605 130.472 4.42603 130.472 4.42603C130.472 4.42603 130.919 7.31547 131.437 11.418C131.035 8.49183 130.74 6.55084 130.74 6.55084C130.74 6.55084 129.82 14.3442 128.57 22.0787C127.337 29.8206 125.774 37.4817 125.774 37.4817C125.774 37.4817 125.148 40.599 124.21 44.8192C124.014 43.2532 123.496 38.5257 123.514 33.6953C123.487 27.8061 124.318 21.8435 124.318 21.8435C124.318 21.8435 121.45 27.3429 119.351 33.1806C117.207 38.9962 115.868 45.0765 115.868 45.0765C115.868 45.0765 115.725 45.6868 115.519 46.7161C115.394 46.4146 115.26 46.0838 115.144 45.797C113.983 42.8414 113.295 40.8343 113.295 40.8343C113.295 40.8343 112.607 38.8345 111.696 35.798C110.776 32.7615 109.758 28.659 108.936 24.4976C108.177 20.3363 107.605 16.1234 107.346 12.9473C107.176 11.3592 107.15 10.0358 107.078 9.10206C107.024 8.16833 106.989 7.63896 106.989 7.63896C106.989 7.63896 106.89 8.16832 106.712 9.08735C106.551 10.0064 106.247 11.3298 106.024 12.9179C105.488 16.094 105.006 20.373 104.72 24.6814C104.497 28.9898 104.488 33.3277 104.648 36.592C104.675 37.1288 104.702 37.6287 104.729 38.0993C103.978 40.1946 103.175 42.143 102.442 43.6796C101.477 45.7382 100.763 47.0763 100.763 47.0763C100.763 47.0763 100.039 48.4218 98.8602 50.3628C97.69 52.3111 95.9482 54.8256 94.0813 57.2224C94.0099 57.3033 93.9473 57.3841 93.8759 57.4724C95.1264 50.7671 95.7874 44.7383 95.7874 44.7383C95.7874 44.7383 96.6718 37.0479 96.7968 29.4016C96.9755 21.7479 96.4127 14.1751 96.4127 14.1751C96.4127 14.1751 94.8674 21.6597 92.6164 28.9531C90.4101 36.2612 87.5338 43.334 87.5338 43.334C87.5338 43.334 86.1493 46.7896 84.1306 51.1862C83.5321 48.9144 83.0408 46.7308 82.7282 44.9442C82.4424 43.6061 82.3352 42.4738 82.1922 41.6872C82.0761 40.8931 82.0047 40.4446 82.0047 40.4446C82.0047 40.4446 81.96 39.9888 81.8707 39.2021C81.7992 38.4081 81.6206 37.2684 81.558 35.9009C81.3347 33.1659 81.2543 29.4898 81.3883 25.7916C81.5848 22.1008 81.9868 18.3879 82.4691 15.6088C82.6657 14.2119 82.9515 13.0649 83.1034 12.2562C83.2641 11.4474 83.3624 10.9769 83.3624 10.9769C83.3624 10.9769 83.1391 11.4107 82.755 12.1679C82.3888 12.9326 81.7813 14.006 81.2007 15.3367C79.9413 17.9762 78.4942 21.5788 77.2258 25.2623C76.0289 28.9531 75.0374 32.7174 74.4657 35.5701C74.1352 36.9964 73.9833 38.1948 73.8136 39.033C73.6707 39.8711 73.5814 40.3564 73.5814 40.3564C73.5814 40.3564 73.5188 40.8416 73.4027 41.6798C73.3134 42.5253 73.0901 43.7311 72.9829 45.1868C72.6703 48.0983 72.5005 52.0097 72.5541 55.9578C72.5988 57.568 72.6881 59.1781 72.8042 60.7221C72.7775 60.6265 72.7417 60.5309 72.7149 60.4427C70.6605 54.1418 68.9276 47.738 68.9276 47.738C68.9276 47.738 67.1768 41.3416 65.7476 34.8569C64.3005 28.3796 63.184 21.8141 63.184 21.8141C63.184 21.8141 62.1925 28.3869 61.5404 35.026C60.8705 41.6577 60.5311 48.3483 60.5311 48.3483C60.5311 48.3483 60.1827 55.0314 60.1738 61.7661C60.1738 63.2807 60.1738 64.7878 60.2006 66.2289H59.8611L59.2359 43.4076L58.4855 15.447L50.8572 42.7017L45.8372 60.6926C45.9354 59.9942 46.0248 59.281 46.1141 58.5752C47.1056 50.9656 47.6862 43.3708 47.6862 43.3708C47.6862 43.3708 48.2847 35.7686 48.4722 28.1958C48.6866 20.6157 48.4812 13.0796 48.4812 13.0796C48.4812 13.0796 46.5786 20.4613 44.3008 27.7253C42.0409 35.004 39.3969 42.143 39.3969 42.143C39.3969 42.143 36.7797 49.2967 33.7873 56.3107C33.2603 57.5533 32.7243 58.7958 32.1973 59.9942C32.5278 55.2814 32.6082 51.4362 32.6082 51.4362C32.6082 51.4362 32.7779 45.0545 32.4564 38.7315C32.1616 32.4013 31.3934 26.1592 31.3934 26.1592C31.3934 26.1592 30.0535 32.3425 28.267 38.3933C26.4984 44.4516 24.2921 50.3554 24.2921 50.3554C24.2921 50.3554 23.515 52.4582 22.3359 55.3696L20.4958 47.7307L14.252 21.792L12.0904 48.1718L11.4651 55.774C8.53526 52.0097 6.35575 49.0982 6.35575 49.0982C6.35575 49.0982 1.76447 42.9811 -2.56777 36.695C-6.91787 30.4235 -11 23.9903 -11 23.9903C-11 23.9903 -8.89194 31.0338 -6.45338 38.0331C-4.04162 45.0398 -1.29936 51.995 -1.29936 51.995L-1.23684 51.9803Z" fill="#94C11F"/>
</svg>
