<svg width="106" height="118" viewBox="0 0 106 118" fill="none" xmlns="http://www.w3.org/2000/svg">
<g id="Frame">
<path id="Vector" d="M95.8594 36.9303C94.821 35.7537 93.5442 34.8114 92.1137 34.1661C90.6832 33.5208 89.1318 33.1872 87.5625 33.1875H61.75V25.8125C61.75 20.9226 59.8075 16.2329 56.3498 12.7752C52.8921 9.31752 48.2024 7.375 43.3125 7.375C42.6274 7.37451 41.9558 7.56487 41.3729 7.92472C40.7899 8.28458 40.3188 8.79971 40.0122 9.41234L22.598 44.25H2.75C0.794029 44.25 -1.08183 45.027 -2.46491 46.4101C-3.84799 47.7932 -4.625 49.669 -4.625 51.625V92.1875C-4.625 94.1435 -3.84799 96.0193 -2.46491 97.4024C-1.08183 98.7855 0.794029 99.5625 2.75 99.5625H82.0313C84.7264 99.5634 87.3291 98.5804 89.3508 96.7981C91.3724 95.0158 92.6739 92.5568 93.0108 89.8828L98.542 45.6328C98.7381 44.0749 98.6003 42.4932 98.1377 40.9927C97.6752 39.4922 96.8985 38.1074 95.8594 36.9303ZM2.75 51.625H21.1875V92.1875H2.75V51.625ZM91.2224 44.7109L85.6911 88.9609C85.5788 89.8523 85.145 90.6719 84.4711 91.266C83.7972 91.8602 82.9296 92.1878 82.0313 92.1875H28.5625V48.8087L45.4835 14.962C47.9914 15.464 50.2479 16.8194 51.8691 18.7977C53.4902 20.776 54.3757 23.2548 54.375 25.8125V36.875C54.375 37.853 54.7635 38.7909 55.455 39.4825C56.1466 40.174 57.0845 40.5625 58.0625 40.5625H87.5625C88.0858 40.5623 88.6031 40.6735 89.0801 40.8887C89.5571 41.1039 89.9828 41.4181 90.329 41.8105C90.6752 42.2029 90.9339 42.6644 91.0879 43.1645C91.2419 43.6646 91.2878 44.1918 91.2224 44.7109Z" fill="#7BAF59"/>
</g>
</svg>
