<svg width="24" height="24" viewBox="0 0 24 24" fill="none" xmlns="http://www.w3.org/2000/svg">
<path d="M13.01 5.225L18.91 7.845C20.61 8.595 20.61 9.835 18.91 10.585L13.01 13.205C12.34 13.505 11.24 13.505 10.57 13.205L4.67002 10.585C2.97002 9.835 2.97002 8.595 4.67002 7.845L10.57 5.225C11.24 4.925 12.34 4.925 13.01 5.225Z" stroke="#5AA02D" stroke-width="1.5" stroke-linecap="round" stroke-linejoin="round"/>
<path d="M3 13.3047C3 14.1447 3.63 15.1147 4.4 15.4547L11.19 18.4747C11.71 18.7047 12.3 18.7047 12.81 18.4747L19.6 15.4547C20.37 15.1147 21 14.1447 21 13.3047" stroke="#5AA02D" stroke-width="1.5" stroke-linecap="round" stroke-linejoin="round"/>
</svg>
