<?xml version="1.0" encoding="utf-8"?>
<!-- Generator: Adobe Illustrator 24.3.0, SVG Export Plug-In . SVG Version: 6.00 Build 0)  -->
<svg version="1.1" id="Layer_1" xmlns="http://www.w3.org/2000/svg" xmlns:xlink="http://www.w3.org/1999/xlink" x="0px" y="0px"
	 viewBox="0 0 50.18 50.28" style="enable-background:new 0 0 50.18 50.28;" xml:space="preserve">
<style type="text/css">
	.st0{clip-path:url(#SVGID_2_);}
	.st1{fill:none;stroke:#FFFFFF;stroke-width:0.7491;stroke-miterlimit:10;}
	.st2{fill:#FFFFFF;}
	.st3{fill:url(#SVGID_3_);}
	.st4{fill:url(#SVGID_4_);}
	.st5{fill:url(#SVGID_5_);}
	.st6{fill:url(#SVGID_6_);}
	.st7{fill:url(#SVGID_7_);}
	.st8{fill:url(#SVGID_8_);}
	.st9{fill:url(#SVGID_9_);}
	.st10{fill:url(#SVGID_10_);}
	.st11{fill:url(#SVGID_11_);}
	.st12{fill:url(#SVGID_12_);}
	.st13{fill:url(#SVGID_13_);}
	.st14{fill:url(#SVGID_14_);}
	.st15{fill:url(#SVGID_15_);}
	.st16{fill:url(#SVGID_16_);}
	.st17{fill:url(#SVGID_17_);}
	.st18{fill:url(#SVGID_18_);}
	.st19{fill:url(#SVGID_19_);}
	.st20{fill:url(#SVGID_20_);}
	.st21{fill:none;stroke:#FFFFFF;stroke-width:0.6723;stroke-miterlimit:10;}
	.st22{fill:#81B702;}
	.st23{fill:url(#SVGID_21_);}
	.st24{fill:url(#SVGID_22_);}
	.st25{fill:url(#SVGID_23_);}
	.st26{fill:url(#SVGID_24_);}
	.st27{fill:url(#SVGID_25_);}
	.st28{fill:url(#SVGID_26_);}
	.st29{clip-path:url(#SVGID_2_);fill:none;stroke:url(#SVGID_27_);stroke-width:0.9204;stroke-miterlimit:10;}
	.st30{clip-path:url(#SVGID_2_);fill:none;stroke:url(#SVGID_28_);stroke-width:0.9204;stroke-miterlimit:10;}
</style>
<g>
	<defs>
		<ellipse id="SVGID_1_" cx="25.09" cy="25.14" rx="25.09" ry="25.14"/>
	</defs>
	<clipPath id="SVGID_2_">
		<use xlink:href="#SVGID_1_"  style="overflow:visible;"/>
	</clipPath>
	<g class="st0">
		<polyline class="st1" points="27.11,41.35 17.74,41.35 17.74,16.52 		"/>
		<g>
			<path class="st2" d="M27.84,22.95c0-0.42-0.01-0.79-0.03-1.12h0.57l0.02,0.7h0.03c0.16-0.48,0.56-0.79,0.99-0.79
				c0.07,0,0.13,0.01,0.19,0.02v0.62c-0.07-0.01-0.13-0.02-0.22-0.02c-0.46,0-0.79,0.35-0.88,0.84c-0.01,0.09-0.03,0.19-0.03,0.3
				v1.91h-0.65V22.95z"/>
			<path class="st2" d="M32.21,25.42l-0.05-0.45h-0.02c-0.2,0.28-0.59,0.53-1.1,0.53c-0.73,0-1.1-0.51-1.1-1.03
				c0-0.87,0.77-1.34,2.16-1.33v-0.07c0-0.3-0.08-0.83-0.82-0.83c-0.33,0-0.68,0.1-0.93,0.27l-0.15-0.43
				c0.3-0.19,0.73-0.32,1.18-0.32c1.1,0,1.36,0.75,1.36,1.47v1.34c0,0.31,0.01,0.62,0.06,0.86H32.21z M32.12,23.58
				c-0.71-0.02-1.52,0.11-1.52,0.81c0,0.42,0.28,0.62,0.62,0.62c0.47,0,0.76-0.3,0.87-0.6c0.02-0.07,0.04-0.14,0.04-0.21V23.58z"/>
			<path class="st2" d="M33.71,24.75c0.19,0.13,0.53,0.26,0.86,0.26c0.47,0,0.7-0.24,0.7-0.53c0-0.31-0.19-0.48-0.67-0.66
				c-0.64-0.23-0.95-0.59-0.95-1.02c0-0.58,0.47-1.05,1.24-1.05c0.36,0,0.68,0.1,0.88,0.22l-0.16,0.47
				c-0.14-0.09-0.4-0.21-0.73-0.21c-0.38,0-0.6,0.22-0.6,0.49c0,0.3,0.22,0.43,0.68,0.61c0.62,0.24,0.94,0.55,0.94,1.08
				c0,0.63-0.49,1.08-1.34,1.08c-0.39,0-0.76-0.1-1.01-0.24L33.71,24.75z"/>
			<path class="st2" d="M36.64,24.75c0.19,0.13,0.53,0.26,0.86,0.26c0.47,0,0.7-0.24,0.7-0.53c0-0.31-0.19-0.48-0.67-0.66
				c-0.64-0.23-0.95-0.59-0.95-1.02c0-0.58,0.47-1.05,1.24-1.05c0.36,0,0.68,0.1,0.88,0.22l-0.16,0.47
				c-0.14-0.09-0.4-0.21-0.73-0.21c-0.38,0-0.6,0.22-0.6,0.49c0,0.3,0.22,0.43,0.68,0.61c0.62,0.24,0.94,0.55,0.94,1.08
				c0,0.63-0.49,1.08-1.34,1.08c-0.39,0-0.76-0.1-1.01-0.24L36.64,24.75z"/>
		</g>
		<g>
			<g>
				<path class="st2" d="M22.28,38.7c0,0.37,0.01,0.7,0.03,0.98h-0.58l-0.04-0.59h-0.02c-0.17,0.29-0.55,0.67-1.19,0.67
					c-0.56,0-1.24-0.31-1.24-1.57v-2.1h0.65v1.99c0,0.68,0.21,1.14,0.8,1.14c0.44,0,0.74-0.3,0.86-0.59
					c0.04-0.1,0.06-0.22,0.06-0.33v-2.2h0.65V38.7z"/>
				<path class="st2" d="M23.67,36.08l0.51,0.77c0.13,0.2,0.24,0.39,0.36,0.59h0.02c0.12-0.21,0.24-0.4,0.36-0.59l0.5-0.76h0.7
					l-1.22,1.74l1.26,1.85h-0.74l-0.53-0.81c-0.14-0.21-0.26-0.41-0.39-0.62H24.5c-0.12,0.22-0.24,0.41-0.38,0.62l-0.52,0.81h-0.72
					l1.28-1.83l-1.22-1.76H23.67z"/>
				<path class="st2" d="M29.8,38.7c0,0.37,0.01,0.7,0.03,0.98h-0.58l-0.04-0.59H29.2c-0.17,0.29-0.55,0.67-1.19,0.67
					c-0.56,0-1.24-0.31-1.24-1.57v-2.1h0.65v1.99c0,0.68,0.21,1.14,0.8,1.14c0.44,0,0.74-0.3,0.86-0.59
					c0.04-0.1,0.06-0.22,0.06-0.33v-2.2h0.65V38.7z"/>
				<path class="st2" d="M30.88,37.2c0-0.42-0.01-0.79-0.03-1.12h0.57l0.02,0.7h0.03c0.16-0.48,0.56-0.79,0.99-0.79
					c0.07,0,0.13,0.01,0.19,0.02v0.62c-0.07-0.01-0.13-0.02-0.22-0.02c-0.46,0-0.79,0.35-0.88,0.84c-0.01,0.09-0.03,0.19-0.03,0.3
					v1.91h-0.65V37.2z"/>
				<path class="st2" d="M33.72,36.08l0.79,2.12c0.08,0.24,0.17,0.52,0.23,0.73h0.01c0.07-0.21,0.14-0.49,0.23-0.75l0.71-2.11h0.69
					l-0.98,2.56c-0.47,1.23-0.79,1.86-1.23,2.25c-0.32,0.28-0.64,0.39-0.8,0.42l-0.16-0.55c0.16-0.05,0.38-0.16,0.57-0.32
					c0.18-0.14,0.4-0.39,0.55-0.73c0.03-0.07,0.05-0.12,0.05-0.16s-0.01-0.09-0.04-0.17l-1.33-3.31H33.72z"/>
			</g>
		</g>
		<g>
			<linearGradient id="SVGID_3_" gradientUnits="userSpaceOnUse" x1="14.7254" y1="28.8727" x2="15.0319" y2="28.8727">
				<stop  offset="0.0271" style="stop-color:#81B702"/>
				<stop  offset="0.7241" style="stop-color:#8CC63F"/>
				<stop  offset="0.9532" style="stop-color:#286A00"/>
			</linearGradient>
			<path class="st3" d="M15.03,28.75c-0.1,0.01-0.2,0.03-0.3,0.05c0,0.06,0,0.13-0.01,0.19c0.1,0,0.2,0,0.3,0
				C15.03,28.91,15.03,28.83,15.03,28.75z"/>
			<linearGradient id="SVGID_4_" gradientUnits="userSpaceOnUse" x1="14.7309" y1="20.7362" x2="21.4174" y2="20.7362">
				<stop  offset="0.0271" style="stop-color:#81B702"/>
				<stop  offset="0.7241" style="stop-color:#8CC63F"/>
				<stop  offset="0.9532" style="stop-color:#286A00"/>
			</linearGradient>
			<path class="st4" d="M15.26,24.79c0.05-0.46,0.13-1.15,0.3-2.06c0.14-0.71,0.29-1.34,0.39-1.72c0.23-0.84,0.65-2.41,1.76-4.22
				c0.77-1.26,1.64-2.24,2.36-2.95c0.51-0.5,0.97-0.89,1.34-1.18c-0.24,0.14-0.56,0.35-0.9,0.64c-0.36,0.3-0.59,0.54-0.98,0.98
				c-0.24,0.26-0.61,0.67-1.03,1.23c-0.09,0.12-0.39,0.52-0.77,1.13c-0.3,0.47-0.84,1.34-1.34,2.54c-0.39,0.93-0.59,1.65-0.74,2.2
				c-0.37,1.35-0.51,2.41-0.63,3.37c-0.13,1.04-0.18,1.8-0.23,2.71c-0.02,0.39-0.04,0.84-0.06,1.33c0.1-0.03,0.2-0.04,0.3-0.05
				c0.01-0.51,0.02-0.95,0.05-1.48C15.11,26.52,15.15,25.78,15.26,24.79z"/>
			<linearGradient id="SVGID_5_" gradientUnits="userSpaceOnUse" x1="14.8253" y1="28.8741" x2="15.0069" y2="28.8741">
				<stop  offset="0.0271" style="stop-color:#81B702"/>
				<stop  offset="0.7241" style="stop-color:#8CC63F"/>
				<stop  offset="0.835" style="stop-color:#286A00"/>
			</linearGradient>
			<path class="st5" d="M15.01,28.75c-0.06,0.01-0.12,0.01-0.18,0.03c0,0.07,0,0.14,0,0.21c0.06,0,0.12,0,0.18,0
				C15.01,28.91,15.01,28.84,15.01,28.75z"/>
			<linearGradient id="SVGID_6_" gradientUnits="userSpaceOnUse" x1="14.7027" y1="19.2383" x2="15.0092" y2="19.2383">
				<stop  offset="0.0271" style="stop-color:#81B702"/>
				<stop  offset="0.7241" style="stop-color:#8CC63F"/>
				<stop  offset="0.835" style="stop-color:#286A00"/>
			</linearGradient>
			<path class="st6" d="M15,25.95c-0.01-1.73,0.01-1.61,0-2.98c-0.01-1.21-0.02-1.14-0.04-3.46c-0.01-0.57-0.01-0.83-0.02-2.29
				c0-0.32-0.02-1.96-0.02-2.53c-0.01-1.1-0.05-2.75-0.17-4.99c0,0.41-0.01,1-0.02,1.7c-0.01,1.56-0.02,2.86-0.02,3.28
				c-0.02,3.47,0.03,7.3,0.04,7.58c0.03,2.23,0.06,2.85,0.07,5.12c0,0.51,0.01,0.97,0.01,1.4c0.06-0.01,0.12-0.02,0.18-0.03
				c0-0.05,0-0.1,0-0.15C15.01,27.6,15,27.18,15,25.95z"/>
			<linearGradient id="SVGID_7_" gradientUnits="userSpaceOnUse" x1="14.5046" y1="28.8885" x2="14.8165" y2="28.8885">
				<stop  offset="0.0271" style="stop-color:#81B702"/>
				<stop  offset="0.7241" style="stop-color:#8CC63F"/>
				<stop  offset="0.9778" style="stop-color:#286A00"/>
			</linearGradient>
			<path class="st7" d="M14.82,28.78c-0.1,0.02-0.2,0.05-0.31,0.09c0,0.04,0,0.08,0,0.12c0.11,0,0.21,0,0.31,0
				C14.82,28.92,14.82,28.86,14.82,28.78z"/>
			<linearGradient id="SVGID_8_" gradientUnits="userSpaceOnUse" x1="11.5777" y1="19.7855" x2="14.8165" y2="19.7855">
				<stop  offset="0.0271" style="stop-color:#81B702"/>
				<stop  offset="0.7241" style="stop-color:#8CC63F"/>
				<stop  offset="0.9778" style="stop-color:#286A00"/>
			</linearGradient>
			<path class="st8" d="M14.36,19.57c-0.22-1.81-0.43-2.77-0.57-3.31c-0.26-1.07-0.51-1.76-0.57-1.93
				c-0.22-0.61-0.43-1.06-0.78-1.82c-0.33-0.71-0.62-1.32-0.87-1.8c0.27,0.56,0.59,1.27,0.91,2.12c0.08,0.23,0.33,0.9,0.6,1.89
				c0.4,1.44,0.59,2.56,0.76,3.56c0.06,0.35,0.29,1.78,0.46,3.71c0.03,0.32,0.1,1.22,0.16,2.49c0.05,1.15,0.08,2.64,0.04,4.4
				c0.11-0.04,0.21-0.07,0.31-0.09c0-1.72-0.04-3.77-0.16-5.87C14.63,22.47,14.56,21.21,14.36,19.57z"/>
			<linearGradient id="SVGID_9_" gradientUnits="userSpaceOnUse" x1="15.921" y1="28.9249" x2="16.2662" y2="28.9249">
				<stop  offset="0.0271" style="stop-color:#81B702"/>
				<stop  offset="0.7241" style="stop-color:#8CC63F"/>
				<stop  offset="0.9532" style="stop-color:#286A00"/>
			</linearGradient>
			<path class="st9" d="M16.27,28.98c-0.11-0.05-0.23-0.09-0.34-0.13c0,0.04,0,0.09,0,0.14C16.03,28.99,16.15,28.99,16.27,28.98
				C16.27,28.99,16.27,28.99,16.27,28.98z"/>
			<linearGradient id="SVGID_10_" gradientUnits="userSpaceOnUse" x1="15.9243" y1="20.2889" x2="23.3681" y2="20.2889">
				<stop  offset="0.0271" style="stop-color:#81B702"/>
				<stop  offset="0.7241" style="stop-color:#8CC63F"/>
				<stop  offset="0.9532" style="stop-color:#286A00"/>
			</linearGradient>
			<path class="st10" d="M22.36,12.26c-0.4,0.31-0.65,0.57-1.09,1.02c-0.27,0.27-0.67,0.69-1.15,1.28c-0.1,0.13-0.43,0.54-0.86,1.18
				c-0.33,0.49-0.93,1.4-1.49,2.64c-0.43,0.97-0.65,1.72-0.82,2.3c-0.41,1.41-0.56,2.51-0.69,3.51c-0.14,1.08-0.2,1.87-0.25,2.83
				c-0.03,0.53-0.06,1.14-0.09,1.84c0.12,0.04,0.23,0.08,0.34,0.13c0.01-0.83,0.02-1.43,0.06-2.18c0.04-0.78,0.08-1.55,0.2-2.58
				c0.06-0.48,0.15-1.2,0.34-2.14c0.15-0.74,0.32-1.39,0.43-1.79c0.25-0.88,0.72-2.51,1.96-4.39c0.86-1.31,1.82-2.33,2.62-3.07
				c0.56-0.52,1.08-0.93,1.48-1.23C23.11,11.74,22.75,11.96,22.36,12.26z"/>
			<linearGradient id="SVGID_11_" gradientUnits="userSpaceOnUse" x1="15.9066" y1="18.7356" x2="16.2515" y2="18.7356">
				<stop  offset="0.0271" style="stop-color:#81B702"/>
				<stop  offset="0.7241" style="stop-color:#8CC63F"/>
				<stop  offset="0.835" style="stop-color:#286A00"/>
			</linearGradient>
			<path class="st11" d="M16.25,28.19c0-1.04-0.01-1.48-0.01-2.76c-0.01-1.81,0.01-1.67,0-3.11c-0.01-1.26-0.02-1.19-0.04-3.61
				c-0.01-0.59-0.01-0.86-0.02-2.39c0-0.33-0.02-2.04-0.03-2.64c-0.02-1.15-0.06-2.86-0.19-5.19c0,0.43-0.01,1.04-0.02,1.77
				c-0.01,1.63-0.02,2.98-0.02,3.42c-0.02,3.62,0.04,7.61,0.04,7.89c0.04,2.32,0.07,2.97,0.08,5.34c0.01,0.74,0.01,1.4,0.01,1.98
				c0.07,0.02,0.13,0.05,0.19,0.08C16.25,28.73,16.25,28.47,16.25,28.19z"/>
			<linearGradient id="SVGID_12_" gradientUnits="userSpaceOnUse" x1="16.0492" y1="28.9459" x2="16.2439" y2="28.9459">
				<stop  offset="0.0271" style="stop-color:#81B702"/>
				<stop  offset="0.7241" style="stop-color:#8CC63F"/>
				<stop  offset="0.835" style="stop-color:#286A00"/>
			</linearGradient>
			<path class="st12" d="M16.24,28.98c-0.06-0.03-0.13-0.05-0.19-0.08c0,0.03,0,0.06,0,0.1c0.06,0,0.13,0,0.19,0
				C16.24,28.99,16.24,28.98,16.24,28.98z"/>
			<linearGradient id="SVGID_13_" gradientUnits="userSpaceOnUse" x1="12.4315" y1="19.2166" x2="16.0386" y2="19.2166">
				<stop  offset="0.0271" style="stop-color:#81B702"/>
				<stop  offset="0.7241" style="stop-color:#8CC63F"/>
				<stop  offset="0.9778" style="stop-color:#286A00"/>
			</linearGradient>
			<path class="st13" d="M15.86,22.26c-0.03-0.45-0.11-1.77-0.33-3.48c-0.25-1.89-0.48-2.88-0.63-3.45
				c-0.29-1.11-0.57-1.83-0.64-2.01c-0.25-0.64-0.48-1.11-0.86-1.9c-0.36-0.74-0.69-1.38-0.96-1.88c0.3,0.58,0.66,1.32,1.01,2.21
				c0.09,0.24,0.37,0.94,0.67,1.97c0.45,1.5,0.66,2.67,0.85,3.71c0.06,0.36,0.33,1.85,0.52,3.87c0.03,0.33,0.12,1.28,0.18,2.6
				c0.06,1.26,0.09,2.93,0.03,4.9c0.12,0.03,0.24,0.06,0.35,0.1C16.04,27.01,16.01,24.66,15.86,22.26z"/>
			<linearGradient id="SVGID_14_" gradientUnits="userSpaceOnUse" x1="15.6785" y1="28.8918" x2="16.0385" y2="28.8918">
				<stop  offset="0.0271" style="stop-color:#81B702"/>
				<stop  offset="0.7241" style="stop-color:#8CC63F"/>
				<stop  offset="0.9778" style="stop-color:#286A00"/>
			</linearGradient>
			<path class="st14" d="M16.04,28.89c-0.12-0.04-0.23-0.08-0.35-0.1c0,0.07,0,0.14-0.01,0.21c0.12,0,0.24,0,0.36,0
				C16.04,28.96,16.04,28.93,16.04,28.89z"/>
			<linearGradient id="SVGID_15_" gradientUnits="userSpaceOnUse" x1="15.1646" y1="28.8648" x2="15.5036" y2="28.8648">
				<stop  offset="0.0271" style="stop-color:#81B702"/>
				<stop  offset="0.7241" style="stop-color:#8CC63F"/>
				<stop  offset="0.9532" style="stop-color:#286A00"/>
			</linearGradient>
			<path class="st15" d="M15.5,28.76c-0.11-0.01-0.22-0.02-0.33-0.02c0,0.08,0,0.18-0.01,0.26c0.11,0,0.22,0,0.33,0
				C15.5,28.92,15.5,28.83,15.5,28.76z"/>
			<linearGradient id="SVGID_16_" gradientUnits="userSpaceOnUse" x1="15.1728" y1="20.3956" x2="22.5939" y2="20.3956">
				<stop  offset="0.0271" style="stop-color:#81B702"/>
				<stop  offset="0.7241" style="stop-color:#8CC63F"/>
				<stop  offset="0.9532" style="stop-color:#286A00"/>
			</linearGradient>
			<path class="st16" d="M21.59,12.7c-0.4,0.31-0.65,0.57-1.09,1.02c-0.27,0.27-0.67,0.69-1.15,1.28c-0.1,0.13-0.43,0.54-0.86,1.18
				c-0.33,0.49-0.93,1.4-1.49,2.64c-0.43,0.97-0.65,1.72-0.82,2.3c-0.41,1.41-0.56,2.51-0.69,3.51c-0.14,1.08-0.2,1.87-0.25,2.83
				c-0.02,0.38-0.04,0.81-0.06,1.28c0.11,0,0.22,0.01,0.33,0.02c0.01-0.51,0.02-0.97,0.05-1.51c0.04-0.78,0.08-1.55,0.2-2.58
				c0.06-0.48,0.15-1.2,0.34-2.14c0.15-0.74,0.32-1.39,0.43-1.79c0.25-0.88,0.72-2.51,1.96-4.39c0.86-1.31,1.82-2.33,2.62-3.07
				c0.56-0.52,1.08-0.93,1.48-1.23C22.33,12.18,21.98,12.4,21.59,12.7z"/>
			<linearGradient id="SVGID_17_" gradientUnits="userSpaceOnUse" x1="15.1325" y1="18.8442" x2="15.4774" y2="18.8442">
				<stop  offset="0.0271" style="stop-color:#81B702"/>
				<stop  offset="0.7241" style="stop-color:#8CC63F"/>
				<stop  offset="0.835" style="stop-color:#286A00"/>
			</linearGradient>
			<path class="st17" d="M15.48,28.63c0-1.04-0.01-1.48-0.01-2.76c-0.01-1.81,0.01-1.67,0-3.11c-0.01-1.26-0.02-1.19-0.04-3.61
				c-0.01-0.59-0.01-0.86-0.02-2.39c0-0.33-0.02-2.04-0.03-2.64c-0.02-1.15-0.06-2.86-0.19-5.19c0,0.43-0.01,1.04-0.02,1.77
				c-0.01,1.63-0.02,2.98-0.02,3.42c-0.02,3.62,0.04,7.61,0.04,7.89c0.04,2.32,0.07,2.97,0.08,5.34c0,0.5,0.01,0.95,0.01,1.38
				c0.07,0,0.14,0,0.2,0.01C15.48,28.71,15.48,28.67,15.48,28.63z"/>
			<linearGradient id="SVGID_18_" gradientUnits="userSpaceOnUse" x1="15.2729" y1="28.8674" x2="15.4754" y2="28.8674">
				<stop  offset="0.0271" style="stop-color:#81B702"/>
				<stop  offset="0.7241" style="stop-color:#8CC63F"/>
				<stop  offset="0.835" style="stop-color:#286A00"/>
			</linearGradient>
			<path class="st18" d="M15.48,28.75c-0.07-0.01-0.13-0.01-0.2-0.01c0,0.09,0,0.17,0,0.25c0.07,0,0.13,0,0.2,0
				C15.47,28.91,15.47,28.84,15.48,28.75z"/>
			<linearGradient id="SVGID_19_" gradientUnits="userSpaceOnUse" x1="11.6573" y1="19.3722" x2="15.2632" y2="19.3722">
				<stop  offset="0.0271" style="stop-color:#81B702"/>
				<stop  offset="0.7241" style="stop-color:#8CC63F"/>
				<stop  offset="0.9778" style="stop-color:#286A00"/>
			</linearGradient>
			<path class="st19" d="M15.26,28.74c-0.01-1.77-0.05-3.88-0.18-6.04c-0.03-0.45-0.11-1.77-0.33-3.48
				c-0.25-1.89-0.48-2.88-0.63-3.45c-0.29-1.11-0.57-1.83-0.64-2.01c-0.25-0.64-0.48-1.11-0.86-1.9c-0.36-0.74-0.69-1.38-0.96-1.88
				c0.3,0.58,0.66,1.32,1.01,2.21c0.09,0.24,0.37,0.94,0.67,1.97c0.45,1.5,0.66,2.67,0.85,3.71c0.06,0.36,0.33,1.85,0.52,3.87
				c0.03,0.33,0.12,1.28,0.18,2.6c0.05,1.16,0.09,2.66,0.05,4.43C15.04,28.74,15.15,28.74,15.26,28.74z"/>
			<linearGradient id="SVGID_20_" gradientUnits="userSpaceOnUse" x1="14.9185" y1="28.867" x2="15.2633" y2="28.867">
				<stop  offset="0.0271" style="stop-color:#81B702"/>
				<stop  offset="0.7241" style="stop-color:#8CC63F"/>
				<stop  offset="0.9778" style="stop-color:#286A00"/>
			</linearGradient>
			<path class="st20" d="M15.26,28.74c-0.11,0-0.22,0-0.34,0.02c0,0.07-0.01,0.16-0.01,0.23c0.12,0,0.23,0,0.34,0
				C15.26,28.91,15.26,28.83,15.26,28.74z"/>
		</g>
		<g>
			<path class="st21" d="M24.76,16.92c-1.44-1.9-3.71-3.14-6.28-3.14c-4.35,0-7.88,3.53-7.88,7.88s3.53,7.88,7.88,7.88
				c4.15,0,7.55-3.21,7.85-7.29"/>
			<line class="st21" x1="22.17" y1="21.92" x2="26.68" y2="22"/>
		</g>
	</g>
	<g class="st0">
		<g>
			<path class="st22" d="M30.43,31.27c0.05,0,0.08,0.04,0.08,0.13c-0.08,0.37-0.14,0.56-0.18,0.56c-0.06,0.07-0.18,0.19-0.36,0.36
				l-0.14,0.24l0.01,0.02c-0.02,0.02-0.03,0.06-0.03,0.12c0.04,0.18,0.15,0.36,0.34,0.52c0.03,0,0.08,0.05,0.17,0.14
				c-0.03,0.02-0.05,0.04-0.07,0.07c-0.02,0-0.07-0.01-0.17-0.02c0,0.02-0.01,0.02-0.02,0.02c-0.06-0.04-0.11-0.07-0.15-0.09
				l-0.05,0.01c-0.04,0-0.1-0.08-0.18-0.24c-0.02-0.07-0.04-0.16-0.05-0.25c0.01-0.07,0.01-0.13,0.01-0.18v-0.13h-0.01
				c-0.55,0.39-0.94,0.6-1.18,0.62c0,0-0.03,0.02-0.1,0.03c-0.17,0-0.26-0.13-0.26-0.39l0.01-0.06v-0.14c0-0.01,0-0.01,0.01-0.01
				c0-0.01,0-0.01-0.01-0.01l0.01-0.06v-0.04c0-0.02,0-0.03-0.01-0.05c0-0.13,0.08-0.34,0.24-0.62c0-0.01,0.05-0.09,0.14-0.24
				c0.08-0.13,0.14-0.2,0.18-0.21l0.02,0.01c0.04-0.02,0.07-0.04,0.09-0.04h0.05c0.02,0,0.04,0.08,0.05,0.24l-0.02,0.15
				c0.01,0.01,0.01,0.03,0.01,0.05c0,0.08-0.04,0.14-0.12,0.18c-0.18,0.23-0.3,0.41-0.36,0.54v0.01c0.01,0.02,0.04,0.03,0.09,0.03
				h0.08c0.11,0,0.3-0.07,0.57-0.2c0.24-0.14,0.47-0.3,0.7-0.47c0.04-0.03,0.19-0.2,0.44-0.51C30.31,31.3,30.37,31.27,30.43,31.27z"
				/>
			<path class="st22" d="M32.39,31.39v0.01l0.02-0.01c0.01,0.01,0.05,0.02,0.13,0.04v0.01c0.03-0.02,0.05-0.02,0.06-0.02
				c0,0.01,0,0.01-0.01,0.01c0,0.03,0.02,0.05,0.05,0.05v0.02h-0.02v0.01c0.01,0,0.05,0,0.11,0.01v0.02H32.7l-0.05,0.01v0.01
				c0.04,0,0.05,0.01,0.05,0.03l-0.06,0.01v0.01c0.05,0.04,0.07,0.07,0.07,0.08v0.01l-0.08,0.08c0.04,0.01,0.05,0.02,0.05,0.03
				c-0.03,0.02-0.08,0.03-0.15,0.04v0.01c0.04,0,0.05,0,0.05,0.01l0.02-0.01h0.02c0.02,0,0.02,0.01,0.02,0.03v0.01H32.6l-0.05,0.01
				l0.01,0.02v0.01c-0.12,0-0.37,0.08-0.75,0.25c-0.23,0.14-0.47,0.34-0.72,0.62c-0.02,0.01-0.07,0.11-0.14,0.28l-0.02,0.01h-0.05
				c-0.04-0.02-0.05-0.04-0.05-0.05c0.02-0.19,0.03-0.28,0.05-0.28c-0.01-0.02-0.01-0.03-0.01-0.04c0.04-0.12,0.08-0.32,0.14-0.62
				c0.01,0,0.01,0,0.01-0.01v-0.08c0.06-0.34,0.12-0.51,0.17-0.51h0.02c0,0.02,0.01,0.05,0.03,0.08v0.09c0,0.03-0.01,0.09-0.02,0.16
				l0.01,0.03c-0.03,0.09-0.04,0.13-0.04,0.14c0.01,0.01,0.01,0.03,0.01,0.05h0.01c0.51-0.45,0.86-0.67,1.05-0.67
				C32.24,31.42,32.29,31.41,32.39,31.39z M32.61,31.4h0.03v0.03h-0.01C32.62,31.43,32.61,31.42,32.61,31.4z"/>
			<path class="st22" d="M35.6,27.97h0.01c0.07,0.02,0.12,0.05,0.16,0.09v-0.02h-0.02v-0.02h0.01c0.04,0,0.08,0.14,0.14,0.43
				c0,0.04,0,0.06,0.01,0.07l-0.01,0.02l0.01,0.02c-0.01,0.08-0.02,0.14-0.02,0.15c0,0.01,0,0.01,0.01,0.01
				c-0.07,0.47-0.2,0.85-0.38,1.15l-0.3,0.44c-0.03,0.02-0.05,0.04-0.08,0.04h-0.01c-0.01,0-0.02-0.01-0.03-0.04v-0.06
				c0-0.07,0.04-0.24,0.11-0.51l-0.01-0.02c0-0.02,0.03-0.05,0.1-0.11c0.26-0.33,0.39-0.55,0.39-0.64v-0.04
				c0-0.18-0.06-0.32-0.19-0.44c-0.04-0.02-0.11-0.04-0.2-0.06c-0.14,0-0.32,0.1-0.53,0.29c-0.27,0.29-0.52,0.72-0.73,1.28
				l-0.19,0.58l-0.03,0.12h0.01c0.14,0,0.28-0.01,0.43-0.02v0.01l0.02-0.01h0.08v0.02h0.02l-0.01-0.02h0.06v0.01h-0.02v0.01h0.1
				v0.02h-0.09v0.01c0.04,0,0.06,0.01,0.06,0.04h0.1c0.04,0,0.07,0.02,0.09,0.06c-0.01,0.01-0.03,0.01-0.07,0.01v0.01
				c0.04,0,0.06,0.02,0.06,0.07h-0.16v0.02h0.08c0.01,0,0.03,0.02,0.05,0.05c-0.01,0-0.01,0-0.01,0.01c0.01,0,0.01,0,0.01,0.01
				c-0.03,0.03-0.1,0.05-0.21,0.05h-0.02l0.01,0.02c-0.01,0.01-0.03,0.01-0.05,0.01v0.01h0.03v0.01l-0.01,0.02h0.15
				c0.02,0,0.02,0.01,0.02,0.02v0.01c0,0.02-0.01,0.02-0.03,0.02c-0.14,0-0.32,0.03-0.54,0.09c-0.22,0-0.33,0.02-0.33,0.06
				c-0.03,0.17-0.06,0.29-0.08,0.34c0,0.01,0,0.01,0.01,0.01c-0.02,0.07-0.02,0.11-0.02,0.12l0.01,0.02
				c-0.01,0.02-0.02,0.03-0.02,0.03l0.01,0.02v0.02c0,0.03,0,0.08-0.01,0.13c0.01,0.02,0.01,0.03,0.01,0.04c0,0.01,0,0.01-0.01,0.01
				l0.02,0.12h-0.01c0.06,0.25,0.12,0.42,0.18,0.52v0.02c-0.02,0.29-0.04,0.44-0.07,0.44h-0.01l-0.02-0.01
				c0,0.02-0.01,0.02-0.02,0.02c0-0.02-0.03-0.03-0.08-0.05c-0.07-0.1-0.12-0.33-0.16-0.68V32.5c0.01-0.09,0.02-0.26,0.02-0.51h0.01
				c0-0.01,0-0.01-0.01-0.01c0.03-0.28,0.06-0.48,0.08-0.6h-0.01c-0.05,0-0.14,0-0.26,0.01c-0.23,0-0.35-0.08-0.38-0.24
				c0-0.12,0.03-0.33,0.1-0.63l0.05-0.03h0.08c0,0.15,0.15,0.22,0.44,0.22h0.12c0.17-0.64,0.31-1.04,0.42-1.19
				c0.11-0.3,0.22-0.53,0.35-0.7c0-0.06,0.13-0.24,0.39-0.55c0.13-0.13,0.25-0.22,0.37-0.25l0.06,0.01c0-0.03,0.12-0.05,0.35-0.06
				c0.01,0.01,0.03,0.01,0.06,0.01C35.58,27.98,35.58,27.97,35.6,27.97z M34.44,30.68h0.08v0.02h-0.02c-0.01,0-0.01,0-0.01-0.01
				l-0.02,0.01h-0.02V30.68z"/>
		</g>
		<g>
			<linearGradient id="SVGID_21_" gradientUnits="userSpaceOnUse" x1="23.1667" y1="29.3392" x2="33.9954" y2="29.3392">
				<stop  offset="0" style="stop-color:#286A00"/>
				<stop  offset="0.5665" style="stop-color:#8CC63F"/>
				<stop  offset="1" style="stop-color:#6EA602"/>
			</linearGradient>
			<path class="st23" d="M23.37,30.98c-0.07,0.11-0.13,0.23-0.2,0.34c0.25-0.18,0.61-0.43,1.04-0.72c0.52-0.36,0.82-0.57,1.25-0.84
				c0.36-0.23,0.71-0.46,1.21-0.74c0.23-0.13,0.57-0.32,1.04-0.55c0.37-0.18,0.7-0.32,0.91-0.4c0.46-0.18,1.3-0.51,2.45-0.63
				c0.8-0.08,1.49-0.03,2.02,0.05c0.37,0.05,0.68,0.13,0.92,0.19c-0.13-0.05-0.32-0.12-0.55-0.18c-0.24-0.06-0.42-0.07-0.72-0.1
				c-0.19-0.02-0.48-0.04-0.86-0.04c-0.08,0-0.35,0-0.74,0.04c-0.3,0.03-0.86,0.08-1.55,0.26c-0.54,0.14-0.93,0.29-1.23,0.41
				c-0.73,0.29-1.26,0.58-1.74,0.84c-0.52,0.28-0.88,0.51-1.33,0.79C24.78,30.01,24.13,30.43,23.37,30.98z"/>
			<linearGradient id="SVGID_22_" gradientUnits="userSpaceOnUse" x1="23.1164" y1="29.7484" x2="33.8401" y2="29.7484">
				<stop  offset="0.0271" style="stop-color:#81B702"/>
				<stop  offset="0.7241" style="stop-color:#8CC63F"/>
				<stop  offset="0.9778" style="stop-color:#286A00"/>
			</linearGradient>
			<path class="st24" d="M23.29,31.16c-0.06,0.12-0.12,0.24-0.18,0.36c0.24-0.17,0.58-0.41,0.99-0.7c0.5-0.34,0.79-0.54,1.2-0.8
				c0.34-0.22,0.69-0.43,1.17-0.69c0.22-0.12,0.56-0.3,1.01-0.5c0.36-0.16,0.69-0.28,0.89-0.35c0.45-0.15,1.28-0.44,2.44-0.46
				c0.81-0.01,1.52,0.11,2.07,0.24c0.38,0.09,0.71,0.2,0.95,0.29c-0.14-0.07-0.33-0.16-0.57-0.25c-0.25-0.09-0.43-0.12-0.75-0.18
				c-0.19-0.04-0.49-0.09-0.88-0.12c-0.08-0.01-0.36-0.03-0.75-0.03c-0.3,0-0.86,0.01-1.56,0.14c-0.54,0.1-0.92,0.23-1.22,0.33
				c-0.72,0.25-1.24,0.51-1.7,0.75c-0.5,0.26-0.86,0.48-1.28,0.74C24.65,30.23,24.02,30.64,23.29,31.16z"/>
			<linearGradient id="SVGID_23_" gradientUnits="userSpaceOnUse" x1="23.1693" y1="29.5874" x2="33.998" y2="29.5874">
				<stop  offset="0" style="stop-color:#286A00"/>
				<stop  offset="0.5665" style="stop-color:#8CC63F"/>
				<stop  offset="1" style="stop-color:#6EA602"/>
			</linearGradient>
			<path class="st25" d="M23.37,31.22c-0.07,0.11-0.13,0.23-0.2,0.34c0.25-0.18,0.61-0.43,1.04-0.72c0.52-0.36,0.82-0.57,1.25-0.84
				c0.36-0.23,0.71-0.46,1.21-0.74c0.23-0.13,0.57-0.32,1.04-0.55c0.37-0.18,0.7-0.32,0.91-0.4c0.46-0.18,1.3-0.51,2.45-0.63
				c0.8-0.08,1.49-0.03,2.02,0.05c0.37,0.05,0.68,0.13,0.92,0.19c-0.13-0.05-0.32-0.12-0.55-0.18c-0.24-0.06-0.42-0.07-0.72-0.1
				c-0.19-0.02-0.48-0.04-0.86-0.04c-0.08,0-0.35,0-0.74,0.04c-0.3,0.03-0.86,0.08-1.55,0.26c-0.54,0.14-0.93,0.29-1.23,0.41
				c-0.73,0.29-1.26,0.58-1.74,0.84c-0.52,0.28-0.88,0.51-1.33,0.79C24.79,30.25,24.13,30.68,23.37,31.22z"/>
			<g>
				<linearGradient id="SVGID_24_" gradientUnits="userSpaceOnUse" x1="27.0778" y1="29.738" x2="30.3527" y2="29.738">
					<stop  offset="0.0271" style="stop-color:#81B702"/>
					<stop  offset="0.7241" style="stop-color:#8CC63F"/>
					<stop  offset="0.9532" style="stop-color:#286A00"/>
				</linearGradient>
				<path class="st26" d="M27.08,35.13c0.05,0.12,0.11,0.24,0.16,0.37c0-0.32,0-0.77,0-1.31c0-0.66,0.01-1.04,0.03-1.56
					c0.02-0.44,0.03-0.88,0.08-1.47c0.02-0.27,0.06-0.68,0.14-1.21c0.06-0.42,0.14-0.79,0.19-1.02c0.11-0.5,0.32-1.42,0.86-2.5
					c0.38-0.75,0.8-1.33,1.16-1.75c0.25-0.29,0.48-0.53,0.66-0.7c-0.12,0.09-0.27,0.21-0.44,0.38c-0.18,0.18-0.29,0.32-0.48,0.58
					c-0.12,0.16-0.3,0.39-0.51,0.73c-0.04,0.07-0.19,0.31-0.38,0.67c-0.14,0.28-0.41,0.8-0.65,1.5c-0.19,0.55-0.29,0.98-0.36,1.3
					c-0.18,0.8-0.24,1.43-0.3,1.99c-0.06,0.61-0.08,1.06-0.11,1.6C27.1,33.35,27.07,34.16,27.08,35.13z"/>
				<linearGradient id="SVGID_25_" gradientUnits="userSpaceOnUse" x1="27.0473" y1="28.4717" x2="27.2318" y2="28.4717">
					<stop  offset="0.0271" style="stop-color:#81B702"/>
					<stop  offset="0.7241" style="stop-color:#8CC63F"/>
					<stop  offset="0.835" style="stop-color:#286A00"/>
				</linearGradient>
				<path class="st27" d="M27.15,34.52c0.03,0.06,0.05,0.12,0.08,0.18c0-0.29,0.01-0.74,0.01-1.28c0-0.59-0.01-0.84-0.01-1.56
					c-0.01-1.02,0-0.95-0.01-1.76c-0.01-0.71-0.01-0.67-0.03-2.04c0-0.34-0.01-0.49-0.02-1.35c0-0.19-0.01-1.16-0.02-1.49
					c-0.01-0.65-0.03-1.62-0.1-2.94c0,0.24,0,0.59,0,1c0,0.92,0,1.69,0,1.94c0,2.05,0.03,4.31,0.04,4.47
					c0.02,1.31,0.04,1.68,0.05,3.03C27.14,33.47,27.15,34.1,27.15,34.52z"/>
				<linearGradient id="SVGID_26_" gradientUnits="userSpaceOnUse" x1="25.4934" y1="28.7845" x2="27.1399" y2="28.7845">
					<stop  offset="0.0271" style="stop-color:#81B702"/>
					<stop  offset="0.7241" style="stop-color:#8CC63F"/>
					<stop  offset="0.9778" style="stop-color:#286A00"/>
				</linearGradient>
				<path class="st28" d="M26.97,34.38c0.06,0.11,0.11,0.23,0.17,0.34c0.01-1.15,0-2.89-0.09-4.67c-0.01-0.26-0.05-1-0.16-1.97
					c-0.11-1.07-0.22-1.63-0.29-1.96c-0.13-0.63-0.26-1.03-0.29-1.14c-0.11-0.36-0.22-0.63-0.39-1.07
					c-0.16-0.42-0.31-0.78-0.43-1.06c0.14,0.33,0.3,0.75,0.45,1.25c0.04,0.13,0.16,0.53,0.3,1.11c0.2,0.85,0.3,1.51,0.38,2.1
					c0.03,0.21,0.15,1.05,0.24,2.19c0.01,0.19,0.05,0.72,0.08,1.47C26.99,31.82,27.01,32.98,26.97,34.38z"/>
			</g>
		</g>
	</g>
	<linearGradient id="SVGID_27_" gradientUnits="userSpaceOnUse" x1="0.1477" y1="25.0109" x2="50.0492" y2="25.0109">
		<stop  offset="0.0271" style="stop-color:#81B702"/>
		<stop  offset="0.1897" style="stop-color:#013F00"/>
		<stop  offset="0.7241" style="stop-color:#8CC63F"/>
		<stop  offset="0.9975" style="stop-color:#286A00"/>
	</linearGradient>
	<circle class="st29" cx="25.1" cy="25.01" r="24.49"/>
	<linearGradient id="SVGID_28_" gradientUnits="userSpaceOnUse" x1="0.1477" y1="25.2391" x2="50.0492" y2="25.2391">
		<stop  offset="0.0271" style="stop-color:#81B702"/>
		<stop  offset="0.1897" style="stop-color:#013F00"/>
		<stop  offset="0.7241" style="stop-color:#8CC63F"/>
		<stop  offset="0.9975" style="stop-color:#286A00"/>
	</linearGradient>
	<circle class="st30" cx="25.1" cy="25.24" r="24.49"/>
</g>
</svg>
