<svg width="27" height="16" viewBox="0 0 27 16" fill="none" xmlns="http://www.w3.org/2000/svg">
<g id="Mastercard">
<path d="M17.1506 1.71041H9.84972V14.2896H17.1506V1.71041Z" fill="#FF5F00"/>
<path d="M10.3133 8C10.3122 6.78853 10.5985 5.59269 11.1506 4.50301C11.7028 3.41332 12.5062 2.45836 13.5002 1.7104C12.2693 0.782767 10.791 0.205884 9.23435 0.0456902C7.67766 -0.114504 6.10537 0.148449 4.69719 0.804506C3.28901 1.46056 2.10174 2.48325 1.27111 3.75567C0.440483 5.02809 0 6.4989 0 8C0 9.5011 0.440483 10.9719 1.27111 12.2443C2.10174 13.5167 3.28901 14.5394 4.69719 15.1955C6.10537 15.8516 7.67766 16.1145 9.23435 15.9543C10.791 15.7941 12.2693 15.2172 13.5002 14.2896C12.5062 13.5416 11.7028 12.5867 11.1506 11.497C10.5985 10.4073 10.3122 9.21147 10.3133 8Z" fill="#EB001B"/>
<path d="M27 8C27.0001 9.50107 26.5596 10.9719 25.729 12.2443C24.8985 13.5167 23.7112 14.5394 22.3031 15.1955C20.8949 15.8515 19.3227 16.1145 17.766 15.9543C16.2093 15.7941 14.7311 15.2172 13.5002 14.2896C14.4933 13.5409 15.2961 12.5858 15.8482 11.4963C16.4002 10.4067 16.6871 9.21127 16.6871 8C16.6871 6.78872 16.4002 5.59326 15.8482 4.50374C15.2961 3.41423 14.4933 2.45911 13.5002 1.7104C14.7311 0.782766 16.2093 0.20588 17.766 0.0456881C19.3227 -0.114504 20.8949 0.148461 22.3031 0.804525C23.7112 1.46059 24.8985 2.48328 25.729 3.7557C26.5596 5.02812 27.0001 6.49892 27 8Z" fill="#F79E1B"/>
<path d="M26.204 12.9573V12.6997H26.3123V12.6473H26.0364V12.6997H26.1448V12.9573H26.204ZM26.7395 12.9573V12.6468H26.6549L26.5577 12.8603L26.4604 12.6468H26.3758V12.9573H26.4355V12.723L26.5267 12.925H26.5886L26.6798 12.7225V12.9573H26.7395Z" fill="#F79E1B"/>
</g>
</svg>
