<svg width="95" height="91" viewBox="0 0 95 91" fill="none" xmlns="http://www.w3.org/2000/svg">
<g id="Frame">
<path id="Vector" d="M64.5786 64.6906C63.7034 69.5789 61.3516 74.0817 57.8397 77.5928C54.3279 81.1039 49.8246 83.4548 44.9361 84.3289C44.7505 84.3586 44.5629 84.3741 44.375 84.3753C43.5284 84.3751 42.7128 84.0567 42.09 83.4833C41.4672 82.9099 41.0825 82.1234 41.0125 81.2797C40.9424 80.436 41.1919 79.5968 41.7116 78.9285C42.2313 78.2602 42.9832 77.8116 43.8181 77.6717C50.8086 76.4947 56.7402 70.5631 57.9256 63.56C58.0756 62.6772 58.57 61.8901 59.3003 61.3719C60.0305 60.8537 60.9367 60.6468 61.8195 60.7967C62.7023 60.9466 63.4894 61.4411 64.0076 62.1714C64.5258 62.9016 64.7327 63.8078 64.5828 64.6906H64.5786ZM78.125 60.7503C78.125 70.5965 74.2136 80.0394 67.2513 87.0016C60.2891 93.9639 50.8462 97.8753 41 97.8753C31.1538 97.8753 21.7109 93.9639 14.7487 87.0016C7.78637 80.0394 3.875 70.5965 3.875 60.7503C3.875 48.9715 8.51563 36.927 17.6534 24.9542C17.9427 24.5751 18.309 24.2616 18.7282 24.0343C19.1474 23.8071 19.61 23.6712 20.0856 23.6357C20.5611 23.6003 21.0388 23.666 21.487 23.8285C21.9353 23.991 22.3441 24.2467 22.6864 24.5787L32.862 34.4548L42.1433 8.96936C42.3287 8.46105 42.6336 8.00478 43.0323 7.63901C43.431 7.27324 43.9118 7.00868 44.4342 6.86765C44.9565 6.72661 45.5052 6.71324 46.0338 6.82864C46.5624 6.94405 47.0555 7.18486 47.4716 7.53076C56.698 15.1878 78.125 35.6698 78.125 60.7503ZM71.375 60.7503C71.375 41.3061 56.2761 24.5028 46.8177 15.8923L37.4225 41.6562C37.2297 42.1854 36.9075 42.6579 36.4853 43.0307C36.0631 43.4034 35.5544 43.6646 35.0054 43.7904C34.4565 43.9162 33.8847 43.9027 33.3424 43.751C32.8 43.5993 32.3042 43.3142 31.9002 42.9219L20.7753 32.1303C14.038 41.8545 10.625 51.469 10.625 60.7503C10.625 68.8062 13.8252 76.5322 19.5216 82.2287C25.218 87.9251 32.944 91.1253 41 91.1253C49.056 91.1253 56.7819 87.9251 62.4784 82.2287C68.1748 76.5322 71.375 68.8062 71.375 60.7503Z" fill="#F8FFF4"/>
</g>
</svg>
