<svg width="274" height="223" viewBox="0 0 274 223" fill="none" xmlns="http://www.w3.org/2000/svg">
<g id="objects">
<g id="Group">
<g id="Group_2">
<path id="Vector" d="M73.7613 108.377C73.6989 107.066 73.2978 105.891 72.556 104.852C71.8143 103.812 70.7555 102.98 69.38 102.352L69.354 102.341C67.9789 101.714 66.6503 101.459 65.3712 101.577C64.0921 101.696 62.9306 102.159 61.8879 102.966C60.8452 103.773 59.9929 104.904 59.3297 106.357L58.0307 109.209L55.5382 114.677L74.1515 123.16L76.6441 117.691L71.5622 115.375L72.8612 112.524C73.5233 111.071 73.8237 109.688 73.7613 108.377ZM68.2297 111.987L67.5238 113.535L62.1449 111.084L62.8507 109.536C63.262 108.633 63.8059 108.027 64.482 107.716C65.1584 107.407 65.9428 107.455 66.837 107.863L66.863 107.875C67.7486 108.279 68.3003 108.84 68.5192 109.556C68.737 110.274 68.641 111.084 68.2297 111.987Z" fill="#42AF3C"/>
<path id="Vector_2" d="M87.2395 84.1649C86.8211 83.0231 86.1247 82.038 85.1524 81.2125L85.1306 81.1944C83.9783 80.2161 82.8038 79.628 81.6071 79.4304C80.4107 79.2339 79.2183 79.4197 78.0278 79.9897C76.8373 80.5596 75.6738 81.5147 74.5364 82.8552L68.5736 89.8797L84.1682 103.116L88.0579 98.5343L82.9356 94.1859L84.0369 92.8888C84.0681 92.8531 84.0978 92.8167 84.1289 92.781C84.1601 92.7453 84.1871 92.7121 84.2118 92.6834L91.4263 94.5673L95.7747 89.4451L87.458 87.4808C87.7327 86.413 87.6605 85.3071 87.2418 84.1642L87.2395 84.1649ZM82.0642 87.5901C82.0987 88.2646 81.854 88.9111 81.3282 89.5314L79.7046 91.444L75.8459 88.1688L77.4695 86.2562C77.9837 85.6505 78.5806 85.3086 79.2613 85.2299C79.942 85.1513 80.5677 85.3527 81.1365 85.8361L81.1582 85.8543C81.727 86.3377 82.0297 86.9157 82.0642 87.5901Z" fill="#42AF3C"/>
<path id="Vector_3" d="M102.151 78.8326L100.32 76.1512L106.842 71.6995L104.349 68.0472L97.827 72.4989L95.9888 69.806L102.943 65.0583L100.257 61.1253L88.339 69.2617L99.8724 86.1554L111.791 78.019L109.105 74.0849L102.151 78.8326Z" fill="#42AF3C"/>
<path id="Vector_4" d="M125.669 63.5062L125.573 63.5333L117.828 53.1065L111.159 55.048L116.877 74.6874L121.913 73.2216L118.6 61.843L118.691 61.8173L126.391 71.9178L129.481 71.0183L130.555 58.3632L130.646 58.3364L133.959 69.715L138.994 68.248L133.277 48.6087L126.607 50.5506L125.669 63.5062Z" fill="#42AF3C"/>
<path id="Vector_5" d="M144.478 47.6087L145.389 68.0439L151.393 67.7764L150.482 47.3411L144.478 47.6087Z" fill="#42AF3C"/>
<path id="Vector_6" d="M173.35 49.5962L171.079 61.9632C170.885 63.0223 170.484 63.7903 169.878 64.2652C169.273 64.7401 168.486 64.8888 167.519 64.7109C166.561 64.5351 165.881 64.1171 165.479 63.4566C165.077 62.7965 164.973 61.9363 165.168 60.8768L167.439 48.5098L161.527 47.4238L159.148 60.3766C158.868 61.9015 158.993 63.2963 159.525 64.5606C160.057 65.8249 160.931 66.8894 162.146 67.7514C163.362 68.6134 164.852 69.2069 166.619 69.5313C168.413 69.8611 170.032 69.8363 171.476 69.4577C172.919 69.079 174.112 68.3928 175.053 67.3983C175.995 66.4038 176.605 65.1491 176.883 63.6346L179.263 50.6818L173.351 49.5958L173.35 49.5962Z" fill="#42AF3C"/>
<path id="Vector_7" d="M195.509 70.7874L195.422 70.7397L197.338 57.8917L191.254 54.5404L181.383 72.4566L185.977 74.9872L191.695 64.6075L191.778 64.6529L190.062 77.2382L192.88 78.7907L202.601 70.6168L202.684 70.6618L196.964 81.0418L201.559 83.5723L211.43 65.656L205.346 62.3046L195.509 70.7874Z" fill="#42AF3C"/>
<path id="Vector_8" d="M250.454 80.8763L31.869 148.38C29.3596 149.155 27.9536 151.818 28.7285 154.327L47.565 215.322C48.34 217.831 51.0025 219.237 53.5119 218.462L272.097 150.958C274.607 150.183 276.013 147.521 275.238 145.011L256.401 84.0168C255.626 81.5074 252.964 80.1014 250.454 80.8763Z" fill="#42AF3C"/>
<path id="Vector_9" d="M249.465 78.1137L247.495 78.7218C246.072 76.8057 244.585 74.929 243.04 73.0926C233.137 61.3264 221.189 51.7035 207.528 44.4889C193.866 37.2744 179.182 32.8343 163.881 31.2894C148.039 29.6905 132.228 31.2818 116.886 36.0198C101.543 40.7578 87.5871 48.3594 75.4065 58.6123C63.6403 68.5151 54.0174 80.4629 46.8028 94.1245C39.5883 107.786 35.1482 122.47 33.6033 137.771C33.3615 140.16 33.1929 142.548 33.0979 144.933L30.8793 145.618C26.7537 146.892 24.4437 151.268 25.7174 155.392L44.5539 216.387C45.828 220.513 50.2041 222.823 54.3285 221.549L56.6355 220.836C58.0092 222.676 59.4395 224.478 60.9258 226.245C70.8286 238.011 82.7764 247.634 96.438 254.848C110.1 262.063 124.784 266.503 140.085 268.048C155.927 269.647 171.738 268.056 187.08 263.318C202.422 258.58 216.379 250.978 228.559 240.725C240.326 230.822 249.949 218.874 257.163 205.213C264.378 191.551 268.818 176.867 270.363 161.566C270.594 159.269 270.759 156.974 270.856 154.68L272.914 154.045C277.04 152.771 279.35 148.395 278.076 144.27L259.24 83.2767C257.966 79.1511 253.59 76.8411 249.465 78.1148L249.465 78.1137ZM34.8994 137.901C36.427 122.769 40.8193 108.244 47.9551 94.733C55.0898 81.2227 64.6101 69.4046 76.2445 59.6095C88.2921 49.4685 102.095 41.9516 117.27 37.265C132.446 32.5785 148.082 31.0039 163.751 32.5855C178.884 34.1131 193.409 38.5054 206.919 45.6412C220.43 52.7759 232.248 62.2962 242.043 73.9306C243.472 75.6301 244.849 77.3633 246.174 79.1299L244.586 79.6205C243.381 78.0314 242.134 76.4691 240.844 74.9363C231.179 63.454 219.519 54.0637 206.189 47.0234C192.859 39.9835 178.529 35.6499 163.597 34.1425C148.134 32.5817 132.703 34.1349 117.731 38.7585C102.76 43.382 89.1402 50.8002 77.2501 60.8082C65.7679 70.4731 56.3776 82.1332 49.3373 95.4629C42.2974 108.794 37.9638 123.123 36.4564 138.056C36.2557 140.05 36.1063 142.043 36.0077 144.034L34.4191 144.525C34.5161 142.319 34.6758 140.111 34.8994 137.901ZM186.234 84.8108C177.811 80.3624 168.757 77.624 159.321 76.6719C149.551 75.6862 139.8 76.6672 130.341 79.5884C120.882 82.5096 112.275 87.1981 104.762 93.5209C97.5063 99.6291 91.5735 106.996 87.1247 115.418C84.6452 120.113 82.6966 125.005 81.2945 130.05L79.6707 130.551C81.1161 125.095 83.1841 119.811 85.8571 114.75C90.3932 106.16 96.4429 98.6494 103.841 92.4227C111.499 85.9768 120.273 81.1971 129.918 78.2185C139.562 75.24 149.504 74.2399 159.462 75.2456C169.083 76.2163 178.315 79.0078 186.904 83.544C191.966 86.2169 196.653 89.415 200.923 93.1056L199.3 93.6071C195.297 90.2322 190.93 87.2903 186.234 84.8108ZM191.745 95.94L88.8488 127.717C89.9507 124.553 91.2988 121.463 92.8836 118.46C96.9373 110.784 102.346 104.07 108.957 98.5044C115.799 92.7451 123.64 88.4755 132.263 85.8125C140.886 83.1496 149.769 82.2555 158.666 83.1531C167.264 84.0216 175.515 86.5164 183.194 90.5705C186.197 92.1564 189.051 93.9483 191.745 95.94ZM187.512 82.392C178.774 77.7776 169.381 74.9367 159.593 73.9491C149.46 72.9257 139.346 73.944 129.532 76.9747C119.718 80.0054 110.792 84.8672 103 91.4265C95.4746 97.7606 89.3181 105.403 84.7036 114.141C81.8568 119.532 79.6848 125.175 78.2079 131.003L42.6571 141.982C42.7349 140.892 42.8278 139.802 42.9379 138.712C44.3618 124.618 48.4517 111.091 55.0977 98.5059C61.7452 85.9218 70.609 74.9158 81.4456 65.7929C92.6648 56.3494 105.521 49.3483 119.654 44.9837C133.787 40.6191 148.352 39.152 162.942 40.6248C177.036 42.0487 190.563 46.1386 203.148 52.7846C215.732 59.4321 226.738 68.2959 235.861 79.1325C236.567 79.9708 237.258 80.8185 237.937 81.675L202.385 92.6542C197.879 88.674 192.904 85.2385 187.513 82.3917L187.512 82.392ZM269.066 161.439C267.538 176.571 263.146 191.096 256.01 204.607C248.876 218.117 239.355 229.935 227.721 239.73C215.673 249.87 201.871 257.388 186.695 262.075C171.52 266.762 155.883 268.335 140.214 266.754C125.082 265.227 110.557 260.835 97.0461 253.699C83.5358 246.564 71.7177 237.044 61.9227 225.409C60.5525 223.782 59.2304 222.121 57.9589 220.431L59.5486 219.94C60.6999 221.454 61.8916 222.942 63.1225 224.403C72.7874 235.886 84.4474 245.276 97.7772 252.316C111.108 259.356 125.438 263.69 140.37 265.197C155.833 266.758 171.264 265.205 186.235 260.581C201.207 255.958 214.826 248.539 226.716 238.531C238.199 228.867 247.589 217.206 254.629 203.877C261.669 190.546 266.003 176.216 267.51 161.284C267.701 159.383 267.847 157.482 267.945 155.583L269.535 155.092C269.438 157.206 269.281 159.322 269.068 161.438L269.066 161.439ZM117.731 214.529C126.155 218.978 135.208 221.716 144.645 222.668C154.414 223.654 164.166 222.673 173.625 219.752C183.084 216.83 191.691 212.142 199.203 205.819C206.459 199.711 212.392 192.344 216.841 183.922C219.271 179.32 221.192 174.528 222.586 169.59L224.213 169.087C222.773 174.438 220.732 179.622 218.108 184.592C213.572 193.182 207.522 200.692 200.124 206.919C192.466 213.365 183.692 218.144 174.047 221.123C164.402 224.102 154.46 225.102 144.502 224.096C134.881 223.125 125.65 220.334 117.06 215.798C112.091 213.173 107.482 210.042 103.276 206.435L104.903 205.933C108.839 209.225 113.127 212.099 117.729 214.53L117.731 214.529ZM112.482 203.592L215.01 171.929C213.929 174.986 212.616 177.974 211.082 180.88C207.026 188.557 201.62 195.27 195.008 200.836C188.167 206.595 180.326 210.865 171.703 213.527C163.08 216.19 154.196 217.085 145.299 216.187C136.702 215.318 128.45 212.824 120.772 208.769C117.866 207.234 115.099 205.506 112.481 203.593L112.482 203.592ZM116.454 216.948C125.192 221.562 134.585 224.403 144.372 225.391C154.506 226.414 164.62 225.396 174.433 222.365C184.247 219.335 193.174 214.473 200.966 207.914C208.491 201.579 214.647 193.937 219.262 185.199C222.061 179.898 224.207 174.358 225.682 168.634L261.29 157.637C261.216 158.634 261.13 159.631 261.029 160.628C259.605 174.722 255.515 188.249 248.869 200.834C242.221 213.418 233.358 224.424 222.521 233.547C211.302 242.99 198.446 249.991 184.313 254.356C170.18 258.721 155.615 260.188 141.024 258.715C126.931 257.291 113.404 253.201 100.819 246.555C88.2345 239.908 77.2286 231.044 68.1056 220.207C67.4591 219.44 66.8266 218.666 66.2029 217.884L101.812 206.887C106.257 210.783 111.154 214.15 116.454 216.948ZM276.108 144.743C277.03 147.728 275.352 150.907 272.365 151.83L53.781 219.334C50.7953 220.256 47.616 218.578 46.6936 215.591L27.8571 154.596C26.935 151.611 28.613 148.431 31.5999 147.509L250.185 80.0049C253.171 79.0828 256.35 80.7608 257.273 83.7476L276.109 144.742L276.108 144.743Z" fill="#42AF3C"/>
<path id="Vector_10" d="M113.865 110.08L111.495 107.576L110.949 110.98L107.836 112.46L110.905 114.031L111.35 117.449L113.793 115.016L117.182 115.648L115.622 112.574L117.271 109.546L113.865 110.08Z" fill="#42AF3C"/>
<path id="Vector_11" d="M164.055 94.5796L161.685 92.076L161.14 95.48L158.026 96.9603L161.094 98.5312L161.54 101.949L163.982 99.5159L167.371 100.149L165.812 97.0741L167.462 94.0465L164.055 94.5796Z" fill="#42AF3C"/>
<path id="Vector_12" d="M138.512 95.0965L133.492 89.7942L132.337 97.0036L125.743 100.14L132.242 103.466L133.186 110.706L138.359 105.552L145.536 106.892L142.234 100.38L145.725 93.9687L138.512 95.0965Z" fill="#42AF3C"/>
<path id="Vector_13" d="M140.103 205.382L142.474 207.886L143.019 204.482L146.132 203.001L143.063 201.43L142.618 198.011L140.176 200.445L136.786 199.812L138.346 202.886L136.697 205.915L140.103 205.382Z" fill="#42AF3C"/>
<path id="Vector_14" d="M190.294 189.883L192.663 192.387L193.209 188.982L196.323 187.502L193.253 185.93L192.807 182.512L190.365 184.945L186.976 184.313L188.535 187.387L186.888 190.416L190.294 189.883Z" fill="#42AF3C"/>
<path id="Vector_15" d="M165.646 204.864L170.666 210.166L171.822 202.957L178.415 199.822L171.916 196.495L170.971 189.255L165.799 194.408L158.622 193.069L161.924 199.58L158.433 205.993L165.646 204.864Z" fill="#42AF3C"/>
<path id="Vector_16" d="M230.205 190.961C230.267 192.272 230.668 193.446 231.41 194.486C232.152 195.525 233.21 196.357 234.586 196.985L234.612 196.997C235.987 197.625 237.316 197.878 238.595 197.76C239.874 197.642 241.035 197.179 242.078 196.372C243.121 195.564 243.973 194.434 244.636 192.98L245.935 190.129L248.428 184.66L229.814 176.177L227.322 181.646L232.405 183.962L231.106 186.814C230.444 188.267 230.143 189.649 230.206 190.96L230.205 190.961ZM235.736 187.351L236.442 185.802L241.821 188.253L241.115 189.802C240.704 190.704 240.16 191.31 239.484 191.621C238.808 191.93 238.023 191.882 237.129 191.475L237.103 191.463C236.217 191.059 235.666 190.498 235.447 189.781C235.229 189.064 235.325 188.254 235.736 187.351Z" fill="#42AF3C"/>
<path id="Vector_17" d="M216.726 215.173C217.145 216.315 217.841 217.3 218.814 218.126L218.835 218.144C219.988 219.122 221.162 219.71 222.359 219.908C223.555 220.104 224.748 219.919 225.938 219.349C227.129 218.779 228.292 217.824 229.43 216.483L235.392 209.459L219.798 196.222L215.908 200.804L221.03 205.152L219.929 206.45C219.898 206.485 219.868 206.522 219.837 206.557C219.806 206.593 219.779 206.626 219.754 206.655L212.54 204.771L208.191 209.893L216.508 211.858C216.233 212.925 216.305 214.031 216.724 215.174L216.726 215.173ZM221.902 211.748C221.867 211.074 222.112 210.427 222.638 209.807L224.261 207.894L228.12 211.17L226.496 213.082C225.982 213.688 225.385 214.03 224.705 214.108C224.024 214.187 223.398 213.986 222.829 213.502L222.808 213.484C222.239 213.001 221.936 212.423 221.902 211.748Z" fill="#42AF3C"/>
<path id="Vector_18" d="M201.815 220.506L203.646 223.186L197.124 227.638L199.618 231.291L206.139 226.839L207.977 229.532L201.023 234.279L203.709 238.213L215.627 230.077L204.094 213.183L192.175 221.319L194.861 225.252L201.815 220.506Z" fill="#42AF3C"/>
<path id="Vector_19" d="M108.457 228.55L108.544 228.599L106.628 241.446L112.712 244.797L122.583 226.881L117.989 224.35L112.27 234.73L112.188 234.685L113.904 222.101L111.086 220.547L101.364 228.722L101.282 228.677L107.001 218.297L102.407 215.766L92.5364 233.683L98.6204 237.034L108.457 228.55Z" fill="#42AF3C"/>
</g>
<path id="Vector_20" d="M73.9335 157.803C71.1252 157.209 68.0784 157.419 64.7958 158.433C61.5132 159.447 58.9249 160.972 56.9449 163.037C54.965 165.102 53.7021 167.563 53.1558 170.42C52.6088 173.279 52.8569 176.393 53.8979 179.764L53.9116 179.809C54.953 183.181 56.5018 185.897 58.5596 187.959C60.6174 190.02 63.0449 191.346 65.8443 191.935C68.6426 192.524 71.6767 192.313 74.9457 191.303C76.9445 190.686 78.6993 189.874 80.2137 188.87L82.7576 190.866L90.9374 188.339L85.0452 183.716C85.8016 182.359 86.3315 180.88 86.6331 179.276C87.1722 176.42 86.9206 173.307 85.8796 169.936L85.866 169.892C84.8249 166.521 83.2782 163.811 81.2246 161.763C79.1714 159.717 76.7404 158.396 73.932 157.802L73.9335 157.803ZM75.8721 176.519L67.6935 179.045L73.297 183.441C73.0743 183.536 72.841 183.62 72.5974 183.695C71.2921 184.099 70.0472 184.094 68.8598 183.682C67.6727 183.27 66.6079 182.487 65.6654 181.332C64.7233 180.178 63.9716 178.693 63.41 176.874L63.3963 176.83C62.8305 174.998 62.6126 173.343 62.7422 171.866C62.8718 170.389 63.3153 169.148 64.0736 168.143C64.8308 167.139 65.8543 166.438 67.1449 166.04C68.4355 165.641 69.7204 165.634 70.9154 166.043C72.1096 166.454 73.1763 167.231 74.1175 168.378C75.0575 169.525 75.8082 171.007 76.3695 172.825L76.3831 172.869C76.8968 174.532 77.1184 176.057 77.056 177.447L75.8729 176.518L75.8721 176.519Z" fill="white"/>
<path id="Vector_21" d="M109.253 166.693C109.769 168.364 109.77 169.769 109.254 170.907C108.738 172.046 107.718 172.851 106.194 173.322C104.67 173.793 103.393 173.698 102.317 173.05C101.242 172.402 100.447 171.243 99.9313 169.572L93.9084 150.069L84.5853 152.948L90.8934 173.374C91.636 175.779 92.8643 177.69 94.5804 179.112C96.2953 180.533 98.3513 181.407 100.748 181.735C103.146 182.062 105.737 181.795 108.522 180.935C111.307 180.075 113.662 178.809 115.455 177.18C117.248 175.551 118.448 173.667 119.056 171.528C119.664 169.389 119.599 167.126 118.861 164.736L112.553 144.31L103.231 147.188L109.254 166.691L109.253 166.693Z" fill="white"/>
<path id="Vector_22" d="M133.243 137.922L124.448 140.638L123.889 175.564L133.695 172.536L133.394 165.717L142.895 162.783L146.491 168.584L156.297 165.556L136.143 137.026L133.242 137.922L133.243 137.922ZM133.083 158.612L132.545 146.422L132.721 146.368L139.15 156.738L133.084 158.612L133.083 158.612Z" fill="white"/>
<path id="Vector_23" d="M158.682 130.065L149.359 132.944L159.157 164.672L180.925 157.95L178.643 150.562L166.199 154.405L158.682 130.065Z" fill="white"/>
<path id="Vector_24" d="M183.967 122.257L174.644 125.136L184.442 156.864L193.765 153.985L183.967 122.257Z" fill="white"/>
<path id="Vector_25" d="M189.436 128.66L197.791 126.08L205.308 150.42L214.631 147.541L207.114 123.201L215.469 120.621L213.187 113.233L187.154 121.272L189.436 128.66Z" fill="white"/>
<path id="Vector_26" d="M235.989 106.191L234.398 120.772L234.222 120.826L224.687 109.681L214.837 112.723L232.371 131.055L235.475 141.104L244.798 138.224L241.695 128.176L245.839 103.149L235.989 106.191Z" fill="white"/>
</g>
</g>
</svg>
