<svg width="25" height="25" viewBox="0 0 25 25" fill="none" xmlns="http://www.w3.org/2000/svg">
<path d="M8.57062 12.697L11.019 15.0782L15.7711 10.1617" stroke="#5AA02D" stroke-width="1.5" stroke-linecap="round" stroke-linejoin="round"/>
<path d="M10.7878 3.11043C11.4683 2.50949 12.5982 2.49145 13.3075 3.0702L14.909 4.40479C15.2131 4.65997 15.7764 4.861 16.1764 4.85462L17.8761 4.82747C18.936 4.81055 19.8198 5.66655 19.8367 6.72641L19.8638 8.42619C19.8701 8.81614 20.0892 9.38272 20.3539 9.67853L21.739 11.2366C22.3399 11.9171 22.3579 13.047 21.7792 13.7563L20.4446 15.3578C20.1894 15.6619 19.9884 16.2252 19.9948 16.6252L20.0219 18.3249C20.0388 19.3848 19.1828 20.2686 18.123 20.2855L16.4232 20.3126C16.0332 20.3189 15.4667 20.5379 15.1709 20.8027L13.6128 22.1878C12.9323 22.7887 11.8024 22.8067 11.0931 22.228L9.49159 20.8934C9.18747 20.6382 8.62419 20.4372 8.22424 20.4436L6.49446 20.4712C5.4346 20.4881 4.55082 19.6321 4.53389 18.5723L4.50659 16.8625C4.50036 16.4725 4.28145 15.916 4.02669 15.62L2.65148 14.0517C2.06053 13.3711 2.04265 12.2512 2.61156 11.5521L3.936 9.9407C4.18118 9.63675 4.38221 9.07347 4.37598 8.68352L4.34852 6.96374C4.33159 5.90387 5.18759 5.02009 6.24746 5.00317L7.97724 4.97555C8.36719 4.96932 8.93376 4.75024 9.22957 4.48549L10.7878 3.11043Z" stroke="#5AA02D" stroke-width="1.5" stroke-linecap="round" stroke-linejoin="round"/>
</svg>
